<?xml version="1.0" encoding="utf-8"?>
<!-- Generator: Adobe Illustrator 22.0.1, SVG Export Plug-In . SVG Version: 6.00 Build 0)  -->
<svg version="1.1" id="Layer_1" xmlns="http://www.w3.org/2000/svg" xmlns:xlink="http://www.w3.org/1999/xlink" x="0px" y="0px"
	 viewBox="0 0 500 500" style="enable-background:new 0 0 500 500;" xml:space="preserve">
<style type="text/css">
	.st0{fill:#FFFFFF;}
	.st1{fill:#ED4C7B;}
</style>
<g>
	<g>
		<path class="st0" d="M467.5,224c0,22.1-17.9,40-40,40H188l102.1,91.4c8,7.1,12.7,16.9,13.3,27.6c0.6,10.7-3,20.9-10.1,28.9
			c-7.6,8.5-18.5,13.3-29.8,13.3c-9.9,0-19.3-3.6-26.7-10.2L63.4,259.8c-0.2-0.2-0.4-0.3-0.6-0.5c-2.7-2.1-5.1-4.6-7.1-7.2
			c0,0,0,0,0-0.1c-0.5-0.6-0.9-1.2-1.4-1.9c-1.4-2.1-2.7-4.2-3.8-6.5c0-0.1,0-0.1-0.1-0.2c-0.2-0.4-0.4-0.9-0.5-1.3c0,0,0,0,0,0
			c-2.2-5.4-3.4-11.7-3.4-18.5c0-0.8,0-1.5,0-2.2c0-1.3,0.2-2.7,0.3-4v0c1.1-9.7,4.8-18.1,10-23.4c0.1-0.1,0.1-0.1,0.2-0.2l2-1.8
			l1.9-1.7L68,184l168.7-151c7.3-6.6,16.8-10.2,26.7-10.2c11.3,0,22.2,4.8,29.8,13.3c7.1,8,10.7,18.2,10.1,28.9
			c-0.6,10.7-5.3,20.5-13.3,27.6L188,184h239.5C449.5,184,467.5,201.9,467.5,224z"/>
		<path class="st0" d="M49.8,242.2c0.2,0.4,0.4,0.9,0.5,1.3C50.1,243.1,49.9,242.6,49.8,242.2L49.8,242.2z"/>
		<path class="st0" d="M57,193.9c-0.1,0.1-0.1,0.1-0.2,0.2l0,0L57,193.9z"/>
	</g>
</g>
<g>
	<path d="M77.5,209.1l0.1-0.1h0.1C77.6,209,77.5,209.1,77.5,209.1z"/>
</g>
<path class="st1" d="M54.2,250.1c0.4,0.6,0.9,1.2,1.4,1.9c-2-2.3-3.8-5.2-5.2-8.4C51.5,245.9,52.7,248.1,54.2,250.1z"/>
<path class="st1" d="M59,192.1l-2,1.8C57.6,193.2,58.3,192.6,59,192.1z"/>
</svg>
