<?xml version="1.0" encoding="utf-8"?>
<!-- Generator: Adobe Illustrator 21.1.0, SVG Export Plug-In . SVG Version: 6.00 Build 0)  -->
<svg version="1.1" id="Layer_1" xmlns="http://www.w3.org/2000/svg" xmlns:xlink="http://www.w3.org/1999/xlink" x="0px" y="0px"
	 viewBox="0 0 515 532" style="enable-background:new 0 0 515 532;" xml:space="preserve">
<style type="text/css">
	.st0{fill:#FFFFFF;}
</style>
<g>
	<path class="st0" d="M97,443.3l-0.2,0.1c0.2,0,0.4,0,0.5,0h0.1l0.1-0.1l0.2-0.1L97,443.3z"/>
</g>
<g>
	<path class="st0" d="M97,443.3l-0.2,0.1c0.2,0,0.4,0,0.5,0c0,0,0.1,0,0.1,0c0,0,0,0,0,0l0,0c0.1-0.1,0.1-0.1,0.2-0.1L97,443.3z
		 M97,443.3l-0.2,0.1c0.2,0,0.4,0,0.5,0c0,0,0.1,0,0.1,0c0,0,0,0,0,0l0,0c0.1-0.1,0.1-0.1,0.2-0.1L97,443.3z"/>
	<path class="st0" d="M87.2,445c0.7-0.1,1.4-0.3,2-0.4c3-0.6,5.5-1,7.4-1.2h0.2l0.2-0.1C94.6,443.5,91.4,444,87.2,445z M97.4,443.3
		L97.4,443.3c1.7-0.1,3-0.1,4-0.1C100.5,443.1,99.2,443.1,97.4,443.3z M101.7,443.2c0.3,0,0.5,0.1,0.7,0.1
		C102.2,443.3,101.9,443.2,101.7,443.2z"/>
	<path class="st0" d="M153.1,475.9"/>
</g>
<path class="st0" d="M296.5,221.5c-73.4,5.5-111.7,73.2-111.7,73.2s56,31.2,94.2,6C317.1,275.5,296.5,221.5,296.5,221.5z
	 M270.7,258.6c-3.3,0-6-2.7-6-6c0-3.3,2.7-6,6-6c3.3,0,6,2.7,6,6C276.7,256,274,258.6,270.7,258.6z M281.5,242.8
	c-4.2,0-7.6-3.5-7.6-7.7c0-4.2,3.5-7.6,7.7-7.6c4.2,0,7.6,3.5,7.6,7.7C289.2,239.4,285.8,242.8,281.5,242.8z"/>
<path class="st0" d="M462.7,333.6c-10.5-10.2-21.5-23.9-23.7-29.3c-0.3-2.6-0.4-7.2-0.6-11.7c-0.8-19.6-1.9-50.4-13.8-78.4
	c58.3-100,41.4-188.9,40.6-192.9l-4.2-20.9L439.8,0c-1.3,0-2.6,0-3.8,0C334.3,0,267.2,68.4,237,108.1c-13.9,0.5-37.5,2.8-63.8,11.7
	C128.9,51.3,60.5,22.1,57.3,20.8l-23.8-9.9L23,34.4c-35.2,78.8-23.4,139.7-7.3,176.9c10.5,24.1,23.9,41.4,33.5,51.9
	c-2.7,14.1-4.4,29-4.8,44.6c-0.2,6.4-0.2,12.8,0,19.2c-6.9,1.8-21,5.6-29.1,20.5c-9,16.7-4.4,36.2,0.7,51.4
	c14.1,42.3,46.1,74.3,74.6,74.3c3.6,0,7.2-0.5,10.8-1.5c5.5,2.3,10.6,3.6,14.3,4.3h0c1.5,0.3,2.8,0.5,3.8,0.7
	c5.3,31.6,31.8,55.5,62.9,55.5c6.2,0,12.5-1,18.6-2.9c25.2-8.1,158.5-66.7,204.2-126.5c6-7.8,22.8-23.8,36.2-23.8c0.4,0,0.7,0,1.1,0
	l72.5,4.9L462.7,333.6z M47.2,45.2c0,0,75.1,31.4,113.9,106.2c-2.7,1-5.4,1.9-8,3.1c-1.3,0.6-2.6,1.2-3.9,1.8
	c-1.3,0.6-2.5,1.3-3.8,2c-2.6,1.3-5,2.9-7.4,4.3l-3.6,2.4l-1.8,1.2l-1.7,1.3c-9.2,6.9-17.4,15.1-24.6,24.1
	c-7.2,9-13.2,18.8-18.2,29.1c-2.5,5.2-4.7,10.4-6.6,15.8c-1.7,5.1-3.3,10.2-4.3,15.4c-0.1,0.5-0.3,1-0.4,1.4
	C65.2,243-8.8,170.4,47.2,45.2z M85.6,445.3l1.6-0.4c4.3-0.9,7.5-1.4,9.8-1.6l0.6-0.2l-0.2,0.1c1.8-0.2,3-0.2,4-0.1
	c0.1,0,0.2,0,0.3,0c0.3,0,0.5,0.1,0.7,0.1c0.2,0,0.4,0.1,0.5,0.1c0.1,0,0.1,0,0.2,0.1c0.5,0.2,1,0.3,1.6,0.4c0.3,1.4,0.6,2.9,1,4.4
	c0,0,0.1,0.5,0.2,0.5l0.1,0.5c1.6,6,5.4,11,9.7,15.5C107.3,462.9,93.4,457.9,85.6,445.3z M137,446.2l-9.6-6.7l-6.4,10.7l-9.1-7.7
	l15-3.5c0.2,0,0.4-0.1,0.7-0.1c4-1,8.4-2.1,12.5-3.3c0.2,0,0.3-0.1,0.4-0.1c5.7-1.6,11-3.4,14.5-5.2l-5.2,10.6l-9.3-5L137,446.2z
	 M161.7,457c-0.1,1,0.4,1.9,1.3,2.3c0.3,0.1,0.6,0.2,0.9,0.2c0.6,0,1.2-0.3,1.7-0.8c0.8-0.9,17.8-20.8,12.6-45.3c1-0.5,2-1,3-1.4
	c3.1-1.5,6.3-3,9.5-4.4c4.7-2.1,9.5-4.2,14.2-6.3c5.9-2.7,12-4.9,17.9-7.4c5.2-2.1,10.7-4.2,15.9-5.2c-1,12-3.7,24.1-7.9,35.5
	c-4.4,12.1-10.8,23.6-19.9,32.7c-2.2,2.2-4.5,4.5-7.1,6.3l-3.8,2.9l-4.1,2.4c-0.3,0.2-0.5,0.3-0.8,0.4
	c-0.2-13.1-10.6-21.9-11.1-22.3c-0.8-0.6-1.9-0.7-2.7-0.1c-0.8,0.6-1.2,1.6-0.8,2.5c6.2,17.1-2.3,26.3-3,26.9
	c-6,1.5-12.2,1.7-17.8-0.2c-0.7-0.3-1.5-0.6-2.2-0.9c-4.2-6.3-4.4-25.6-3.7-34c1.1-1.8,2.1-3.7,3.3-5.4
	C159.9,441.3,162.8,449.7,161.7,457z M157.8,427.3c0.4-0.4,0.8-0.9,1-1.3c0.6-1,2.6-3.1,9.9-7c1.1-0.6,2.3-1.2,3.7-1.9l1.7-0.8
	c2.4,14.4-3.7,27.1-8,34.1c-0.6-5.5-2.5-11.5-5.7-18.1l-0.3-0.6c-0.1,0-0.3-0.5-0.3-0.5c0,0,0-0.1-0.1-0.2
	C159.1,429.6,158.4,428.4,157.8,427.3z M186.8,456.8c2.3,3.7,4.2,8.6,3.7,14.4c-2.2,1.1-4.6,2-6.9,2.8
	C185.5,470.8,187.8,465.2,186.8,456.8z M149,445.5c-0.1,1.5-0.1,3.3-0.1,5.2c0,3.1,0,6.6,0.3,10c0,0.8,0.1,1.5,0.2,2.2
	c0.1,0.8,0.2,1.6,0.3,2.4c0.1,0.7,0.2,1.4,0.3,2c0.1,0.7,0.3,1.4,0.4,2c0.1,0.3,0.2,0.7,0.3,1.1l-5.5-5.5
	C145.2,461,146.2,451.2,149,445.5z M153.2,425.6c-0.2,0.1-0.3,0.2-0.5,0.3c-1.3,0.8-2.7,1.4-4.2,2.1l-4.5,1.7L135,433
	c-6.1,2-12.3,3.8-18.6,5.4c-0.5,0.1-1.1,0.3-1.6,0.4c-2.2,0.6-4.4,1.2-6.5,1.7c-0.2-0.2-0.3-0.4-0.5-0.5c-0.4-0.3-0.8-0.4-1.2-0.4
	c-1.1-0.3-1.5-0.3-2-0.3c-2.1-0.1-5.9-1.4-18.4,1.3l-4.5,1.1c-0.1,0-0.2,0.1-0.3,0.1c-2.2-1.2-4.3-2.6-6.3-4.1
	c-4.8-3.7-9.1-8.1-12.9-12.8c-7.7-9.5-13.7-20.4-17.9-31.9c-2.2-5.7-3.9-11.7-4.9-17.6c-0.9-5.8-1.1-12.2,2.5-16.1
	c1.7-1.9,4.3-3,7.2-3.9c1.4-0.4,2.9-0.8,4.5-1.2c1.6-0.4,3.3-1.1,4.7-1.9c6-3.1,10.7-7.6,14.8-12.8l0.4-0.5l0-0.8L73,318.5l-0.1-8.4
	c0.3,0.2,0.7,0.5,1.1,0.7c29.2,18.8,64.4-13.5,64.4-13.5s-20.8-39.8-55.2-52c0.5-1.4,1-2.8,1.5-4.2c1.9-5.6,4.2-11.1,6.8-16.4
	c0.3-0.6,0.6-1.1,1-1.7c5.7-9.6,11.9-18.9,18.8-27.6c5.9-7.4,12.2-14.3,19.1-20.7c4.2-3.5,8.7-6.8,13.3-9.8
	c11-7.2,22.9-12.9,35.2-17.4c12.3-4.4,25.2-7.6,38.2-9.5c10.8-1.6,15.5-2.6,26.2-2l-2,14l8.7-14c3.2-4.5,6.6-9,10-13.3l11-12.5
	c3.7-4.1,7.1-8.5,11.1-12.3l0.1-0.1c2.3-2.4,5.2-5.1,7.8-7.5c2.7-2.5,5.3-5,8.2-7.4c5.6-4.7,11.2-9.4,17.2-13.7
	c5.9-4.3,12-8.3,18.3-12c6.2-3.7,12.8-7.2,19.2-10.3l0.1,0c6.6-3.2,13.8-5.6,20.7-8.3c7-2.4,14.2-4.5,21.5-6
	c7.3-1.6,14.7-2.7,22.1-3.4c7-0.8,14-0.8,21-0.9c2.4,15.3,2.6,31.2,1.6,46.8c-0.2,4-0.6,8-1.1,12l-1.8,12l-1.8,12
	c-0.8,3.9-1.7,7.9-2.6,11.8c-3.7,15.7-8.9,31.1-15.2,46c-6.3,14.9-13.9,29.3-22.3,43.1l0,0l-1,1.6v0l-10.4,15.6L396,218
	c2.3,3.8,2.2,3.9,4.1,8c2.4,6.1,4.5,12.3,5.9,18.8c3,12.8,4.4,26,5.1,39.2c0.4,6.6,0.6,13.2,1,19.8c0,6.7,3,13.1,6.5,18.6
	c5.6,8.5,12.3,16.4,19.5,23.8c0.6,0.6,1.1,1.2,1.6,1.7c0.2,0.2,0.3,0.3,0.5,0.5c0.2,0.2,0.3,0.3,0.5,0.5c1,0.9,1.8,1.8,2.8,2.8
	l0.8,0.8c-1,0-1.9-0.1-2.9-0.1c-0.7,0-1.5,0-2.2,0.1c-0.8,0-1.5,0.1-2.2,0.2c-0.4,0-0.9,0.1-1.3,0.1c-0.9,0.1-1.9,0.3-2.8,0.4
	c-3.8,0.7-7.6,1.8-11.2,3.3c-7.2,3-13.8,7.2-19.8,12c-6,4.8-11.6,10.3-16.6,16.2c-5,6-9.9,11.9-15.7,17
	c-11.2,10.7-23.5,20-36.3,28.7c-12.7,8.8-26,16.7-39.4,24.3c-26.9,15.2-54.6,29-83,40.9c-7.1,2.9-14.3,6.1-21.5,7.9
	c-7.3,1.6-15,0.4-21.6-3c-11.7-5.9-19.4-16.9-20.6-29.8c0,0,6.7,6.3,11.5,7.5c6.7,1.8,13.8,1.8,20.2,0.1c6.5-1.7,12.8-4.1,18.5-7.5
	l4.4-2.5l4-3c2.8-1.9,5.2-4.3,7.5-6.6c9.5-9.5,16.1-21.4,20.7-33.8c4.6-12.5,7.5-25.4,8.4-38.7l0.2-2.1l-2.1,0.3
	c-3.5,0.4-6.7,1.4-9.8,2.4c-3.1,1-6.1,2.2-9.2,3.4c-6.1,2.4-12.2,4.7-18.1,7.3c-9.2,4-18.3,8-27.4,12.4c-2.7,1.3-5.4,2.6-8,4
	c-1.1,0.6-2.1,1.2-3.2,1.9c-0.4,0.2-0.8,0.4-1.1,0.7c-6.1,3.5-7.9,5.6-8.7,6.9 M86.9,258.6c2.3-0.3,4.5,1.8,4.8,4.7
	c0.4,2.9-1.1,5.5-3.4,5.8c-2.3,0.3-4.5-1.8-4.8-4.7S84.6,259,86.9,258.6z"/>
<g>
	<path class="st0" d="M97.7,401.3c-1.4,0.9-2.8,0.8-4.1,0.7c-1.3-0.1-2.4-0.5-3.6-1c-0.1,0-0.2-0.1-0.3-0.2l-0.1-0.2
		c-2.7-2.6-4.5-6.1-5.4-9.7c-1-3.6-0.9-7.3-0.6-10.8c0.4-3.5,1.3-7,2.5-10.2c1.2-3.3,2.7-6.4,4.7-9.3c-1.4,6.8-2.7,13.3-3,19.8
		c-0.1,3.2-0.1,6.5,0.6,9.5c0.7,3,1.8,5.7,3.6,8.2c1.5,0.9,3.5,1.7,4.7,1.3c0.7-0.1,1.2-0.9,1.4-1.9c0.2-1,0.3-2.1,0.3-3.3
		c0.4,1.1,0.8,2.1,0.9,3.4C99.4,398.8,99.1,400.3,97.7,401.3z"/>
</g>
<g>
	<path class="st0" d="M118.5,396c0,2.8-0.9,5.7-2.4,8c-1.4,2.4-3.6,4.2-6,5.3c1.1-2.5,2.3-4.6,2.9-6.8c0.7-2.2,1.1-4.4,1.1-6.6
		c0.1-4.5-1-9-2.3-14.1c2.2,1.6,3.8,3.8,5,6.2C117.9,390.5,118.5,393.2,118.5,396z"/>
</g>
<g>
	<path class="st0" d="M61.9,404.5l-0.1,0.2c0,0.1-0.1,0.2-0.2,0.3c-0.7,0.9-1.5,1.5-2.7,2.1c-0.6,0.2-1.3,0.5-2.1,0.2
		c-0.8-0.1-1.3-0.7-1.7-1.2c-1.2-2-1-3.9-1-5.8c0.7,1.7,1.4,3.6,2.4,4.5c0.6,0.3,0.6,0.2,1.1-0.1c0.4-0.3,0.8-0.8,1.1-1.3
		c0.7-6-0.8-12.2-2.6-18.2c-1.9-6.2-4.3-12.2-6.5-18.6c2.4,2.5,4.3,5.2,6.1,8.1c1.7,2.9,3.2,5.9,4.4,9.1c1.2,3.2,2.2,6.5,2.5,10
		C63.1,397.4,63,401,61.9,404.5z"/>
</g>
<path class="st0" d="M101.4,443.2c-0.9-0.1-2.2,0-4,0.1h-0.1c-0.2,0-0.4,0-0.5,0h-0.2l-6.1,1.4c-0.4,0-0.9-0.1-1.3-0.2
	c-0.6,0.1-1.3,0.3-2,0.4c4.3-0.9,7.5-1.4,9.8-1.6c0.1,0,0.2,0,0.4,0c0,0,0,0,0,0l0,0h0C99.2,443.1,100.5,443.1,101.4,443.2z"/>
<path class="st0" d="M102.4,443.3c-0.2,0-0.4-0.1-0.7-0.1C101.9,443.2,102.2,443.3,102.4,443.3z"/>
<path class="st0" d="M102.9,443.4c-0.1,0-0.3-0.1-0.5-0.1C102.6,443.3,102.7,443.4,102.9,443.4z"/>
<path class="st0" d="M282,158c2.7-6.7,6.2-13,9.9-19.2c3.7-6.2,7.8-12.1,12.2-17.8c8.8-11.4,18.8-22,29.9-31.4
	c2.8-2.4,5.6-4.6,8.5-6.8c3-2.1,5.9-4.3,8.9-6.2c3-2,6.2-3.9,9.3-5.7c3.2-1.7,6.4-3.5,9.7-5c13.1-6.3,27.2-10.5,41.5-11.9
	c-13.4,5.1-26.2,11-38.2,18.2c-1.5,0.9-3,1.8-4.5,2.7l-4.4,2.8c-2.9,2-5.8,3.9-8.6,6c-5.7,4-11.2,8.3-16.5,12.9
	c-10.7,9-20.7,18.8-30.3,29C299.9,135.9,290.8,146.7,282,158z"/>
<path class="st0" d="M56.5,91.5c5.7,4.8,10.5,10.6,14.7,16.8c1,1.6,2.1,3.1,3,4.7l2.7,4.9l2.5,5c0.4,0.8,0.8,1.7,1.1,2.6l1.1,2.6
	l1,2.6l0.9,2.7c0.5,1.8,1.2,3.6,1.7,5.4c0.9,3.6,1.8,7.3,2.3,11l0.4,2.8c0.1,0.9,0.3,1.8,0.3,2.8l0.3,5.6c0.1,1.9,0,3.7-0.1,5.6
	c-0.1,1.9-0.2,3.7-0.4,5.5c-1.4-7.3-2.5-14.5-4.4-21.5c-0.8-3.5-2-7-3-10.4c-0.5-1.7-1.2-3.4-1.8-5.1l-0.9-2.6l-1-2.5
	c-0.7-1.7-1.3-3.4-2-5l-2.2-5l-2.4-4.9c-0.8-1.6-1.7-3.2-2.5-4.8C64.4,103.9,60.7,97.6,56.5,91.5z"/>
</svg>
