<?xml version="1.0" encoding="utf-8"?>
<!-- Generator: Adobe Illustrator 22.0.1, SVG Export Plug-In . SVG Version: 6.00 Build 0)  -->
<svg version="1.1" id="Layer_1" xmlns="http://www.w3.org/2000/svg" xmlns:xlink="http://www.w3.org/1999/xlink" x="0px" y="0px"
	 viewBox="0 0 645.8 347.5" style="enable-background:new 0 0 645.8 347.5;" xml:space="preserve">
<style type="text/css">
	.st0{fill:#FFFFFF;}
</style>
<g>
	<g>
		<path class="st0" d="M232.7,134.5c3.7,3.7,3.7,9.7,0,13.4c-1.9,1.9-4.3,2.8-6.7,2.8c-2.4,0-4.9-0.9-6.7-2.8l-58.4-58.4L102.4,148
			c-1.8,1.9-4.3,2.8-6.7,2.8c-2.4,0-4.9-0.9-6.7-2.8c-3.7-3.7-3.7-9.7,0-13.4l58.4-58.4L88.7,17.5C85,13.7,85,7.7,88.7,4
			c3.7-3.7,9.7-3.7,13.4,0l58.7,58.7L219.5,4c3.7-3.7,9.7-3.7,13.4,0c3.7,3.7,3.7,9.7,0,13.4l-58.7,58.7L232.7,134.5z"/>
	</g>
	<g>
		<path class="st0" d="M560.7,134.5c3.7,3.7,3.7,9.7,0,13.4c-1.9,1.9-4.3,2.8-6.7,2.8c-2.4,0-4.9-0.9-6.7-2.8l-58.4-58.4L430.4,148
			c-1.8,1.9-4.3,2.8-6.7,2.8c-2.4,0-4.9-0.9-6.7-2.8c-3.7-3.7-3.7-9.7,0-13.4l58.4-58.4l-58.7-58.7c-3.7-3.7-3.7-9.7,0-13.4
			c3.7-3.7,9.7-3.7,13.4,0l58.7,58.7L547.5,4c3.7-3.7,9.7-3.7,13.4,0c3.7,3.7,3.7,9.7,0,13.4l-58.7,58.7L560.7,134.5z"/>
	</g>
	<g>
		<path class="st0" d="M207.4,349.7c-0.6,0-1.3-0.1-2-0.2c-5.1-1.1-8.4-6.1-7.3-11.2c6.1-28.9,22-55.1,44.9-74
			c23.2-19.1,52.6-29.6,82.8-29.6c30.1,0,59.5,10.5,82.8,29.6c22.9,18.8,38.9,45.1,44.9,74c1.1,5.1-2.2,10.2-7.3,11.2
			c-5.1,1.1-10.2-2.2-11.2-7.3c-5.2-24.6-18.8-47.1-38.4-63.2c-19.9-16.3-45-25.3-70.7-25.3c-25.7,0-50.9,9-70.7,25.3
			c-19.6,16.1-33.2,38.5-38.4,63.2C215.8,346.7,211.8,349.7,207.4,349.7z"/>
	</g>
</g>
</svg>
