<?xml version="1.0" encoding="utf-8"?>
<!-- Generator: Adobe Illustrator 22.0.1, SVG Export Plug-In . SVG Version: 6.00 Build 0)  -->
<svg version="1.1" id="Layer_1" xmlns="http://www.w3.org/2000/svg" xmlns:xlink="http://www.w3.org/1999/xlink" x="0px" y="0px"
	 viewBox="0 0 32.1 22.3" style="enable-background:new 0 0 32.1 22.3;" xml:space="preserve">
<style type="text/css">
	.st0{fill:#EAA1B2;}
</style>
<path class="st0" d="M19.8,0L15,22.2h-4.3l2.4-11c-0.7-0.2-1.3-0.3-1.9-0.3c-0.6,0-1.1,0.1-1.6,0.1L7.1,22.2H2.8L7.1,2
	C4.5,3.1,2.9,5.4,2.9,8.6c0,1.5,0.4,1.8,0.4,2c-2.1,0-3.2-0.8-3.2-2.9C0.1,3.7,5.6,0,10.7,0c0.4,0,0.8,0,1.2,0L9.9,9
	c1-0.2,2.1-0.4,3-0.4c0.2,0,0.4,0,0.7,0L15.5,0C15.5,0,19.8,0,19.8,0z M29.6,3.4c0-1-0.6-2-2.2-2c-1.6,0-2.8,1-2.8,2.6
	c0,4.6,6.7,4.9,6.7,11.4c0,4.2-3.1,6.8-7.9,6.8c-2.4,0-6.6-0.5-6.6-4.7c0-2.8,2.1-4.2,4.4-4.2c1.3,0,2.2,0.4,2.4,1.5
	C21.3,15,20.2,16,20.2,18c0,2,1.6,2.8,3,2.8c2.3,0,3.3-2,3.3-4.2c0-5.5-6.4-6.7-6.4-11.1C20,2.4,23.5,0,27.1,0c1.6,0,5,0.2,5,3.5
	c0,1.7-0.9,3-2.5,3c-0.5,0-1-0.2-1.3-0.6C29.1,5.4,29.6,4.3,29.6,3.4z"/>
</svg>
