<svg xmlns="http://www.w3.org/2000/svg" id="Layer_1" viewBox="0 0 200 23.4" width="200" height="23.4"><style>.st0{fill:#fff}</style><path d="M33.7 16.8c.2 0 .5-.1.7-.1.1 0-.2 0-.3-.1h.8c.3 0 .5 0 1-.1-.2.1-.3.1-.4.1h1.1-.3c.1 0 .3.1.4.1.5 0 1.2-.1 1.3-.1.4-.1 1.1-.1 1.6-.2-.1 0-.2 0-.4-.1.5 0 .9-.1 1.3-.1.1 0 .1-.1.2-.1h.2c.5.1 1 .2 1.9.1.1 0 .4 0 .6.1-.4 0-.7.1-1.1.1.5.1.9.1 1.7.1h4c.2 0 .3 0 .4-.1h-2.5c-.4 0-.8.1-1.1.1-.3-.1-.6-.1-.9-.1.8 0 1.6-.1 2.4-.1-.3-.1-.2-.2 1.3-.3.2.1.3.1.6.2-.5 0-.8 0-1.2-.1 0 0-.1.1 0 .1s.3 0 .5.1c.6-.2 1.6-.1 2.6 0v-.2h1.7s-.1.1-.2.1c-.8 0-1 .1-1.4.1-.2 0-.5.1-1.1.1-.1 0-.1.1-.2.1 1 0 1.4-.2 2.4-.1-.2.1-.1.1.5.1h.5c.6.1 1.2 0 1.9 0 .5 0 .5 0 .3.1h-1.3c-.4.1-.8 0-1.1 0h-.6c-.1.1-.4.1-.9 0H50c.2 0 .3 0 .4.1-.6 0-1.1 0-1.6.1h-.5s0-.1-.1-.1h-1.1c.2.1.5.2.4.2-.2.1-.2.2-.4.2-.1 0-.2 0 0 .1.6.1.6.2.1.3-.1 0-.3.1-.3.1s.4.1.2.1c-.3.1-.3.1-.3.2s-.1.2.1.2c.5.2.4.3.1.5-.2.1.2.1.4.1.2-.1.5-.1.4-.2-.2-.3.6-.6.4-1 0-.1 0-.1.1-.2h2c.1 0 .1.1.2.1.5 0 .8-.1 1.2-.1.9 0 .9 0 .5-.1.4 0 .7-.1 1.1-.1-.7-.1-1.1 0-1.7 0-.2 0-.5-.1-.7-.1-.4.2-1.5.2-2.8.3.2-.1.3-.1.4-.1.3-.1.4-.2 1.7-.2h.2c.6-.2 2.2-.2 3.4-.3 1 0 1.8 0 2.6.1.4-.1.5-.1 1.3-.1-.3-.1-1.2-.1-1.7-.1.3-.1 1.4 0 1.4-.1h-1.5c.2 0 .3 0 .4-.1h-.6c.5-.1 1.1-.1 1.6-.2.1.1.1.1.2.1h.9c.2.1-.2.2.8.1-.1 0-.2-.1-.3-.1 0 0-.1-.1 0-.1.4 0-.2-.1-.1-.1h.6c.6 0 1.1-.1 1.9 0-.6 0-1 .1-1.4.1.5.1.5.1 1.3.2h-2.1c-.4.1-.7.1-1.2.2.8 0 1.4-.1 2-.1h1.2c.1 0 .2.1.3.1 1 0 1.2-.2 2.3-.1-.6.1-1.5.2-2.5.2.3.1.8.1 1.3.1h.7c1-.1 2.4 0 3.3-.1h.3c.3 0 .6.1 1 0h1.1c.1-.1 0-.1-.5-.1-1.1 0-1.1 0-1.7-.1-.8 0-1.8 0-2.5-.1h-1.4c-.4 0-.7-.1-1 0h-.2c.8 0 1.1-.1 1.1-.2.5.1.9.1 1 .1h1.5c-.3.1-.3.1.2.1 1 0 .6-.1.7-.2 1.2-.1 1.8 0 2.1.1.3.1 1 .1 1.6.1.2 0 .4-.1.5-.1.1-.1.6 0 .8 0 .2 0 .4 0 .6.1h.2s.1 0 .1-.1c.6 0 1.4 0 1.9-.1.5.1 1.4 0 1.9.1.3.2-1.2.1-1.3.2h.6c-.1 0-.3.1-.4.1.3.1 1.2 0 1.1.1h.4c.2 0 .4-.1.5-.1-.4 0-.2-.1 0-.1h.8c.4 0 .8.1 1.3.1.3-.1.9-.1 1.5-.1.5 0 1.1 0 1.3-.1-.3-.1-1.1 0-1.5-.1-1.1.1-2.2 0-3.3 0 .4 0-.1-.1.1-.1.4-.1-.3-.1-.1-.1.2 0 .4-.1.5-.1.2 0 .4.1.7.1h.8c.3 0 0-.1.6-.1h1c-.1.1-.3.1-.4.1h1.3c.3 0 .7.1 1.3 0h1.6c.5 0 .3.1.3.2h.2c.1-.1.7-.1.4-.1-.1 0-.2-.1-.3-.1 1.5 0 2.8 0 4.3-.1v.3c1-.2.7-.3.4-.5.6 0 1.1-.1 1.6-.1h-2.5c.1.1-.2.1-.8.1h-3.3c-.3 0-.1-.1.1-.2.1 0-.2-.1-.4-.2-.9-.1-1.4 0-2.2.1-.1 0-.2-.1-.3-.1h-2.3c.5 0 .9-.1 1.4-.1l.1-.1c1.3 0 2.1-.1 3.1-.2h-1.2c-.3 0-.8.1-1.2 0h-1.1c.2-.2 1.2-.1 1.8-.2.9.1 1.8 0 2.7 0 .2 0-.2 0-.2.1 0 0-.2.1.4 0h.8c.4 0 .3.1-.2.1-.8.1-.8.1-2.4 0 .1 0 .2 0 .5-.1h-.8c-.1 0 0 .1-.1.1 0 0-.2 0-.5.1 1 0 1.8 0 2.5-.1.5 0 .9.1 1.5.1.4-.1 1-.1 1.8-.1h.4s-.1.1-.2.1c-1.1 0-1.3.1-2 .2.7 0 1.4.1 2.1 0h.1c.5-.1 1.6 0 2.2-.1h.4c.4.1.9 0 1 0 .2-.1.9-.1 1.6-.2h-1.1c.3 0 1.2 0 .6-.1-.6 0-1.2 0-1.4.2-.1 0-.2-.1-.3-.1-.8.1-1.7.1-2.8 0 1.4 0 .6-.2.9-.2h2l.1.1c.7 0 1.4 0 2.1-.1-.2 0-.3 0-.5-.1h.8c.3 0 .6.1.9.1.3-.1.8 0 1.3 0h1.6c-.4 0-.7.1-1.1.1l1 .2c-.3.1-.9.1-1.5.1-.8 0-1.6 0-2.2.1h-.1c.3 0 .6.1.8.1h1.1c.6 0 .4.1.5.1h.3c.1 0 0-.1.4-.1.2 0 .4.1.5.1.6-.1 1.3-.1 2 0 .5-.1 1.5-.2 2.6-.2.3-.1.5 0 .8 0s.5-.1.8-.1h.1c1.1 0 2-.1 3 0h.3-1.1c0 .1-.2.2 1 .3.8 0 .7.1 1.3 0h-.6c.6-.1 1.1-.2 2-.1.1 0 .2-.1.2-.1h2c.2 0 .4.1.7.1.2-.1.4-.1.5-.1h6.5c1.1 0 2.2-.1 3.4 0h1.4c.9-.1 1.8 0 2.7 0h.7c.6 0 1-.1 1.6-.1h3.2c-.3-.1-.6-.1-.9-.1-.7.1-1.2 0-2.1 0-.1 0-.2.1-.3.1-1.1 0-1.4-.2-2.4-.1h-2.4c.1 0 .2 0 .4-.1-.4 0-.9-.1-1.4-.1.8 0 1.7-.1 2.6 0h.7c.6-.1 1.6 0 2.1-.1.7-.1 1.5 0 2.2 0h.8-1c-.1 0-.1-.1-.2-.1-.8 0-1.7.1-2.5 0h-.8c-.1 0-.2.1-.3.1h-.7c-1.1.1-2.2 0-3.4 0 .2 0 .4-.1.7-.1h1.8c.4 0 .2-.1.3-.1h-2.7c-.4-.1 0-.1.1-.2h-2.1 1.4c-.7-.1-1.1-.1-1.6-.1-.6.2-1.8.1-2.9.1h2c-.1.2-.7 0-.9.1h-.9 2c-1.2 0-1.9.1-2.7.1h-.5v-.1h-.9c.1.1.2.1.3.2-.3 0-.5-.1-.7-.1-.3.1-.7.1-.9.2h-3.2c-.1 0-.2-.1-.3-.1-.1 0-.3.1-.4.1-.3-.1-.5-.2-.7-.3-.6 0-.9.1-.9.1s-.4.1-.6.1c-.4-.1-.8 0-1.2 0-.3 0-.6.1-.7 0-.5-.1-1 0-1.5 0h-1.9c-.7 0-1.3 0-1.9-.1.1 0 .2-.1.4-.1-.4 0-.9-.1-1.1.1h-1.2c.3 0 .4-.1.4-.1.2-.1.2-.1 1-.1h2.3v-.1c-1.6 0-3.1 0-4.4.1-.2 0-.1-.1-.6-.1-.4 0-.6-.1-1 0 0 0-.5 0-.8-.1-.1 0-.2.1-.3.1-.2 0-.4-.1-.6-.1-.6.1-1.5.1-1.6.3 1-.2 1.8-.1 2.8 0 0 0 .1.1 0 .1s.6.1.2.1c-.5.1 0 .1.2.2h1.4v.1c-.5.1-1.1 0-1.4-.1-.6 0-1.1-.1-1.7 0-.1 0-.4 0-.6-.1.6 0 1.1-.1 1.8-.1h-2.7c-.2 0-.5.1-.8.1-.2 0-.3-.1-.4-.1s-.2.1-.4.1c-.1-.1-.5-.1-1.1-.1v.2c.6 0 1.1 0 1.6-.1-.2.1-.5.1-.9.1h-.8c-.4-.1-.7 0-1 0-.4-.1.5-.1.6-.1-.6 0-1 0-1.4.1-.5.1-1.1.1-1.8 0-.3 0-.5.1-.8 0h-2.3c.5-.1.7-.1 1-.1H87c.7.1 1.2 0 1.9 0 .1 0 .4-.1.7-.1h-3c.8-.2 2.1 0 2.9-.1-.5-.1-.9-.1-1.6 0-.3 0-.6 0-.4-.1 1.7 0 3.5-.1 5.4-.1-.3-.1-.5-.1-.7-.1h-.3c-.6.1-1.7.1-2.6.1h-.7c-.8.1-1.7-.1-2.3 0-.7.1-1.3 0-1.9.1-.1.1-.2.1.6.1.5-.1 1.3-.1 2.2-.1-.4.1-.6.1.1.2h-1.6c-.2.1.3.1.9.1h-3c.1 0 .2-.1.4-.1h-1.8c0 .1 0 .1-.1.2h-2.4s-.1 0-.1-.1h-2.1c.4-.1.9-.1 1.4-.1s.9 0 1.6-.1h-1.9c.1-.1.2-.1.3-.2-1.2 0-.9.2-1.8.2.1-.1.2-.1.4-.1-.5-.1-1-.2-2-.1H74s-.1 0-.1-.1c-.2 0-.4.1-.6.1-1.1 0-2.2.1-3.4.1h-3.4c.7-.1 1.8-.1 2.7-.1h.4c.5 0 0-.1 0-.1H72h-2.1c1-.1 1.6-.1 2.4-.1H75c.2.1.5.1.7.2h.3c.1 0 .2 0 .3-.1h.4c.4 0 1.3.1 1.7.1h.7c.5-.1.8-.1 1.5-.1h2.5c.8 0 1.4-.1 2.3 0h-.3.5c.4 0 .6-.1 1.1-.1 1.5 0 3 0 4.6-.1h-.1c-.9.1-1.9.1-4.2 0 1.3-.1 2.7 0 3.9-.1h-2.7c-1.4.1-2.5 0-3.7 0 1.1-.2 2.3 0 3.7 0-.5 0-.7 0-1-.1 1.1-.1 2.3 0 3.3-.1h.2c-.1.1 1 .1 1.1.2.2-.1.3-.1.5-.2h3c0 .1.1.1.1.2.3-.1.6-.2.7-.2 1.7-.1 3.3-.1 5-.1-.3 0-.4.1-.6.1h1.1c.5 0 1 0 1.6-.1h.2c1.2 0 2.3.1 3.5 0h.7c.2 0 .4-.1.7-.1.2 0 .4.1.6.1.3 0 .5-.1.8-.1 1.5 0 3.1-.1 4.5 0 .3.1.7.3 1 .4h.3v-.4h1.1c-.2 0-.3 0-.3.1.1.1.4.1.2.2-.4.1.2.1.4.2.1 0 0 .1 0 .1v.2h.3c.1 0 .3-.1.3-.1.3-.2-.3-.4-.6-.7 1 0 1.9 0 2.1.2h.2c.1 0 .1-.1.2-.1.6 0 1.3.1 1.8 0h.7c1.1 0 2.1 0 3.1-.1.9 0 1.7-.1 2.6-.1h1.8c.2-.1.3-.1.5-.1-.9 0-2 0-2.6-.1-.2 0-.4.1-.6.1-1.1 0-2.1.1-3.2 0-.7-.1-1.2-.1-1.5 0h-.5c.4-.1-.3-.1-.4-.2-.2-.1-.7-.1-1.1 0h.6c-.1 0-.2.1-.3.1h-1.4c-.1 0-.2 0-.4-.1.4 0 .7-.1 1.2-.1h-1.8c-.1.1-.1.1-.1.2-.8 0-1.1 0-1.6-.1h-.5c.1 0 .3 0 .4.1-.2 0-.3 0-.4.1-.9 0-.9-.1-1.7-.2v.2h-4.1c-.3 0-.6.1-1 0-.2 0-.2-.1-.3-.1 1.1 0 2.1 0 2.9-.1-1.2-.1-2.3.1-3.4 0-.1 0 .5.1.1.1-.6 0-.4.1-.6.2H106c-.5 0-.7 0-.8-.1h-.2c-.7.1-1.5 0-2.2 0s-1.4.1-2.2 0h-.5c-1 .1-2.1 0-3.2 0-.7 0-1.2 0-1.5-.1-1 0-1.9.1-2.9.1-.8 0-1.3 0-1.5-.2-.3.1-.5.1-.7.2-1 0-1.2-.1-1.8-.1-.2 0-.4.1-.7.1-.2-.1-.7-.2-1.6-.1-.8 0-1.4 0-2-.1 1 0 2.1-.1 2.8-.2h.8c.3 0 1.1 0 1-.1h.3l.1.1h2v-.2c-.2 0-.4 0-.9-.1h4.5v.2c1.4.1 1.4.1 1.7.1l.1-.1c1.3 0 2.3-.2 3.8-.2 0 0 0 .1.1.1 0 0 .1 0 .2.1.2-.1.2-.1.9-.2-1.1 0-2.1 0-2.9-.1.1 0 .2 0 .3-.1h-.4c-.6 0 .1.1-.7.1-.5 0-.8.1-1.4 0 .5 0 .9-.1 1.4-.1-1.3-.1-1.4-.1-2.1-.2h-.3c-.3.1.1.2-.3.3l-.6-.3c-.4 0-.7.1-1.3.1-.5 0-1 0-1.3-.1.2-.1.5-.1.7-.2V12H92c-.3 0-.7 0-.7.1 0 0-.2.1-.3.1-.6 0-1 .1-1.1.2h1c-.3 0-.5.1-.8.1-.1 0-.3-.1-.4-.1-2.2.1-2.2.1-3.3 0-.5 0-.9.1-1.3.1h-2.9c.3 0 .6-.1.8-.1.2 0 .4 0 .6.1.4-.2 1.4-.2 2.4-.3h-4.5c-.6 0-1.6 0-2.2-.1-.2 0-.8-.1-1 0s-.8 0-1.2 0c-.2 0-.3 0-.5-.1.4 0 .1-.1.8-.1h.2c-.7 0-.8-.1-1.1-.2.2 0 .4 0 .6-.1.2 0 .3 0 .4.1-.1 0-.2.1-.3.1 1.1.1 1-.1 1.7-.1.2 0 .3.1.5.1.4-.1 0-.1.8-.2.5 0 .8-.1 1.5-.1 0 0 .1.1-.1.1.8.4 1.2.4 1.7.4.1 0 .1-.1.3-.1h.5c.6 0 .6 0 1-.1h-.9 1.1c.3-.1.7 0 1.1 0 .3 0 .7 0 1.1.1.2 0 .3 0 .5.1h.4c.4-.1.4-.1.7-.1h1.7c.1 0 .1.1.2.2.3-.1.3-.2 1.1-.2.2 0 .8.1.7.1-.3.1-.3.1 0 .2.7 0 1.2-.1 1.5-.2.1 0 0-.1-.4 0-.3 0-.5 0-.2-.1-.9 0-1.7-.1-2.7-.1-.5 0-.9.1-1.6 0h-2.8c1.8-.2 3.9-.2 6-.2h.3c-.1 0-.2 0-.4.1h1c-.1 0-.2-.1-.3-.1h1.4-2.8c-.3-.1-.8-.1-1.3-.1h-.3c.1 0 .2.1.4.1h-1.9c-.5 0-.6-.1-.3-.2-.4-.1-.9-.1-1.4-.2h1.7c.8-.1 1.8-.1 2.7-.1h3-.3c0 .1 1.3 0 1 .2h-1.6c-.1 0-.1-.1-.3-.1-.2.1-.3.1-.5.1-.1 0-.4 0-.8.1H94c.9.1 1.5 0 2.1-.1.2.1.5.1.6.1.3 0 .6-.1.9-.1h.9c.7 0 1.5 0 2.4-.1v.2c.9-.1.9-.1.6-.2-.2-.1-.4-.1 0-.1.1 0 .1 0 0-.1-.7-.2-.2-.4-.3-.6 0-.1.2-.1 0-.2-.6-.1-.2-.2-.3-.2.7-.1 1.7 0 2.1-.2-1.5 0-.2-.2-1.1-.2v.2h-1.5v-.2c-.6 0-.9.1-.4.2-.3 0-.6.1-.9.1h-.8 1.7v.4c0 .1.6.2.3.3-.2.1-.1.1 0 .2.2.2 0 .2-1.8.2h-.3v-.1c.4 0 .7-.1 1.2 0h.2v-.1h-.2c-.1 0-.2.1-.3.1h-1.6c0-.1-.1-.1-.1-.2-.4.1 0 .2-1 .2-.2 0-.3 0-.4.1.2 0 .4 0 .7.1-.2 0-.4 0-.5.1-.7-.1-1-.2-.9-.3 0-.1-.1-.1-.7-.1.4.1 0 .2-.1.2h-1.6c-.1 0-.1-.1-.2-.1l-.8.1h-.7c-.3 0-.8-.1-.9 0-.6.1-1.3 0-2 0h-1.1c-.3-.1.4-.2.6-.3h-1.3v.3h-2.4v-.5c.4 0 .8 0 1.2-.1h.1c-.3-.1-.9 0-1.3 0-.1-.1.1-.2-.3-.2-.4-.1.2-.1 1.3-.1h-.2c-.4 0-.6 0-.4.1h.6c.4 0 .7-.1 1-.1.2 0 .3.1.5.1.4 0 .7-.1 1.1-.1.2 0 .5 0 .7-.1h-1.5c-1 0-1 0-1.5.1h-2.2c1-.1.3-.2.3-.2 1.4 0 2.8 0 4.2-.1-.8-.1-1.1-.1-1.2-.2 0 0-.3 0-.6-.1-.2.3-.2.3-2.2.3 0 0-.1-.1 0-.1.1-.1-.9-.1 0-.2-.2 0-.3-.1-.5-.1h-1c.2.3.3.5.5.7-.5 0-.9.1-1.5.1.2-.1.3-.1.4-.1 0 0-.1 0-.3-.1-.1 0-.3-.1-.7 0h-.8c-.2-.1-.3-.1-.5-.2 1-.1-.1-.2-.6-.3.2.1-1 .1-.9.2h-.7c.2-.1.4-.2.6-.2.8 0 .5-.1 1.2-.1.1 0 .1.1.2.1h.2l.1-.1c1 0 1.9-.1 2.9-.1.7 0 1.1 0 1.6-.1-.1 0-.2 0-.2-.1.9 0 1.8-.1 2.8 0h-1.6c1.5 0 .2.1.7.2.4 0-.2.2.6.2.3 0 .6 0 1-.1l-.9-.3h1.2c.3 0 .5 0 .8-.1h-1.6c1.6 0 2.8-.1 4 0 1.1 0 2.1 0 3.2-.1 0 .2-.1.3.6.5h.1c-.7.1-.2.2 0 .4.2.1-.2.1-.8.1.5 0 .8 0 1.2.1h.3c-.2-.1-.3-.2.3-.2.2 0 .4.1.8.2v-.3h-.2c-.1 0-.2.1-.2.1-.3-.1-.6 0-1 0 .1-.1.2-.1.3-.2-.4-.5-.1-.6-.3-.6-.5-.1-.3-.2-.3-.2v-.3s-.2-.1-.3-.1c.5-.1 1-.2 2-.1h1c.9.1 1.9 0 2.8 0h3.5c.2 0 .3.1.4.1h.5c.3-.1.9-.2 1.5-.1.9.1 1.1 0 1.4 0s.6.1.9.1c.4-.1 1 0 1.4 0 1.2-.1 2.4 0 3.5 0 .1 0 .2-.1.4-.1-.4-.1-1.6 0-1.9-.2-.1 0-.2.1-.3.1h-5.3c-1.8 0-3.4.1-5.1.1h-.3c-.7.1-1.4 0-2.2 0h-2c-.6.1-1.3-.1-2 0-.1 0-.2 0-.3-.1h1.8c-.5-.2-.6-.2-.8-.2h-.8c-.6-.1.2-.1.6-.2h-2.3.2c.7 0 .6.1.5.1s-.2.1-.8 0h-.6c-.7.1-1.5 0-2.2 0l-.6-.3c-.2 0-.3 0-.5.1l-.2-.2h-.2v.2c-.8 0-1.4 0-2.1.1-.3-.1.3-.2-.7-.3-.3.1-.7.2-1 .2-.6 0-1.3 0-1.8-.1.1.1.2.1.2.1s-.2-.1-.3-.1c1.4-.1 2.9-.1 4.6-.1-2.5-.1-4.3 0-5.6 0h.8c-.1.1-.2.3-.3.5.9 0 2 0 3.1.1 0 0 0 .1-.1.1-.6-.1-1.2 0-1.7 0h-3.6c-.1-.3 1.2-.2 1.8-.2-.5 0-.7-.1-1.2 0h-2.7v-.4h.8-.6c-.3 0-.7 0-.6-.1h.8c.3 0 .3-.1.1-.1-.7 0-.8-.1-1-.1-.2.1-.5.1-.8.2.1 0 .6.1.5.1-.2 0 0 .1 0 .1.1.1.2.2-.1.4-.6-.1-1.1-.2-.8-.3.4-.1-.1-.2-.1-.3.1-.1-.2-.1-.7-.1-.7.1-1.4.1-2.2 0-.6-.1-.5.1-.6.1-1.1 0-1.9.1-2.9.1.2 0 .3 0 .4.1h-.5c0-.1-.5-.1-.8-.1-.8.1-1.5 0-2.3 0-.1 0-.2-.1-.3-.1-.1 0-.3.1-.3.1h-1.3c-.3-.3-.5-.4-.6-.6-.7.1-.6.2-1 .3h-1.3s.1-.1 0-.1c0 0-.3 0-.6-.1-.1.2-.1.2 1.3.2.8 0 1 0 1 .1v.2c.4 0 1 0 1.1.1.6 0 .2.1.4.1.1 0 .3 0 .6.1l-.3-.3c.6 0 .7-.1 1.3 0h2.2c.7 0 1.7.1 2-.1h1.9c.2.1 0 .2.3.4.3.1-.3.2-1.3.1-.3 0-.6 0-.9-.1-.1 0-.3.1-.3.1h-2.5c-.8 0-.8.1-1.2.1-.4-.1-1.4-.1-2-.1h-7.3c-.8.1-1.6.1-2.3 0-.8 0-1.5.1-2.3 0-.9 0-1.8-.1-2.6 0h-1.5c.1 0 .2-.1.2-.1v-.2c0-.1-.1-.2-.3-.2-.1-.1.2-.1.3-.2 0 0 .1-.1 0-.1-.6-.1-.3-.2-.3-.3 0-.1-.1-.1-.1-.2-.4.2-.6.2-.6.3v.8c0 .1-.3.1-.3.2s.2.1.3.2c.3.1.3.1-.6.2-.3 0-.5.1-1 0-.3-.1-.8 0-1.2 0s-.7 0-1.1-.1c0-.1.1-.2-.1-.2-.5-.1.4-.1.1-.2-.2 0-.1-.1-.3-.2-.1-.1-.2-.2.1-.2.7-.3.6-.6.2-.8-.1 0-.6-.1-.2-.1.5-.1-.1-.1-.4-.1-.2.1-.4.2-.6.2-1.2 0-.4.2-.5.2-.1.1 0 .2 0 .3.4-.1.6-.1 1-.2 0 .1-.2.2 0 .2.4.1.3.1 0 .2-.2 0-.5.1-.5.1-.1 0 .2.1.1.1 0 0-.4.1-.3.1.1.1.4.1.6.2-.6.1 0 .2.1.2.2.1.4.1-.2.2.6 0 1.1.1 1.7.1h1.4c-.5 0-1 .1-1.4.1h-1.5c-.2 0-.4.1-.6.1h-2.7c-.2 0-.4 0-.6-.1-.2-.1-.7-.1-1 0-.1 0-.3 0-.5.1-.2-.1-.2-.2-.6-.2-.6 0-.6-.1-.8-.2-.3.1-.7.2-1 .3h1.4c-.6.1-1.1.1-1.5.1-.1 0 0 0-.1.1h.2c.4-.1.7 0 1 0 .4-.1.7 0 1.1 0h.7c-.2.1-.3.1-.5.1-1.1-.1-1.1-.1-1.6.1h1.5c.6 0 .7-.1.9-.1h1.9c-.5 0-.9-.1-1.6-.1H41c.1 0 .1.1.1.1h2.5c-.4.1.4.2-.1.3-.1 0 .2.1.3.1.2 0-.6.1-.1.1.4.1.1.1-.4.2 0-.1-1.1-.1-.2-.2-.6-.1-.1-.2-.5-.3-.2 0-.5.1-.5.1-.2.3.3.5-.3.8.8.1-.1.1.2.2.3.1.1.2.1.3s.1.1-.2.2c-.2.1.2.2.2.2-.1.2.4.4-.3.6 0 0 .1 0 .2.1s.5.1.4.2c-.1.1-.9 0-1.3.1h-.6c-.6.1-.8 0-1.1 0 .1 0 .3-.1.4-.1h1.4c-.8-.1-1.4-.1-1.9-.1v-.8c.4 0 .7-.1 1.1-.1-1.1-.1-1.2-.1-1.1-.2.1-.2.3-.3.4-.5.6 0 1.2-.1 1.8-.1.2 0 .2-.1.3-.1-.9 0-1.7 0-2.6.1v-.6c-.6.1-1.5.2-.7.4.1 0 0 0-.1.1-.4.1-.8.1-.2.2 0 0-.1 0-.2.1h-.4c-.2-.1-.4-.1-.4-.2s.4-.1.6-.1c-.2 0-.6-.1-.6-.1.5-.1-.1-.1 0-.2.5 0 1.1-.1 1.7-.1h-1.2c-.4 0-.7-.1-1.1-.1-.2 0-.4 0-.5.1-.2.1 0 .7.3.8.1 0-.7.1.1.1.1 0 .2 0 .4.1-.3 0-.6.1-.9.1-.1 0-.5-.1-.5-.1.6-.1-.4-.2 0-.2.1 0-.1 0-.1-.1-.3 0-.6.1-.9.1.2 0 .4.1.7.1-.6 0-.3.1 0 .2-.5 0-.9.1-1.6.1h1.6c0 .1.1.1 0 .2-.5.2-.2.4-.4.6-.1.1.2.1-.1.2-.4.1-.2.1.1.1-.4 0-.5.1-.3.1.6.1-.1.1-.5.1-.8 0-1.4 0-2.1.1.2 0 .3.1.5.1h2.5c-.3 0-.4.1-.4.1v.6h-1c.1 0 .2.1.3.1.7 0 .6.1 1 .2.1 0-.3.1-.3.1s.2.1.4.1h.3c-.3 0-.7.1-1.1.1h.8c-.3 0-.6 0-.7.1-.1 0 0 .1 0 .1-.4 0-.6.1-.9.1h-6.6c-.7.1-1.4 0-2.1 0 .3.1.5.1.8.2-.3 0-.6 0-.8.1.7.1 1 0 1.2-.1h2.5c-.8-.1-1.6 0-2.3-.1.6 0 1.1 0 1.5-.1.6.1 1.5-.1 2 0h4.1c.1.1.7.1 1.2.1-.6 0-1 .1-1.6 0-.6.1-1.4 0-1.9.1-.7 0-1.2.1-1.9 0-.1 0-.3.1-.5.1h3.4c.8.1 1.7 0 2.8 0-.3.1-.4.1-.5.1s-.4.1-.3.1c.2.1.4.1.6.2h.2c.3-.1.6-.1.8-.2-.2-.1-.5-.1-.7-.2.6-.1 1.6-.2 2.3-.3.4-.1 1-.1 1.8-.1h-2s0-.1.1-.1h.6c.5 0 .9.1 1.5 0H41c.3 0 .6 0 1-.1.2 0 .4.1.6.1.4 0 .2-.1.8-.1.4 0 1 .1 1.2 0h2.5c-.2.1-.4.1-.5.1-.3 0-.6-.1-.6 0-.7.1-1.5 0-2.3 0h-1.8c-.6 0-1.2-.1-1.9 0-.4.1-1.3.1-1.8.1-.5.1-.7 0-.8 0l.1.1c-.7 0-.6.1-.9.1.3 0 .9 0 .7.1-.1.1-.4.1-.6.1.2 0 .4 0 .6.1.4 0 .5.1 1 0 .4-.1.9 0 1.4 0h.3c.1-.1.9-.1 1.3-.1.6-.1 1.2 0 1.8 0h4.2c1 0 1 0 2.4-.1-1.1-.1-2.3 0-3.5 0 .2-.1.6-.1 1.3-.1h7.3c-.3 0-.6.1-.9.1h-.3c-.1.1.1.1.6.1h3.3c-.8-.2-2 0-2.8-.1.6 0 1.1-.1 1.6-.1.1.1.6.1 1.1.1 1.1-.1 2.1 0 3.1 0 .5-.1 1.1-.1 1.9-.1-.2 0-.3.1-.5.1h-2.8c-.3 0-.7.1-1.1.1h4.8c.1.1.1.1.2.1 1.1 0 2-.1 3 0-.1 0-.2 0-.3.1.5.1.9-.1 1.4 0s.8-.1 1.3 0c-.4.1-1.1.1-1.8.1-.6.1-1.1.2-1.7.3.1 0 .2 0 .4.1h-1.6c.2.1.3.1.5.1h-1c-.1 0-.3 0-.4.1-.3.1-.8 0-1 0 0 0 0-.1.1-.1 0 0-.2 0-.4-.1-.2 0-.5.1-.7.1h-1.2c-.6.1-1.2.1-1.8 0h-1.2c-.2 0-1.1-.1-1.1-.2h3.2c.7 0 1.5 0 1.8.1.2-.1.5-.1.8-.2.7 0 1.3 0 2 .1.7 0 .7 0 1.6-.1h-7c-.9 0-1.7 0-2.4.1h-.6c-.2-.1-.2-.1.4-.1.1 0 .2-.1.1-.1h-2v.1s.2 0 .4.1c-1.1 0-1.3.1-1.3.2 1.1-.1 1.3-.2 2-.1.2 0 .4 0 .6.1-.3 0-.6.1-.8.1-1.7 0-3.4 0-4.9.2h1.5-2.6c.1-.1.2-.1.3-.2h-4.9c-.4.1-.7 0-1.2 0h-1.7c-.6-.1-1.2 0-1.8 0h-3.5l.6.3c-.9 0-1.4-.2-2.1-.1-.5.1-.7.1-1 .2h-4.8c.5 0 1 .1 1.4.1 0 0 .1.1.2.1.5 0 .9-.1 1.3-.1h1-.6c.2 0 .3.1.5.1 1.3-.1 2.6-.1 3.8-.1h.7c.2 0 .4 0 .5.1-.6 0 .6.1-.2.2h-.4c-.1 0-.2-.1-.3-.2-.4 0-.7.1-.9.1-.4.1-.8.1-1.5 0h-1.5c-.2 0-.3.1-.4.1h-4c-.7 0-1.4 0-1.9.1h-1.5c-.2.1-.3.1-.4.2-.2.1-.3.1-.5.2.9.1 1.6.1 2.1 0s.5-.1.9-.1c1.3 0 2.6 0 3.9.1.3-.1.5-.1.9-.2v.3c-.5-.1-1 .1-1.5 0-.5.1-1.3 0-1.7.1-.6.1-1.3 0-1.8 0-.7.1-1.3 0-2 0-.9 0-1.6 0-2.2.1-.6 0-1.1-.1-1.5-.1.7-.1 1.4-.1 2.4-.2h-1.6c-.2 0-.4.1-.5.1-.1.1-.9 0-1.1.1.2 0 .4.1.7.2.3 0 .7 0 1.2.1-.5.1-1 .2-1.5.2h1.3-1v.2c-.5 0-.9.1-1.5.1.1 0 .1.1.3.1.4.1-.3.1-.1.1h1.2c1.1 0 2.2-.1 3.1.1h.7c.1 0 .3 0 .5-.1-.4 0-.3-.1 0-.1.6 0 .7-.1.9-.1-.3-.1-1.2 0-1.7-.1.2-.1.3-.1.5-.2.9 0 1.8-.1 2.7-.1h-.3.6c.1.1.1.1-.3.1s-.5.1-.2.2c.6 0 1.2-.1 2 0-.2 0-.5 0-.8.1 1.3 0 2.3 0 3.3-.1.1 0 .3 0 .5-.1h-1.1c0-.1-.2-.1.3-.2.3 0 .5.1.7.1.3 0 .5 0 .8.1-.1 0-.2.1-.4.1h.6c-.1 0-.2.1-.2.1.4-.5.8-.4 1.1-.4zm19-1.4c-1.4 0-1.6-.1-1.1-.1-.5 0-.9-.1-1.5-.1 1.5-.1 2.1.1 3.3.1-.7.1-1.4.1-2.2.2 1.7-.1 2.1-.1 2.4-.1-.1.1-.3.1-.5.2.6 0 .9-.1 1.3-.1h.3s.1 0 0 0c-.5 0-1.1.1-1.9.2.3-.1.4-.1.5-.1h-.7c.3.1-.9.1 0 .2-.8.1-1.6.1-2.5.1.8-.1 1.6-.2 2.5-.3.5-.1.5-.2.1-.2zm.9-6.5c.3-.1.4-.1.6-.1h-2.1c.7-.1 1.7-.1 2.6-.1.1 0 .1.1.2.1h.3c.1-.1.3-.1.5-.1 1.7 0 3.3-.1 4.9-.1.1 0 .2 0 .4.1h-2.2 1-.1c-1.5 0-2.9 0-4.5-.1-.4.3-.8.3-1.6.3zm34 2.4c-.5.1-.9-.1-1.5 0h-1.9c.3-.1.4-.1.5-.1.5 0 1 0 1.4-.1-1-.2-2.2-.1-3.4-.1-.2 0 0 .1-.6.1-.7 0-1.3-.1-2.4-.1 2-.1 3.6-.1 5.2 0h1.5v.2c.8 0 1.1.1 1.2.1zm-32.4 2.2h-4.1c.6-.1 1.1-.1 2-.1-.2 0-.6-.1-.6-.1s.4-.1.7-.1h-.7.6c.4 0 .8 0 1.2.1-.2.1-.3.1-.6.2h3.9-1.4c.8 0 1.5-.1 1.8-.2-.9 0-1.8 0-2.2.1h-.5s-.1-.1 0-.1c.3 0 .6-.1 1.1-.1-1.6 0-3 0-4.3.1H50c-.5 0-1 .1-1.6 0-.2 0-.4 0-.6-.1.4 0 .6-.1 1.2 0h.6c-1.5-.1-2.2 0-3.5 0 .2.1 1.2 0 1 .1H41c-.6.1-1.1 0-1.7 0 .3-.1.6-.2.9-.2.2.1.4.1.5.2.5-.1.8-.1 1.1-.2h-.5c-1 0-1.8 0-2.4.1h-.5c.1.1.2.1.3.2h-2.1c-.1.1-.1.1-.2.1-.3-.1-.6-.1-.9-.2.9-.2-.7-.3.1-.5.5 0 1.1.1 1.5 0h1.4c.1 0 .2.1.4.1.3 0 .6-.1.8-.1.1 0 .3 0 .4-.1.4.1.8 0 1.1 0 .2 0 .3-.1.4-.1.6 0 .7.2 1.8.2.6 0 1.4 0 2.1.1 0 0 .1 0 .3.1.7-.1 1.6-.1 2.4-.1h3.9c1.1 0 2.1-.1 3.2 0h.4c-.1.1-.2.1-.3.2H58c.3 0 .5.1.8.1h-2c.1.1 1.3.1 1 .2h.7c-.1 0-.2.1-.3.1h.5c.4 0 .7-.1.9-.1H61c-.2 0-.2.1-.7.1-.6 0-2 0-2.5.1.6 0 1.2.1 1.9.1.6 0 .8 0 .9.1-.7.1-1.7.1-2.7.1-.3 0-.6-.1-.9-.2-.7.1-1.5.1-2.1.1.3-.4.3-.3.3-.3zm9 2.5c.5 0 .8-.1.9-.1s.2-.1.5-.1.7 0 .5.1c1.4-.3 1.5-.4 1.5-.5h.8H67c-.6 0-.8 0-1-.1-.1.1-.2.1-.3.2-.3-.1-.6-.1-.8-.1-.6.1-1.5 0-2 .1h-.5.3-.9c.9 0 1.5-.1 1.9-.1H63h1.3c1 0 1 0 1.5-.1.1 0 .3 0 .4-.1h.6v.1h.2c.5 0 1 0 1.5-.1 0 0-.1-.1 0-.1.2 0 .5 0 .7-.1 1-.2 1.1-.2 2.9-.2-.1 0-.2.1-.4.1h-1.8c-.2 0-.3.1-.5.1.3 0 .7.1 1.2.1-.2 0-.3.1-.5.1h1.8c.4 0 .8-.1 1.4-.1-.1 0-.2.1-.4.1-.4 0-.9 0-1.3.1-.4 0-.5.1-.7.2-1.2 0-2.2.1-3.3.1.3 0 .2.1.8.1h1.3c-.5.1-1.3.1-2 .1-.3 0-.6-.1-1 0h-.2c.1-.1-.6-.1-.4-.1.1 0-.2-.1-.2-.1-.1-.1.4-.1.9-.1.2 0 .4 0 .7.1-2 .4-2.5.4-3.3.4zM43 12.2c.3 0 .6-.1.9-.1-.9-.2-.9-.2.3-.2.3 0 .5 0 .8-.1h-.4c-1.4 0-1.6-.1-1.3-.2h.1c-.5-.1-.2-.1.3-.2.2 0 .3 0 .5-.1h-.4c-.2 0-.6-.1-.6-.1-.1-.1 0-.2 0-.4.7 0 1.4-.1 2.2-.1-.7-.1-1.5-.2-1.4-.3-.1 0-.1.1-.3.1h-.5c-.2-.1.5-.1 0-.2 0 0 .2-.1.4-.1.8-.1 1.6-.1 2.6-.1h.4v-.2c-2.8.1-2.9.2-2.9.2-.8-.1-.6-.3-.6-.4h.7s0 .1-.2.1c-.3.1.3.1.4.1.4-.1 0-.1.4-.2.3 0-.5-.1-.3-.2s.5-.1.6-.2c.1 0-.1-.1-.4-.1-.8-.1.3-.2-.2-.3-.1 0 .3-.1.8-.1H47c-.2.1-.3.1-.4.1l.1.1c.4 0 .6 0 .5.1h-.5c-.3 0-.3.1.1.1.2 0 .4 0 .8.1h-2.1c1.6.1 1.6.1 2 .3.2 0 .5 0 .5-.1.1-.1.8-.1 1.2-.2-.6 0-1-.1-1.5-.1h3.6c0 .2-.7.4-.5.6-.3 0-.6.1-1 .1-.4-.1-.7 0-1.2 0 0-.1-.1-.1-.1-.2-.4 0-.8-.1-1.1.1-.2.1-.8.2-1.3.2H44c3-.1 3.1-.1 3.3-.1.6.1-.1.2 0 .2.1.1.1.2.1.3v.9c.9-.2.7-.4.7-.5.6 0 .7 0 .8.1.6 0 1.3-.1 1.3-.1h-1.1c-.6 0-.8-.1-.8-.1-.1-.1-.1-.3 0-.4 0 0 .5-.1.8-.1h2.2c-.6.1-1.1.1-1.7.2.3 0 .5 0 .8.1.2 0 .5 0 1.1-.1-.2.1.2.2-.3.3-.2 0 .6.1.1.1-.5.1.1.1.1.1v.8h-1.3c-.3.1-.6 0-1 0h-1.5c-.8.1-1.7.1-2.6.1v.1h1.9c.2.1.4.1.7.2.3-.1.5-.1.7-.2.1 0 .1.1.3.1h1c.6-.1 1.2-.1 2.1-.1-.5.1-1.1.1-1.8.1 0 .1.2.2-.4.3.3.1.5.1.6.2-.1.1-1.4.1-3.1 0 .9-.1 2.1 0 2.6-.2h-2.1c0 .1-1 .1-1 .2-.6 0-1 .1-1.1.1-2.1 0-2.1 0-2.8-.1-.3 0-.6.1-.9.1-.3-.1-.7.1-1.1 0 .1 0 .2 0 .4-.1h-1.1c.2-.1 1 0 1.1-.1-1.7-.1-1.7-.2-1.6-.3h2.5c.1.1.3.1-.1.2-.7.1-1.5.1-2.6.1 2.5-.2 3.2-.2 3.8-.2zm27.1-2.5c1 0 2 .1 3.2.1-.3 0-.5.1-.9.1h1.2c.3-.1.5-.1.8-.2-.2-.1-.6-.2-.6-.3 1.2 0 1.3 0 1.4.1s-.4.1-.1.2c.3.1.1.2.1.2v.2c0 .1.2.2-.3.3.6.1.2.2.3.3.1.1 0 .2 0 .3h-.7c.3 0 .6 0 .8.1.1 0 .3.1.2.1-.7.1-.1.1-.1.2-.1.1-.2.1-.7.1h-.5v-.3c-1-.1-1.3 0-1.9.1.3.1.5.1.7.2-.3.1-.9 0-1.2 0-.5.1-1 0-1.5 0 .1-.1.2-.1.3-.2-.5 0-1.1 0-1.1.1h-1.2c-.2-.1-.3-.1-.5-.1.7-.1.7 0 .7.1.4-.1.6-.1 1-.2h-1.4 1.2c-.4 0-.7-.1-1.1-.1 0 0 .1 0 .2-.1h-.5c-.1 0-.1.1-.2.1-.2.1-1.1-.1-1.3.1.4.1-.5.1-1.4.1 1 0 1.8-.1 2.8 0v.1c-1.7-.1-1.9-.2-2.5-.1-.5 0-1.3.1-2.1 0-.5 0-1-.1-1.7 0h-1c-.6-.1-.5 0-.8.1h1.2c-.2 0-.5 0-.7.1-.3 0-.6 0-1.3.1 1.8 0 3.1 0 4.6-.1-.1 0-.2.1-.3.1h-1.1c1.2.1 1.2.1 2.5 0h.5c.7.1.8 0 1-.1h.5c0 .1.1.1.1.2h-2.3c.2 0 .3.1.5.1h-1.4c-.7 0-1.6-.1-2.3 0H60c.2.1.6.1 1.1.1h4.4c.7-.1 1.6 0 2.4 0 .2 0 .3.1.6.1h-3.1c.4 0 .7.1 1.1.2h-5.6c.5-.1.6-.1.8-.1.5 0 1.2 0 1.3-.1h2-5.6v.1c.5 0 1 .1 1.7.1h-2.2c.2-.1.3-.1.5-.1-.2 0-.4-.1-.6-.1-.2.1-.4.2-.6.2-1 0-2 0-3 .1-1 0-2.1 0-3.1.1.1-.1-.2-.1.4-.2.7-.1-.4-.1-.2-.2.5 0 .9-.1 1.4-.1h.9c.2 0 .5.1.7.1h.2c-.1 0-.2-.1-.4-.1-.9 0-1.8-.1-2.6 0-.1-.1.2-.2.4-.2.6.1.9 0 1.4 0h2.8c.1 0 .2 0 .4-.1-1.8 0-3.4 0-5.1.1 0-.1 0-.1-.1-.2 0-.1.2-.1 0-.2s0-.1 0-.1c.1-.1-.1-.1.2-.2.4-.1-.5-.1 0-.2h3.2c.3 0 1.1 0 1.2.1 0 0 0-.1.1-.1h-2.9c-.6-.1-1 0-1.6 0 0-.1-.1-.2 0-.2.1-.1-.3-.1-.1-.2.2-.1.4-.2-.2-.3-.2 0-.1-.1 0-.1.2 0 .6-.1.1-.1-.2 0 .4-.1 0-.1-.2 0-.2-.1-.1-.2s.1-.1 0-.2c-.4-.4.4-.5 1.5-.4.6 0 1.3.1 1.6 0 1.2-.1 2.5 0 3.8 0-.7 0-.9.1-.7.2.4.1.3.2.3.3s-.2.1-.2.2.2.1.2.2v.2s.2.1.3.2c.3 0 .4 0 .5-.1h.6c-.4 0-.6 0-.9-.1h.7c-.2-.1-.4-.1-.6-.2-.3-.1.3-.1.8-.1h-.7c-.4-.1.3-.2-.5-.3.5 0 .9-.1 1.4-.1-.3 0-.5 0-1.1-.1h4.2c-.1.1-.2.1-.3.2 0 0-.2.1-.1.1.6.1.4.1 0 .2.6.1.2.2.3.2.1.1 0 .2-.2.2-.1 0-.2-.1-.3-.1-.8 0-1.8-.1-2.7 0 .2.1 1 0 1.1.1 0 .1.6.1 0 .2 0 0 .1 0 .2.1h.5c0-.1.4-.2 1.2-.1h.2v.3c-.9 0-1.8.1-2.8.1-.9 0-1 0-.7-.2 0 0-.1 0-.2-.1h-.4c0 .1-.3.1-1 .1-.3 0-.5 0-.9.1h.8c0 .1-.1.2.4.3-.6 0 .2.1-.3.1-.1 0 .1.1.1.1h.5c0-.1.6 0 1-.1.3-.1.1-.1-.5-.2-.1 0-.1.1-.1.1-.4-.1-.2-.2-.3-.4h3.3c.4 0 .8 0 1.2-.1l.6.6c.4-.1.2-.2.3-.3.3 0 .7-.1 1-.1-.3-.1-.9-.1-.8-.2.1-.1-.4-.1-.1-.2.5-.1.2-.2.3-.2.1-.1.4-.1.7-.2.4-.1.9-.1 1.5-.1.2 0 .4.1.7.2-.4 0-.7.1-1.2.1.1.1.3.1.5.2h.4c.1 0 .2 0 .2-.1-.1 0-.3-.1-.4-.1.6 0 1-.1 1.7-.1h-.9v-.2c.3.1.5.1.6.1.1.1.5 0 .7 0 .4-.1.7-.2.9-.2zm39.6 5.2h2.2c.5 0 1.2.1 1.6 0 .6-.1 1.2 0 1.8 0 .6 0 1.1 0 1.6-.1h.8c.2.1.4.1.5.2h.2c0-.1.1-.1.1-.2h.1c.1.1.3.2.4.4h-2.1s.1.1 0 .1h-.4c-.1 0-.2 0-.4-.1-.7 0-1.4.1-2.4.2.1-.1.2-.1.2-.2-.2 0-.3-.1-1 0h-.8c-.1 0 0 0 0 .1H109c-.1 0-.2 0-.4-.1h-4.5c-.6.1-1.6.1-2.4.1h-1.3c.3 0 .6-.1 1-.1h-.7.7c-.4-.1-.7-.1-1.3 0-.1 0-.8 0-1.2-.1 0-.1.3-.1 1-.1h7.1c.5 0 1 0 1.4-.1-1.2 0-2.5-.1-3.7 0h-.2c-.6 0-1-.1-1.7 0h-1.9c.2 0 .2-.1.4-.1.9 0 2 0 2.9-.1h.2c1 .1 1.9.1 2.8 0 .7 0 1.4 0 2 .1h.6c.2 0 .1.1-.1.1zm-42.8-6c.6.1 1.2 0 1.8 0h2.4c-.1 0-.2 0-.3.1h2.3c0 .1 0 .1.1.2.2.1-.5.1-.1.2.2 0 .2.1 0 .2-.5.1.2.1 0 .2-1.1 0-1.9-.1-2.9-.1-.5 0 .2-.2-.8-.1l-.1.1c-1 0-1 0-1.5-.1h-1.3c.1 0 .2.1.3.1-.2 0-.4 0-.6.1-.2 0-.5 0-.8.1-.3-.1-1.1-.1-.4-.2-.3-.1-.5-.2-.8-.4.3-.1 1.4 0 2.2-.1h-2.1c.1-.2.3-.2.4-.2.9 0-.1-.1.1-.1h2.1zm5.9 2.9s.1.1.2.1h.5c.1 0 .1-.1.3-.1.4-.1.8-.1 1.5-.1h2.3c-.7.1-1.1.1-1.6.2.6.1.2.2 1.1.2.1 0 0 .1-.2.1-.1 0-.2-.1-.2-.1-.2.1-.2.1.1.2h-1l.1-.1c-.1 0-.4-.1-.6 0-.4-.1-.8 0-1.1 0-.3 0-.5-.1-.9-.2v.3c-1 0-1.9.1-2.9 0 .1 0 .2 0 .4-.1-1.2 0-2.1 0-3.1.1-.2 0-.4-.1-.6-.1-1.2.1-2.7.1-4.1.1h-1s-.1 0-.2.1c-.5 0-1-.1-1.4 0-.3 0-.6-.1-1-.1.8 0 1.6-.1 2.4-.1.4.1.4.1 1.2.1h-.4 1.5c.8 0 .6.1.8.2.3 0 .4-.1.6-.1s.3-.1.5-.1h2.5c.8 0 1.5-.1 2.3-.1-.4-.1-1-.1-1.7 0h-1.6 1-1.1c.3-.1.4-.1.4-.1.9 0 1.3-.1 1.9-.1-.1-.1.3-.1.6-.1h3c-.3-.2-.4-.1-.5-.1zm6.2 1.3c.3-.1.7-.1 1-.2h1.9s.5.2.7.2h.1l.1-.1h.1c.7.1.6 0 .9 0h-.2c-.5 0-1.4 0-1.2-.1.3-.1-.5-.1-.1-.2h-.6l-.2.2H80c-.2 0-.4-.1-.6-.1-.3 0-.6 0-1 .1.4 0 .7.1 1.1.1-.4 0-.8 0-1.3.1-.1 0-.4-.1-.4-.2 0 0 .2-.1.3-.1.1 0 .3-.1.4-.1.9 0 1.6-.1 2.5 0h1.2l.1-.1h.2l.3.3c.7 0 1.6 0 2.4.1-.3 0-.6 0-.9.1.3 0 .6 0 .9.1.2 0 .3-.1.5 0 0 0-.2 0-.4.1-.4 0-1 0-.3.1-.2 0-.4.1-.7.1h-1l-.1.1c-.4.1-1.4-.1-1.4.1h-.5c-.5 0-.9-.1-1.5 0h-1.7c-.5-.1-.6-.3-.5-.4.7-.3 1.3-.3 1.4-.2zm.1-2.4h.5c-.5-.1.3-.1.3-.1-.1 0-.6-.1-.1-.1h-.9c.1 0 .2-.1.2-.1l-.3-.1s.3-.1.5-.2l.2.2h.6s-.2-.1-.3-.1c-.2-.1-.5-.1-.7-.2h.5c.4 0 .8.1 1.2.1h1.3c.7-.1.8 0 .8.1s.3.1-.2.2c-.2 0-.1.1-.2.1-.5 0-1 0-1.4.1-.2 0-.2 0-.3.1h.3c.3 0 .7-.1 1-.1.6 0 1.1.1.7.2-.3.1-.5.1 0 .2-.6.1.5.2.4.3-1.1 0-2.2 0-3.3.1-.3-.1-.1-.2-.8-.2-.5.1-.9-.1-1.6 0v-.3h.3l.1.1s0 .1.1.2c.3-.1.6-.2.8-.3h.2c.1-.3.1-.3.1-.2zm-4.3 2.7h-1.3s.1-.1 0-.1c0 0-.3 0-.7-.1v.2c-.3-.1-.4-.1-.7-.1h-1.2c.2 0 .3.1.5.1h.7c-.8 0-1.5.1-2.3 0h-1c-.8.1-1.9.1-2.9.1h-2c-.7 0-1.4.1-2.2 0-.1 0-.2-.1-.4-.2.7 0 1.5 0 2.1-.1 1 .1 1.9 0 2.8 0 .2 0 .5 0 .9.1-.1-.1-.2-.1-.2-.1h.5c.4.1 1 .1 1.7 0h.8c.2 0 .5-.1.7-.1h-.4c-.5 0-1.1 0-1.3-.1 1.1-.1 2.2-.1 3.5-.1h.9c.4-.1.7 0 1.2 0h3l-.4.2c-.5.1-.1.1.1.2h-1.8c-.2 0-.4 0-.6.1zm-36.5-2.1c.1 0 .6.1.3.1-.5.1.3.1.1.1s-.4.1-.6.1c-1 0-.9-.1-.8-.2.3-.2.4-.2-.1-.4-.1-.1.6-.1.2-.1-.2 0-.1-.1-.1-.2s0-.2-.1-.3c-.3.2-1.2.3-1 .5.1.1-.1.1.3.2.3 0 0 .1-.3.2.2 0 .4 0 .6.1-.2.1-.5.2-.7.3-.1 0-.9 0-.5-.1.2-.1.2-.2 0-.2-.3-.1-.3-.2-.1-.2.6-.2.2-.4.3-.6 0 0-.2-.1-.3-.1-.1-.1-.3-.1.2-.2.3 0 .5-.1.8 0s.5.1.8 0h1.3v.7c0 .1-.1.1-.6.2.1 0 .2 0 .3.1zm.8 4.4c-.2-.1.1-.1.4-.1.7-.1 1.4-.1 2.2-.2.8 0 1.3-.1 2.2-.2h.9c.1 0 .5 0 .8-.1.3 0 0 .1.7.1.3 0 .6 0 .9.1-.1 0-.2 0-.3.1h2.6c-.9 0-1.5 0-1.9.1h-.4c-.9-.1-1.9 0-2.8 0-.3.1-.6.1-.9.2h-.6c-.3 0-.1-.1.1-.1 0 0 .1 0 .3-.1-1.8.1-3 .2-4.2.2zm26.3-2c.4 0 1 .1 1.4 0 .7.1 1.4 0 2 0s1-.1 1.7 0h1.7c1.1 0 2.1 0 3-.1.5 0 1-.1 1.7 0 0 0 .1.1 0 .1-.1.1-.3.1-.9.1h-9.8c-.5 0-.9.1-1.6 0-.4 0-.9 0-1.6-.1 1.1 0 1.8.1 2.4 0zm5-5.1h.2c.4.1.7.1 1.5.1h2.4c.2 0 .3 0 .7.1h-1.3c-2.1 0-4.2.1-6.3 0-.3 0-.5.1-1 0h-1.2c-.5 0-1 .1-1.6 0h-.1v-.2c.6 0 1.1-.1 1.9 0H68c-.2 0-.2.1-.4.1h2.7c0-.1.1-.1.1-.1zM47 15.9c-.7.1-1.3.2-2 .3-.2 0-.7.1-.7 0s-.8 0-1.2-.1c.5 0 1-.1 1.6-.1-.4 0-.7-.1-1.1-.1-.2 0-.3.1-.5.1-.7 0-1.4-.1-2.2-.1.3 0 .6-.1.9-.1.2 0 .3.1.5.1.5-.1 1-.1 1.2-.2h3.7c-.7 0-1.1.1-1.6.1.4.2 1.1 0 1.4.1zm9.6-3.7h1.6c.1 0 .2.1.2.1.1.1-.2.1-.7.1-2-.1-2.7-.1-4.1 0h-.5c-.8-.1-1.7 0-2.7 0 .4-.1.6-.1.9-.1h-2.9 3.7c.4.1.9 0 1.4 0 .6 0 1.1 0 1.6.1h1.4c.1-.1.1-.1.1-.2zm-20 3.3c1.2.1 2-.1 3.3-.1-.5.1-1.3.1-2.8.2h.8c-.6.1-1.3.1-2.2.1h-.6c-.9.1-1.8.1-3 .1.9-.2 1.9-.2 3.3-.3.2 0 .4.1.9.1.2 0 .2-.1.3-.1zm35.2-2.8h-2.1c1 0 1.9 0 2.9-.1.4 0 .4 0 .8.1.7 0 1.4-.1 2.3-.2-.1 0-.2.1-.3.1-.8 0-1.2.1-1.6.1-.7.1-1.5.2-2.7.1-.4 0-.7 0-1.1-.1.2 0 1.2.1 1.8 0zm-29.4 1c-.7 0-1.5.1-2.5.2-.2 0-.4-.1-.8-.1h1.7-.2c-.7 0-1.4 0-1.9.1h.3c-.6.1-1.1 0-1.5-.1.2 0 .4-.1.6-.2h4.1c.1.1.2.1.2.1zm18.9-1.1h1.6c0 .1.1.1.1.2h-1.4 1.3c-.7.1-.7.1-3.8.1h1.6c-.8-.1-.1-.2-1.2-.3h1.8zm13.5-5.1c.2.1.3.2.5.4h-.8c.3 0 .5 0 1 .1h-1.1c-.3-.1-.7-.1-.9-.2-.2-.1-.3-.2-.4-.4.7.1 1.2.1 1.7.1zm14.3.9c1 0 1.9 0 2.8-.1h1c.9 0 1 0 1.1.2h-3.7c-.3 0-.7 0-1.2.1v-.2zm-4.8 3c.3.1.5.1.7.2.5-.1.6 0 1 0h-6.5c0-.1.4-.1 1-.1H84c.1 0 .2 0 .3-.1zM66 8.2c.8 0 1.7-.1 2.5 0 1.3-.1 2.6 0 3.9 0h.3v.1h-3.5c-1.2.1-2.3 0-3.8 0 .4-.1.5-.1.6-.1zm-6.1 7.7c.6 0 .9 0 .9-.1-.2 0-.4 0-.6.1-.4-.1.1-.1.6-.2.2 0 .6 0 .6.1-.1.1.7.1 1.2.2h-1.8c-.5 0-1 .1-1.5.1-.5-.1-1.1 0-1.7 0 .7-.1 1.5-.2 2.3-.2zm-24.1 0h-.2c-.7 0-1.2 0-1.8.1h-1.1c.3 0 .6-.1.9-.1h.4c1.5 0 2.9-.1 4.5 0-.8.1-1.9.1-3.1.1.1 0 .2 0 .4-.1zm.2-3.7c-.2-.1-.3-.2-.5-.3.1 0 .3 0 .6-.1 0 .1.1.1.1.2h1.3c-.1-.1-.2-.1-.3-.1.4-.1 1.4 0 1.4.1.1.1 0 .1 0 .2H36zm38.8-3.4c.1 0-.5.1 0 .2.3 0 1 .1.2.2.4.1-.1.2-.7.2l-.3-.3v-.3h.8zm-11.1 4.3h-1.2c.2 0 .5-.1.8-.1h1.3c-.1 0-.2 0-.4.1h1.4c.3 0-.6.1 0 .1h-3.4c.7 0 1.1-.1 1.5-.1zm-9.6-4.7c-.6.1-1.3 0-1.9 0-.2 0-.3-.1-.5-.1 2.1-.1 4.4 0 6.6 0-.9.1-1.9 0-2.8.1h-3 1.6zm13.5 6.3h1.7c.1 0 .2.1.3.2h-1.2c-.2 0-.2.1.5.2h-2.5c.4-.1.7-.1.8-.1.9 0 .8-.1 1.2-.1-.5-.2-.6-.2-.8-.2zm-42.1 1.5c-.5 0-1.3 0-1.4.1h-1.9c.7-.1 1-.3 2.2-.1.9-.1 1.9 0 2.8 0h.6c-.8-.1-1.6-.1-2.3 0zm41.9-3.5h-2.3c-.2-.1.8-.1 1-.1 1 0 2.2 0 3.1.1-.2.1-1.4-.1-1.8 0zM65.8 15h-1.6c-1.2.1-2.4 0-3.7 0 .3 0 0-.1.8-.1h1.9c.6-.1 1.4-.1 2.1-.1.1.1.3.1.5.2zM50.1 8.7c.4.1 1.1 0 1.6.1-.2 0-.3.1-.5.1-.9 0-1.9 0-2.9-.1-.2 0-.4 0-.6-.1.8 0 1.8.1 2.4 0zm13.4-.4h-4.7c.5 0 1-.1 1.4-.1 1.2 0 2.3-.1 3.6 0-.2 0-.3.1-.3.1zm-3.4.7c0-.1 0-.1 0 0 .6-.1 1.1-.1 1.6-.1h.8c.5 0 .8 0 .8.2h-1.4c.1-.1.2-.1.4-.1h-2.2zm11.3 5.6c.4 0 .7.1 1.1.1-.7.1-1.6.1-2.8.1.5-.1.8-.1.9-.1.2 0 .1-.1.3-.1h1.2c-.3-.1-.5 0-.7 0zm8.7-3.2c-.2 0-.3-.1-.5-.1.2 0 .3 0 .5-.1.1.1.1.1.2.1.5 0 1.3 0 1.5-.1.8.1.8.1 1.1.2h-2.8zm-30.7 2.2c-.4 0-.8-.1-1.3 0h-2.7 2.7c.9-.1 1.7 0 2.5 0 0 0 .1 0 .1.1-.5-.1-.9-.1-1.3-.1zm32.9-5h-5.9c.9 0 1.9 0 2.8-.1 1 0 2 .1 3.1.1zm-46.5 3.2c.8-.1 1.9 0 3.1-.1-1 .2-1.3.2-3.1.1zm22.7 3.4c-.4.1-.6.1-.8.2h1c-.8.1-1.8.1-2.8.1 1.2-.1 1.4-.2 2.6-.3zm63-.1c0 .1-.9.1-1.2.1-.5-.1.1-.2-.5-.3.2 0 .3 0 .5-.1h.2c.3 0 .6 0 .5.1-.1 0-.4 0-.8.1.6.1.9.1 1.3.1zm-4.8-.4c.4 0 .5 0 .9.1-.2 0-.4-.1-.5 0-.5 0-1.1.1-1.4 0-.5 0-.9-.1-1.4 0 0 0-.4 0-.7-.1 1.1 0 2.1.1 3.1 0zm-75.2.4h-2.2c.1 0 .1-.1.2-.1.6-.1 1.2.1 1.8 0h1.9c-.3.1-1.2 0-1.7.1zm46.8-1.9c-.4.1-.5.1-.7.1s-.3.1-.5.1h-.8c-.3-.1-.8-.1-1.4 0h-.7c1.3-.2 2.5-.2 4.1-.2zm-16.9 2.7c.5-.1.8-.2 1.7-.1-.4.1-1.2.2-1.9.3-.3-.1-.2-.2.2-.2zM77.2 9c-.3-.1-.3-.1-1.2 0 .1-.1 1-.1 1.7-.2 0 .1.3.2-.5.2zm-26.9 4.2c-.3.1-1.3.1-1.8.1-.1 0-.4 0-.7-.1.6-.1 1.6 0 2.5 0zm25.3 1.9c-.1 0-.2.1-.2.1 0 .1-.3.1-.4.1-.3-.1-.5 0-.8 0-.2 0-.5 0-.8-.1.8 0 1.4-.1 2.2-.1zm9.6-6.5h-2.7c1.8-.2 2.3-.2 2.7 0zm-4.6 5.1h2.1v.1c-.7-.1-1.4-.1-2.1-.1zm-2.6-.1c.4.1.8.1 1.2.1-.6 0-1.1 0-2 .1.3-.1.5-.2.8-.2zm-19 1.3c-1.7.2-1.7.2-2.4.2.7-.1 1.3-.2 2.4-.2zm-21.7 0c.3 0 .6 0 .8.1h.9c-.4.1-1.1.1-1.7.1v-.2zm40 .4c.3 0 .6-.1 1-.1.3.1-.1.1-.6.2H76c.5 0 .9 0 1.3-.1zM49 9.1h-.2c.3 0 .6-.1 1-.1.3 0 .6.1 1 .2-.7-.1-1.3-.1-1.8-.1zm11.9 4.8h2.4c.1 0 .3 0 .5.1-1.1-.1-2-.1-2.9-.1zm14-5.8c-.2.1-.2.1-1.4.1.5-.1.5-.1 1.4-.1zm11.7.5c.5-.2 1.3-.1 2.3-.1-.8.1-1.6 0-2.3.1zM61.5 9c-1.5.1-1.9.1-2.1 0h2.1z" class="st0"/><path d="M116.3 11c.4.1 1 .1.9.1-.5.1 1 .2-.2.3h4.4c1.3 0 2.7 0 4.1-.1.6-.1-.4-.2-.2-.3-.9-.1-1.8.1-2.8 0 .2 0 .4 0 .9-.1h-1.6c.1 0 .2 0 .2.1.1.1.2.1.3.2h1.3c.5-.1.7 0 1.1 0-.2 0-.4.1-.6.1h-2.7c.3-.1-.4-.2 0-.4h-2.1c0 .1-.1.1-.1.2h-.9c-.3-.1-.6-.2-.9-.2-.3 0-.7 0-1.1.1-.4-.2-.6-.3-.4-.5 1.5 0 .9.2 1.6.3.5 0 .5-.1 1.2-.2-.3 0-.7-.1-1-.1.2 0 .4-.1.5-.1.2.1.8.1 1.2.2.5.1 1.1.1 1.5 0h.3c.5.1 1.3 0 1.9.1-.3.1-.1.1.3.1h2c.1 0 .2 0 .4.1h-1.9c.5.1 1 0 1.5.1h1.6-1.3c.1 0 .3.1.3.1.1 0 0 .1 0 .1 0 .1.3.1 1.1.1-.3-.1-.6-.1-.9-.1.3 0 .6-.1 1.1-.1v.4c-1.7 0-3.3 0-5 .1h-.7c-.2 0-.4.1-.5.1-.6 0-1.1.1-1.6 0-.1 0-.1 0-.3-.1h1.9c-.1 0-.1-.1-.1-.1h-.8c-.9.1-1.9 0-2.9 0v.2c.5 0 1.2.1 1-.1.5 0 1 0 1.4.1.4 0 .7-.1 1.2 0h1c.4 0 .8-.1 1.2-.1 0 0 .1 0 .2.1h2.3-1.5c.7-.1 1.5 0 2.2-.1h.7c-.2 0-.4.1-.6.1h10c2-.1 4 0 6.3-.1-.2.1-.3.1-.4.1-.4-.1-.9 0-1.3 0h-3.3c-1.2.1-2.5.1-3.8.1h-.2c-.4 0-.4-.1-1-.1H129c-1.6 0-3.2 0-4.9.1.5 0 1 .1 1.2.1h1.8c-1.2.1-2.6.1-4.2.1.2 0 .3.1.4.1-.5.1-1.2-.1-1.6 0h-3.9c-.1-.1-.1-.1.8-.1.2-.1.3-.2-.4-.2-.4.1-1.1-.1-1.6 0v-.4c-.2 0-.4-.1-.7-.1h-.6c-.2 0-.3-.1.3-.1h.9c.3-.1-.7-.1-.3-.2.1.2 0 .1.1 0zm9 4.8h3c.4.1.7.3 1.1.4.1-.1.4-.1.3-.1-.5-.1.6 0 .6-.1-.1-.1.3-.1.4-.2h2.6c.8 0 1.5 0 2.3-.1-.4-.1-1.3-.1-1.8-.1-1.6.1-3 0-4.3-.1h-1.2c-1.2 0-2.4.1-3.6.1h-2c-1 0-2 0-3 .1-.6 0-1.3.1-2 .1h-2.3c-.8 0-1.4 0-2-.1h-.2s0 .1-.1.1c-.7-.1-1.1 0-1.7 0 .7 0 1.4 0 2.1.1-.2 0-.3.1-.5.1s-.3-.1-.5-.1c-.8.1-1 .2-.1.3.2 0 .1.1.1.1h2.2c-.4.1-.8.1-1.2.2h1c-.2 0-.3.1-.5.1h-1.5c-.2.1 0 .2.8.2.1 0 .2-.1.4-.1.4.2.2.3 1.2.5-.1 0-.4.1-.3.1 0 .1.3.1.5.1s.4 0 .6-.1c-.6-.1-.4-.3-.4-.4s.3-.1.9-.1h3.3c.1.1-.2.3.6.4 1.1-.1 0-.3.8-.4.3.1-.4.2.8.3 0 0 .1-.1 0-.1-.3-.2-.2-.2 1.1-.1v.1c.2 0 .3 0 .4-.1h.6c-.2-.1-.4-.1-.5-.2h-1.9v-.2c.2.1.3.1.4.1.4-.1.9-.1 1.5-.2h-1.9v-.2c0-.1-.2-.1-.1-.2s-.2-.1-.3-.2c-.2-.1-.1-.1.7-.1h2.1s0 .1.1.1c0 0 .1 0 .2.1-.1 0 .3-.1 1.2-.1zm-10.8.2c1.3 0 2.6-.2 4-.1.2.1.4.1.5.2s-.1.1-.9.2c-.4 0-.8 0-1.3.1.8.1 1.6-.1 2.3.1.3-.1.5-.2.7-.3.5.1.6.3.6.4s.1.2.2.2c.2.1.1.1-.7.1-.5 0-1.1 0-1.5.1h-2.9c-.4-.1-1.1-.1-.5-.3.1 0 .1-.1.1-.1l-.2-.1c-.1-.2-.1-.2-1.1-.3-.1 0 0 0 0 0h.5c0-.2.1-.2.2-.2zM21 15.8c-1.2 0-2.4 0-3.6.1h-.8c-.7 0-1.4 0-1.6.1-.1 0-.8 0-1.3.1-.2 0-.3 0-.5.1 1 .1 1.9 0 3.1 0-.6.1-1.1.1-1.4.2.1 0 .2.1.4.1.7-.1 1.3-.1 1.7-.2.4-.1.8-.1 1.7-.1-.2.1-.3.1-.4.1h1.6c-.3 0-.4.1-.6.1-.3 0-.6.1-.9 0-.4 0-.7.1-1.1.1h-6c.2-.1.3-.1.4-.1h-1c-.5.1-1.3.1-2 .1-.5 0-.9 0-1.2.1h-.2c-.5-.1-1 .1-1.6-.1-.3-.1.6-.1 1.2-.2.2.1.3.1.4.1h.2c.5 0 1-.1 1.5-.1h.4c1 .1 2-.1 3.1 0 .1 0 .5 0 .7-.1.1 0 .1 0 0 0-.1-.1-.9 0-.7-.1.1-.1.1-.1-.3-.1.4-.1 1.1-.1 1.4-.2h1.2c-.4.1-.6.1-1 .2 1 0 1.7-.1 2.5-.1.5 0-.2-.1-.1-.1.3-.1.8-.1 1.3 0-.1 0-.2 0-.5.1 1.2-.2 2.5-.2 4-.1zm123.2-4.1c.6-.1 1.6-.2 1.1-.3h-.5c.1-.1.3-.1.2-.2-.4-.1.2-.1.2-.1.1-.1.2-.1 1.2-.1h.8v-.2c.6.1.8.2.8.2 0 .1-.2.2.3.2.2 0 0 .1 0 .1-.9.1-.5-.1-1.2-.1-.4 0-.8 0-1.4.1.5 0 .8.1 1.1.1h3.4c.2 0 .5.1 1 0h1c.7 0 .8.1.2.2-.2 0-.4-.1-.8-.1h-1.4c-.2.1-.6.2-1.5.1v.2h3c.9 0 1.9 0 2.8-.1h2.9c.7.1 1.4 0 2.1 0h.9c-.2.1-.4.1-.5.1-.9-.1-1.8-.1-2.7 0h-1c-1-.1-1.8.1-2.7.1-.2 0-.3.1-.5.1-1.1-.2-2.3-.1-3.5 0h.7c-.1 0-.2.1-.4.1-.7 0-1.5 0-.7.2-.5 0-.4.1-.1.2 0 0-.3 0-.5.1-.1-.2-1.1-.3-2.6-.4.3 0 .6-.1.9-.1.3 0 .7 0 .9-.1s.4-.1.2-.2c-.1 0-.4-.1-.1-.1.5-.1 0-.1-.3-.1-.2 0-.2.1-.7 0-.9 0-1.2 0-2.6.1zM21.7 8c-.3-.1-1.1-.1-.5-.2.2 0 .2-.1.1-.1-.6-.1-.2-.1 0-.2.3-.1-.2-.1-.8-.1.2-.1.3-.3.5-.4h.5s.2-.1.1-.1c-.6-.1 0-.2.2-.2h.7c.2.1.4.2.5.2h2v.5h1l.2-.2c.5.1 1.1.3.2.4-.4 0-.8-.1-1.3-.1-.1.1.4.2.5.3-.1 0-.4 0-.6.1v.4c-.9 0-.9 0-.7-.1h.1c-.8-.2-.1-.4-.4-.6-.5 0-.9.1-1.3.1.5 0 .4.1-1 .3zm80.1 7.7h2-1.8c.4 0 .6.1 1.2.1h2.4c.1 0 .1.1.2.1h4.9c-1.3.1-5.5.1-6.5.1.3 0 .6 0 1-.1h-.9c-.7.1-1.7 0-2.4.1h-1.2c-.3 0-.6.1-1 0H99c.5.1 0 .2.3.4.3 0 1-.1 1 .1H88.1c-.2 0-.4.1-.6.1-.3 0-.5 0-.8-.1.4-.1 1-.2 2-.2h.8c.2 0 .4.1.7.1.7 0 1.3-.1 2 0h1.5c.2 0 .3 0 .6-.1.2.1.3.1.4.1h.5c1.2.1 2.2 0 3.2-.1.1-.1.1-.3-.6-.4-.3.1-.7.1-.9.1.1 0 .2.1.4.1h-1c-.2 0-.4-.1-.6-.1h-.4c-.4.1-.4.1-1.2.1-.2-.1-.3-.2-.5-.2-.1-.1.2-.1.6-.1.9 0 1.8-.1 2.7-.1h4.2c.4.1.4.1.7 0zM41.9 18c.3 0 .6-.1 1.1-.1-.2-.1-.3-.3-.5-.4h-.3c-.2 0-.4.1-.5.1-.3.1-.5 0-.8 0h-.7c-.3 0-.6 0-.9-.1h-.4c-.5.1-.7.2-2 .2.1 0 .2-.1.4-.1h-.4c-.4.1-.7.1-1.3.1.5-.1 1-.1 1.5-.2.4-.1.8-.1 1.1-.2-.1 0-.3 0-.4-.1-.3 0-.5 0-.9.1 0-.1.7-.1.7-.2H37c-.1-.1.8-.2 1.8-.3.2.1.2.1-.5.3h.7-.7c.5.1.9 0 1.3 0 .5 0 .9 0 1.4.1-.3 0-.6.1-.9.1h-1.4c.5.1.5.1 1.2.1.5 0 .9.1 1.3.1h1.3v-.1c.6 0 1.1-.1 1.7-.1.4 0 1 0 1.4.1h-1.9c-.2.1-.4.1-.6.2.2 0 .5.1.8.1-.2.1-.7.2-.4.4.1.1-.3.1-.3.2-.1.1.2.2-.1.3-.3.1-.3.3-.3.4s-.4.1-.9.1l-.1-.1s.1-.1 0-.1c-.5-.1-.4-.3.6-.4.2 0 .2-.1.1-.1-.1-.2-.4-.3-.6-.4zM28.4 8.1c.3 0 .7-.1 1-.1-.2-.1-1-.2-.3-.3-.5 0 .2-.1-.4-.2.2 0-.4-.1-.2-.1.4-.1.5-.2.8-.3h.4c-.6-.1-1.2-.1-1.7-.2-.7-.1.1-.2 0-.3-.5-.1-.9 0-1.3 0h-.1c.3-.1.9-.2 2-.2.1.1.3.1.4.2s-.1.1.5.2c.2-.1.5-.1 1.2-.1 0 0 .1.1 0 .1-.4.3-.5.3-.1.5l-.1.1c-.3.1-.6.2-.5.4 0 0-.2.1-.3.1.2 0 .4 0 .8.1h-.8c0 .1-.1.2.2.3.2.1.3.2.2.3-.1.1-.4.3.2.4.2 0-.3.1-.3.2-.1.1 0 .2 0 .4h-.5c.2 0 .1-.1 0-.1-.3-.1-.6-.2-.6-.3 0 0-.4-.1-.3-.1.7-.1 0-.2.4-.3.2-.1 0-.1-.1-.1 0-.1-.1-.2 0-.4.3 0 .2-.1-.5-.2zm92.1-.9c.3.1 1 .1.4.2h-.1c-.2.1.8.1.1.2-.2 0-.1.1-.1.2.7 0 1.3 0 1.7-.1.5 0 .9-.1 1.4-.2v.2c1-.1 1.8 0 2.6 0 .9 0 1.7-.1 2.8 0-.4 0-.7.1-1 .1h-3c-.4 0-.7 0-1.2.1.4 0 .7 0 1.1.1h-1.6c.3 0 .5.1.8.1-2.8.1-5.4.2-7.9.1-.4 0-.6.1-.8.1h-.3c.1 0 .1-.1.3-.1.9 0 1.5-.2 2.6-.1h2.1c-.3 0-.7-.1-1-.1h-5.1c.2 0 .3-.1.4-.1.4 0 .8 0 .8-.1h.6c.2.1.9.1 1.7.1-.3-.1-.4-.1-.6-.2-.5-.1-1.1.1-1.6 0-.6 0-1.1.1-1.9 0 .3 0 .6-.1.8-.1h4.2-1.5 1.4c-.1 0-.2.1-.4.1.8 0 1.5 0 2.1-.1-.1 0-.2-.1-.2-.1-.1-.1.1-.1-.1-.2-.9 0 .2 0 .5-.1zm-26.4 4.4h1.3c0 .1-.1.1 0 .1s.3 0 .7.1v-.2c.6.1.3.2 1.2.3-.1-.1-.2-.2-.2-.3.7 0 1.2-.1 2.2-.1h-2c1.5-.1 1.5-.1 3.4-.1h-.3c.7.1 0 .2.5.3-.3 0 .1.1-.8.1l-.2-.2c-.3.1-.3.2-.2.3.5 0 .8 0 1.1-.1.2 0 .3.1.4.1.5 0 .9-.1 1.3-.1 1.3 0 2.4-.1 3.9 0l-.6-.3c-.3 0-.5 0-.6.1-.4 0 .1.1.1.1 0 .1-1 .2-1.5.2-.3 0-.7 0-.8-.1-.5-.1.1-.3 1.2-.3h1.2c-.1 0-.2 0-.3-.1.8-.1.6 0 .8.1.3-.1.6-.1.8-.2-.6-.1-1.1-.1-1.6-.2-.7 0-.8.2-1.6.1-.5 0-1 .1-1.5.1h-2.8c-1.3 0-2.6-.1-3.9 0-1.3.2-1.3.2-1.2.3zm8.3 0c.1.1 0 .2 0 .3h-.6c-.1-.1-.2-.3-.4-.4.7 0 1 0 1 .1z" class="st0"/><path d="M13.6 16.5h2.1c.4 0 .7.1 1.2 0h3c-1.1.2-2.7.3-4.5.4.2-.1.3-.1.4-.2-.4 0-.5 0-.7.1h-.5c-.1 0-.3 0-.2.1.1 0 .2.1.3.1-.5.1-1.1.1-1.6.2-.4.1-.4 0-1.2 0-.6 0-1.4 0-1.6-.2.3 0 1 0 .9-.1H9.6c-.5 0-1.2.1-1.9.1-.3.1.7 0 1 .1-.5 0-.6.1-1.5.1.2 0 .3 0 .4-.1H5.1c.2-.1 1.1-.1 1-.2h.4c1.6-.1 3.2-.1 4.8-.1.6 0 1.1-.1 1.6 0 .4-.2.6-.2.7-.3zm58.2 1.1c0-.1.1-.2 0-.3-.1-.1-.1-.1.2-.2.9 0 1.9-.1 2.9 0h.7c.3-.1.7 0 1.1 0h1.8c1.1 0 2.2 0 3.2.1-.8.1-.8.1-1.9 0H78c-.2.1-.5.2-.4.2 0 .1-.2.1-.2.2s0 .2-.2.2c-.4.1 0 .2-.3.3-.3.1 0 .3-.1.4 0 0-.2.1-.3.1-1.1-.1-.6-.2-.8-.3-.2 0-.6 0-.6-.1-.1-.1 0-.2 0-.3.3 0 .5 0 .8-.1h.6v-.3c.1-.1-1.4-.1-.4-.2V17c-.6 0-1.1 0-1.6.1-.4.1-1.4.1-2.2 0 .1 0 .3.1.3.1s-.3.1-.4.1c-.3.3-.4.3-.4.3zM16.7 7.8c-.2 0-.4-.1-.6-.1-.3 0-.8-.1-.4-.2.2-.1.1-.1-.1-.2-.3-.1-.2-.2-.3-.3-.4.2.1.4-.8.6-.6 0-.8-.1-.8-.2-.1-.2-.1-.3 0-.5 0-.1.3-.1.5-.2h1.6c.2 0 .5.1.7.1.4 0 .6 0 1.1-.1v.2c.1.1 0 .1.3.2s-.2.2-.3.3c-.1.2-.3.3-.9.4zm79.1 9c-.4.1-.4.1-.4.3h1.4c-.3.1-1.2.1-1.8.1-.8 0-1.9 0-2.6.1h-2c-.1 0-.3-.1-.6-.1h-2.1c-.1-.1-.1-.1.2-.1H89c1.6-.1 3.3 0 5 0h.2V17c-.8-.1-1.7 0-2.5 0h-2.3c.3-.2.6-.3.9-.5.6 0 .8.1.9.1h1.9c.1 0 .2.1.3.1.9-.1 1.5 0 2.4.1zm37.6-2.1c.6-.1 0-.1 0-.2-.1-.1-.9-.1-1.6-.1h1.4c.1-.1.3-.1.4-.2-.1 0-.3 0-.5-.1-.1 0-.2.1-.4.1 0-.1-.1-.2-.1-.3.3 0 .4.1.6.1h.9v.4h.5c.1 0 .6-.1.3-.1-.2 0-.1-.1-.1-.2.9 0 .6.1.7.2h1.3c-.7 0-1.1.1-1.2.1 0 .1.2.1.3.2h.7c.3 0 .6-.1.6-.1 0-.1.1-.2 1.3-.2.5 0 .5-.1.6-.2.7.1.8.2.7.3s0 .2 0 .4c-1 0-2 0-2.7.1-.8.1-.7 0-.9-.1 1 0 2.1 0 3.1-.1 0-.2 0-.2-.6-.3-.3 0-.7 0-1 .1-.2 0 .5.1 0 .1.2 0 .4.1.6.1-.7 0-1.4.1-2.1.1-.4-.1-.8 0-1.3 0-.4.1.3.2-.6.3-.3-.1-.5-.1-.8-.2.3-.1.6-.1-.1-.2zm-80.2 2.7c1.2-.1.8-.4 1.4-.5.6 0 .6.1.6.2 0 .2 0 .2 1.4.2h.3v.1h-1.1c-.2 0-.6.1-.6.1.1.1-.2.2-.1.3.1.1.1.3-.2.5-.4.2-.1.4-.1.5s-.2.2-.8.3c-.6 0-.8-.1-.5-.2.4-.1.3-.2.1-.3-.1 0 .1-.1.1-.1 0-.1.1-.3 0-.4-.1-.2.3-.3.6-.4.1 0 .2-.1.1-.1-.1-.1-.2-.1-.8 0-.1-.1-.3-.2-.4-.2zM64 17v-.2c.3 0 .7 0 .7.1-.2.1-.3.1.1.2-.9 0-1.7.1-2.5.1.7 0 1.4.1 2 0h.7c.1 0 .3.1-.2.1-.6 0-.5.1.2.1.4.2-.3.4-.4.6 0 0-.4.1-.7.2-.4-.3.2-.5-.8-.8-.9 0-1.8.1-2.8.1-.3-.1-.6-.2-.8-.2.7 0 1.1-.1 2-.1.5 0 .8-.1 1.6-.2.2 0 .4.1.6.1.1-.1.2-.1.3-.1zm-32.8-5.5c0-.1-.1-.2 0-.3s-.3-.2.3-.3c-.7-.1-.1-.2-.5-.3-.1.1 0 .1-.2.1s-.4.1-.9 0c-.2.1-.6 0-.9 0-.5 0-.4.1-.3.2.1.1.4.1.3.2-.2.1-.7.3 0 .4-.8.1.1.2.2.2s0 .1-.1.1c.8 0 1.5 0 2.2-.1.1-.1 0-.1-.1-.2zm-1.3-.6c.2-.1.4-.1.7-.2.4.1.4.2-.3.3-.2 0-.5-.1-.4-.1zm78.3-1c.3.1.4.1.2.2-.1.1-.3.2.2.3.3 0 .1.1 0 .2s.5.1.1.2c-.2 0 .1.1.1.2.1.1.2.2.3.4h3.2c.7-.1 1.5 0 2.1 0 .3 0 .3.1-.2.1h-3.9c.1.1.3.1.4.1h-1.4v.3h-1.8c.3 0 .9 0 .7-.1-.1 0 .6-.1 0-.1.1-.1-.4-.2 0-.3.2-.1.3-.2 0-.3-.4-.1.4-.1-.2-.2-.3 0 0-.2-.1-.2-.1-.1.3-.2-.3-.2-.1 0 0-.1.1-.1.3-.1.3-.1 0-.2-.3-.2.1-.3.5-.3zM32.6 7.2c.4 0 1 0 1 .1 0 0-.4 0-.7.1h.7c-.1.1 0 .2-.3.4-.2.1-.9.2-1.4.3-.4 0-.6-.1-.6-.1 0-.1-.2-.3.1-.4.2-.1-.9-.2-.2-.3-.7-.1.3-.3.1-.4-.1-.1.2-.1.7-.1.4.1.4.1.3.2.3 0 .3.1.3.2zm81.8 12.3c.1-.1.2-.2.5-.4.1 0 .1 0 0-.1-.5-.1-.8-.3-.1-.4.1 0 0-.1 0-.1 0-.1-.2-.1-.3-.2-.1-.1.6-.1 0-.2.5-.1.1-.2 0-.2-.1-.1.2-.1.3-.2.9 0 .2.1.4.1.4.1.3.2.3.3v.5c.3 0 .4 0 .7-.1 0 .1 0 .1.1.2h-.6c-.2.1-.1.1.3.2.5.1.5.1 0 .2-.4.1-.6.1-.2.2.2 0 .2.1.2.1-.2.1-.3.1-1.6.1zm-4.6-1.5c.2-.2-.2-.4.3-.5h-1c0-.1-.1-.2-.3-.3-.1-.1-.5-.1-.8-.1.3-.1.9-.1 1-.2s-.2-.1-.3-.2v-.1c.3 0 .7 0 .7.1-.1.1.5.1.1.2-.2 0-.2.1.3.2h.1l.2.2c.1 0 .6.1.6.1.1.1.1.1-.2.2-.6.1.2.1.6.2-.7.1-.7.1-.7.3.1-.2.1-.2-.6-.1zm9.3-5.2c-.1-.2-.1-.2-.8-.4.4 0 .1-.2 1-.1.2 0 .4 0 .6.1.6 0 1.4-.1 2.1-.1.7.1 1.9.2 2.6.4h-1.1v-.2h-.2c-.1 0-.1 0-.3.1h-1.6c-.3.1-1.6.1-2.3.2zM80.8 7c-2.9.1-5.5.2-8.3.2v-.1h2c0-.1.1-.1.1-.2 0 0-.4-.1-.2-.1.5-.1-.4-.1-.5-.1.9-.1-.2-.1-.1-.2.2-.1 0-.2 0-.3h.7c.1.1.9.3.7.4 1.3.1.2.2 0 .4v.1c1 0 1.8-.1 2.6-.1h3zm-47.1 5.6h-8c-.1 0-.2.1-.3.1-.1 0-.2 0-.4-.1h-1.6c-.8 0-.9 0-1.1-.2 1.6-.1 3.3-.1 5 0-.9 0-1.9.1-2.9.1 1.7.1 3.3-.1 4.8 0 1.5 0 3 0 4.5.1zm18.2-5c-.3 0-.6 0-.9-.1 0 0 0-.1.2-.1.3-.1.2-.2.1-.2-.4-.2-.3-.4 0-.6.2-.1.9-.1 1.4-.3.1.1 0 .2.4.3.1 0 .4.1-.5.1h-.2c0 .1 0 .3.2.4.3.3.2.4-.7.5zm72.4 1.9c-.5.1-1.3 0-1.6.1-1 0-.1.2-1.2.1.1 0 .2-.1.3-.1-.5 0-1-.1-1.6-.1h1.3c-.4 0-.8-.1-1.1-.1.3 0 .5-.1-.1-.1.6 0 .9-.1.7-.1-.2-.1 0-.1-.3-.2-.2-.1.2-.1-.4-.2.9-.1-.2-.2 0-.4 0 0-.4 0-.7-.1.5 0 .6-.1 1.2 0h3s.3 0 .6.1c-1.2 0-2.4 0-3.5.1.1.1 0 .2.3.4.3.1-.2.2.4.4.3.1 0 .2.1.3 0 .1.3.1 1.1.1.5-.3 1-.2 1.5-.2zm14.1 2.8h.6c-.4 0-.7.1-1.1.1.1 0 .3 0 .4.1-.5.1-1.1-.1-1.6.1 0-.1.9-.1.9-.2h-.5c-.1 0-.3 0-.5.1l-.1-.1c1.6 0 3.1 0 4.7-.1.6 0 1.1-.1 1.6 0 .6.1.9 0 1.3 0h.5c.3.1.5 0 .8 0 .1 0 .2 0 .5.1h-2.2v.3c0 .1.5.2-.1.2s-1.1 0-2-.1c.7 0 1.1-.1 1.6-.1 0-.1-1.5-.1-.9-.3-1.4-.1-2.6-.1-3.9-.1z" class="st0"/><path d="M78.2 6.9c-.6 0-1 0-1.4.1h-.1l-.2-.2c-.1 0-.6-.1-.2-.2.2 0-.2-.1-.3-.2 0 0 .1-.1 0-.1-.6-.1-.2-.2.2-.3 1.2 0 .8.1 1 .3.3-.1.6-.1.8-.2 0 .2.5.3-.1.5-.2 0 0 .1.1.2 0 0 .1 0 .2.1zm26 2.4c-.1-.1-.3-.1-.4-.2-.1-.1-.2-.2-.3-.2.8-.1-.2-.2-.1-.2s-.3-.1.6-.1c.2.2.4.3.5.5s0 .3 0 .5h1c-.2 0-.4.1-.7.1.1.1-.3.2.3.3.5.1-.8.2 0 .2v.3h-.7c0-.1-.1-.2-.3-.4-.2-.1-.3-.2.4-.4-.4 0-.7-.1-1.2-.1 1.1-.1 1.1-.2.1-.3.3.1.5.1.8 0zm-51.3 4.9c-.5 0-.7.1-1 .1-1.2.1-1.2.1-1.5.2.1-.2-.6-.1-1.1-.2.1 0 .3-.1.5-.1-1.3.1-2.5 0-3.6 0s-2.1.1-3.3.1c0-.1.6-.1.9-.2H48c-.5 0-.7-.1-1.1-.1.7 0 1.3-.1 1.8-.1s1 0 1.4.1h1.4c.9.1.9.2 1.4.2zm129.9.9c-.5.1-1.5.1-2 .2h-.3c-1-.1-2 0-3.1 0h-7.3c.2 0 .5 0 .6-.1.1 0-.1-.1.3 0 1.5.1 2.8 0 4.3 0h.8c.8 0 1.5 0 2.3-.1h1.1c.9.1 1.7 0 2.5 0h.8zM53.7 7.8c.5-.1.3-.2.2-.3-.2-.2-.1-.4-.1-.6.5 0 .9 0 1.4.1v-.3h.2c.2.1.4.3.6.5h-1.1c-.5 0 .5.1-.1.2-.3 0 0 .1.3.2.1 0-.1.1-.2.1h1.2c.2.1-1.4.1-2.4.1zm90.3-1h.6c.2.1-.1.2.4.3.1 0 .1.1 0 .1-.5.1-.4.2 0 .2.2 0-.2.1.4.2-.3 0-.6.1-1.1.1v.2h-.4c-.1 0-.3 0-.3-.1s0-.1.1-.2c.2-.1-.2-.1-.3-.1l-.2-.2c-.2-.1-.5-.2-.2-.4.3 0 .5.1 1 .1v-.2zM37.4 6.7c.2.1.4.1.6.2 1 0 .4-.2.8-.2.2.1.4.2.5.3.1.1 0 .2 0 .3 0 .1 0 .2-.3.3-.2.1.2.1-.1.2l-.9.3-.1-.1c0-.2-.1-.3 0-.5.1-.4-.1-.5-.5-.6-.2-.1-.1-.1 0-.2zM23 8.8h-.5c-.3 0-.5.1-.4.1h-.4c-.1 0-.2 0-.3-.1-.1 0 .4-.1 0-.2-.2 0 .2-.1.3-.2.1-.1 0-.1 0-.2.5 0 .9-.1 1.5-.1-.3.1-.5.2-.7.2h.6c-.1 0-.2.1-.4.1h1.6c.5-.1 1 .1 1.4 0 .3.2.7.1 1.3.2-.3.1-.3.1-1.7.1v.5c-1.1-.1-.6-.3-.8-.5-1 0-1 0-1.5.1zm133 4.8c-.3-.1-.5-.1-.9-.2-.1.1-.2.2-.2.3-.7-.1-1.4-.2-2.2-.3.6 0 1.1 0 1.6-.1.3 0 .7.1 1.4.1-.3-.1-.2-.2.1-.3.2.1.6.2.5.4 0 .1.2.2.3.2.1.1-.1.2.4.2-.5.1.4.2-.5.2-.6-.1-.7-.2-.7-.4h-.4c-.3 0-.2 0 .6-.1zm-72.2-1.4h1.4-1.9c-.3 0-.1-.1-.7-.1h-2.1c-.4 0-.7.1-1.2 0 .2-.1.5-.1 1-.1h5.6c-.1 0-.2-.1-.4-.1h1.9c.4 0 1-.1 1 .1h4.1H91c-.5.1-.6-.1-1 0h-1.3c-.7.1-1.6 0-2.3 0-.9.1-1.8.1-2.6.2 0-.1 0 0 0 0zm49.3 1.4c-.3-.1-.5-.1-.7-.1.1-.1.8-.1.7-.2-.1-.1.1-.1-.5-.2h-.1c.6-.1.1-.2-.2-.3-.4-.1-.4-.2 0-.3h-.7c.7-.1.2-.3.6-.4 0 .2 1.3.4.9.6.6.2.3.4.4.5 0 .1.2.1.3.2-.7 0-.2.1-.7.2zM24.3 17.7c.3 0 .4.1 1.1 0h1.7c-.7.1-1.5.1-2.3.1-.2.1-.3.2-.5.3-.5-.1-.8-.2-1.2-.2-.5-.1-1.1-.1-1.6 0-.3.1-.5.1-.9.2-.2 0-.6 0-.8.1-.1 0-.3-.1-.4-.1.8-.2 2.1-.2 3.4-.3.4 0 1 0 .5-.1 0 0 .3 0 .5-.1.2.1.7 0 .8 0l-.3.1zm1.3-3.6c-.6.1-1.2.1-1.8.2h-1.5c-.4 0 .2.1 0 .1-.1 0-.2.1-.3.1-.6-.1-1.1-.2-1.5-.2h-2c.1 0 .1-.1.3-.1 1.2 0 2.5-.1 3.8-.1h.3c.8-.1 1.8.1 2.7 0zM19 7.8c-.1 0-.3-.1-.4-.1l.1-.1c0-.1-.1-.1-.2-.2 0-.1 0-.1-.3-.2-.1 0-.2-.1.3-.2.5 0 .5-.1.1-.1-.2 0 0-.1 0-.2h.8c.3 0 .5.1.6.1.1.1.2.2 0 .4-.4.1-.3.3-.3.4-.1.1-.2.2-.7.2zm83.7 9.3c-.9.1-.5.3-.9.4l-.1-.1s.1-.1 0-.1-.1-.2-.8-.1c-.6 0-1.3 0-1.9-.1-.4 0-.7 0-1.1-.1.6 0 1-.1 1.7 0 0 0 .4 0 .6-.1.2 0 .4.1.7.1.3 0 .6-.1.9-.1-.2 0-.4-.1-.6-.1.1-.1.2-.1.2-.2.1-.1.7-.1 1.3-.1.4 0 .8.1 1.3.1-.8.1-1.2 0-1.6-.1-.2 0-.8.1-.3.2.3.1.2.2.3.3.7-.1 1.4-.1 2 0-.8.1-1.3.1-1.7.1zm-77.5-2.8c.5-.1 1.3-.1 2.1-.1v-.1c-.4 0-.6 0-1 .1l.1-.1s2.2-.1 2.3-.1h2.8-.1c-.5 0 .2.1-.5.2H27c-.5.1-1.1.1-1.8.1zm21.4-7.9c.8.2.5.3.5.5-.8.1 0 .3-.7.4-.1 0 .2.1.4.1-.7 0-1.1 0-1.1-.1.1-.2-.4-.3.3-.5.1 0 .1-.1 0-.1-.9-.1.1-.2.6-.3zM25.1 11h-.8c.1-.1.3-.2.5-.3.4.1-.1.2.8.2.4-.1-.3-.3.6-.5.2.1.3.2.5.2.2.1 1-.1 1 .1-.3 0-.8 0-1.3.1.1 0 .1.1.2.1.1.1.2.1.1.2 0 0-.4.1-.5.1s.2.1.4.1c-1.2-.1-1.2-.2-1.5-.3zm85.9 3c.2.1.4.1.6.2.6 0 1.2-.1 1.8-.1h1c.7-.1 1.5 0 2.4 0-.3 0-.6.1-.9.1-.9 0-1.9 0-2.8.1h-1.5c-.2 0-.4.1-.7.1-.1 0-.1-.1-.2-.1h-1.3.7c-.2 0-.5-.1-.7-.1.6-.1 1.1-.1 1.6-.2zm10.1 5.1v-.5c-.5.1-.8.2-1.3.2-.2-.1-.4-.3-.5-.4-.1-.2.1-.2 1.3-.2h.9c-.2.1-.3.1-.5.2.1 0 .3 0 .5.1h.2c-.7.3.1.5-.6.6zm13.7-5.9c.4.1.3.1-.1.1-.1 0-.8 0-.3-.1.1 0 .2-.1 0-.1-.6-.1-.2-.2-.4-.3h.7c0 .1.4.2.9.2h1.7c1.1 0 2.1-.1 3.2-.1.3 0 .5 0 .9-.1v.1c-1 0-1.8.2-3 .1h-1.8c-.4.2-1.1.2-1.8.2zM50 17.8c.3 0 .6 0 .6.1.2.1.4.1.9.1.6 0 .9.1.9.1v.3c-.4 0-.6 0-1 .1-.1 0-.2-.1-.4-.1-.5-.1 0-.2-1-.3v-.3zM72.3 6.2c1.1.2.9.5.9.7 0 0-.4.1-.7.1-.6-.2-.9-.5-.7-.7 0 0 .3 0 .5-.1zm-47.7 9c-.1-.1-.1-.2-.6-.3-.2 0 .1-.2.3-.2 1 0 .4-.1.7-.2h-.7s0-.1.1-.1h.5c.5.1.9.1 1.3.2.3-.1.6 0 .7 0s.1.1.1.1c-.4-.1-.7-.1-1.1-.1-.7.1-.8.1-1.2.2h1.5-.1c-.6.2-.4.4-1.5.4zm8.1 1.5c-.1 0-.1.1-.2.1-.7.1-.7.2-.5.2.1.1.1.1-.2.2-.4.1-.3.1.5.2-.3 0-.6 0-1 .1-.1 0-.4-.1-.4-.1-.1-.2-.1-.3 0-.5 0-.1.3-.1.4-.2h1.4zm53.9-6.8c.4 0 .7-.1 1.1-.1.5 0 .4 0 .3.1-.2.1-.7.2-1.3.3.3.1.6.1 1.2 0h1.2c-1.1.1-1.9.2-2.7.3-.1-.1-.3-.1-.4-.2.8-.1-.1-.1 0-.2.1 0 .2-.1.3-.1.2 0 .3 0 .3-.1zm97.9 2h1.4c-.4-.2-1.5-.1-2.2-.1h1.3c.4-.1.9-.1 1.5 0 .5-.1 1 0 1.6 0-.5 0-1 .1-1.5.1.1.2.2.3.4.5-.6-.1-.6-.1-.6-.2s-.1-.2-1-.2c-.6 0-.9-.1-.9-.1zM86.2 6.4c.6 0 .7.1.7.2v.5c0 .1.1.1.2.2-1.4 0-2.9.1-4.5 0h1.3c.6 0 .5-.1 1.2-.1h1.3v-.1h-1.7 1.2c.1 0 .3-.1.4-.1s.2-.1.1-.1c-.5-.3 0-.4-.2-.5zm58.2 4.1c-.1-.1-.2-.1-.2-.2.4 0 1.2 0 1.1.1-.1.1 0 .1.3.1.5 0 1.1 0 1.5-.1l.2.2h.2l.2-.2c.3.1.5.2.8.4-.2.1-.8-.1-1.1 0-.3 0-.5-.1-.8-.1-.2 0-.4.1-.7.1-.2 0-.3-.1-.5-.1-.4-.2-.7-.2-1-.2zM70.9 6.3c.9.3.3.6.5.9h-1s-.1-.1 0-.1c.4-.1.4-.1.2-.2-.7-.2-.1-.3-.3-.5.1 0 .4 0 .6-.1zm83.3.6v.4h.2c.2-.1.4-.2.7-.2h.2v.2c0 .1-.2.2 0 .2.4.1-.3.1-.2.2-.5-.2-1-.3-1.4-.5-.1 0-.3-.1-.2-.1.7 0 .2-.1.7-.2zm-23.3 10.4c-1.2 0-.2-.1-.8-.2-.1.1-.1.2-.2.3-.5-.2-.9-.3-1.2-.4-.1 0-.1 0 .7-.2.5 0 .1.1.4.2h.7c.5.1.5.1.4.3zM40.2 7.2c.3-.1.2-.3.1-.4-.1-.1.4-.2.4-.3h.7v.6c0 .1 0 .1-1 .1h-.2zm52.8 3c1.7-.1 2.1-.1 1.6-.3-.2-.1-.1-.1-.2-.2h2.1c.1.1 0 .2.1.4-.7-.1-.7-.1-.8-.3-.7.1-.9.1-.5.3.4.1.3.2-.3.2-.5 0-.5 0-2-.1zm9.2 7.5c1 .1-.2.2.4.2.4.1.6.1.6.2s.1.2.2.3c-.3 0-.7.1-1.3.1v-.3c0-.1.1-.2-.1-.3-.3 0 .1-.1.2-.2zm79.9-6.6c-.6 0-1.1.1-1.6.1-.3 0-.5 0-.6.1s-.4 0-.7-.1h-3v-.1c1.9.1 3.8 0 5.9 0zm-73.5-2.3c.4.2.7.3.5.5-.1.1.2.1.6.1v.3c-.2 0-.5 0-.8.1-.1-.1-.3-.1-.4-.2.9 0-.5-.1.3-.2-.8-.1.1-.2-.7-.3.1-.2.3-.2.5-.3zm-97 4.6c1.4 0 2.2-.1 3.3-.1.7.1 1.8.1 2.9.1-.3 0-.6.1-.9.1h-4c-.6 0-.7-.1-1.3-.1zm96.4-.8c.6 0 1.1 0 1.4-.1-.6-.1 0-.2-1.2-.2h-.2c.5 0 1-.1 1.8-.1 0 .1.1.1 0 .2-.1 0 .9.1 0 .1h4-3.4c-.3.1-.7.1-1.1.2-.2-.1-.5-.1-1.3-.1zm41.8 1.9c0-.1-.8-.1-1.3-.1h.8c.1-.1-.7-.1-.2-.2.1 0 .3 0 .6.1-.3-.1.4-.2-.7-.2-.1 0-.2-.1-.1-.1.2 0 .4-.1.9-.2.2.3 1.2.5 0 .7zm-26.5-4l-.1-.1H122c-.2.1-.6.2-1.4.1-.8 0-.9-.1-1.5-.2 1.4 0 2.6 0 3.7-.1.5 0 1 0 1.1.1.1 0-.2.1-.3.2-.1.1-.2 0-.3 0z" class="st0"/><path d="M120.7 20c-.3 0-.6 0-.6-.1.1-.2-.4-.3.3-.5.1 0-.1-.1-.2-.2-.2-.1-.5-.2.5-.3 0 .1-.1.2 0 .3.1.1-.4.3.3.4-.4.1-.2.2-.3.4zM26.1 9.2c.8.2.8.2-.3.4-.4-.1-.8-.1-1.3 0 0-.1-.1-.2 0-.3 0 0 .2-.1.9-.1.1.1.5 0 .7 0zm130.7 5.7c.9.1 1.2.2.6.4.2 0 .5 0 .8.1h-2.9c-.2 0-.4-.1-.7-.1.1 0 .2 0 .4-.1.3 0 .5.1.8.1h1.2c-.1-.1-.6-.2-.2-.4zm-49.4-9.1h.9c.6.1.6.1.5.6h-.5l-.2-.2c-.1 0-.4 0-.6-.1.7-.1-.3-.1-.1-.1.1-.1 0-.1 0-.2zm-79.3 6c-.3 0-.6 0-.9.1-.3 0-.7-.1-1.4-.1-.3 0-.8 0-.8-.1s.1-.2.3-.2c.1 0 .5-.1 1-.1v.4c.2-.1 1.5 0 1.8 0zm107-4c-.3-.2-1.7-.5-.4-.8v.3c.6 0 1 .1 1.6 0h.2v.1h-1.3c0 .1 0 .2-.1.4zM88 18.7c-.4 0-.7 0-.7-.1.1-.1-.3-.2.2-.3.1 0-.1-.1-.1-.1-.1-.1-.2-.2-.1-.3 0 0 .5-.1.8-.1.6.2-.2.3-.2.4.1.1.1.3.1.5zm4.1-.1c-.5 0-1 .1-1.7.1 0-.1-.1-.2 0-.3.2-.1-.5-.2-.1-.2.3-.1.1-.2.1-.3.3.1.3.1.4.1.1.1.2.3.4.4h.3c.6.1.3.2.6.2zm-82-4c-.2 0-.5-.1-.8-.1 1-.1 2.3-.1 3.6-.1-.3.1-.6.1-.8.1h1.4c-.8 0-1.2.1-1.7.1h-1.7zm114 1.4c.2.1.4.1.7.2.5 0 1 0 1.6-.1-.1.1-.3.1-.6.1-1.5 0-2.8 0-4.2.1 0-.2 1.4-.1 2.1-.2h-.7c-.1 0 .1 0 .1-.1.6.1.6 0 1 0zm31.7-.1c.5-.1 1 0 1.7 0-.3-.1-.5-.3-.7-.4h1v.4c-.7 0-1.4 0-2.2.1-.4-.2-.4-.2 0-.3 0 .1.1.1.2.2zm-44.2-8h.6c.4-.3-.4-.6.8-.9 0 .1.1.2 0 .2-.1.1.5.1.2.2-.3 0-.2.1-.4.2-.3.1-.2.2.1.3.4-.1 0 0-1.3 0zM37.2 14s0 .1 0 0c.4.1.9.1 1.3.1h-.1c-.8.1-1.9 0-2.7.1-.4 0-.8 0-1.4.1.1 0 .1-.1.3-.1.7-.1 1.7-.1 2.6-.2zm27.2 4.1c-.2.1-.4.1-.4.1l.3.1c0 .1 0 .1-.1.2s-.3.1-.5.2c-.2 0-.5-.1-.5-.1-.1-.1 0-.2 0-.4 0-.1.4-.1.5-.2.1.1.4.1.7.1zM47 19.8c-.4-.1-.7-.1-1-.1.9-.1-.2-.3 1.4-.5l.1.1c0 .1-.4.2-.1.2.4.1-.4.2-.4.3zM69.6 17c-.3.1-1 .3-.7.4h-.7v-.1h-2.1v-.1c1.4 0 2.5-.1 3.5-.2zm47.6-11.3c.9.2 1.6.4.5.7-.1-.1-.7-.2-.5-.3.2-.1-.7-.2 0-.4zM36 7.1c.2.2.4.3.3.4-.1.1.5.2.1.3-.6-.1-.6-.1-.7-.2-.6-.1-.1-.1-.4-.2-.1 0-.3-.1-.2-.1.2-.1.5-.1.9-.2zm111.3 10.3c-.3 0-.4.1-.6.1-1.3-.1-.8-.4-.8-.5 0 0 .5-.1 1.1-.1-.2.1-.3.2-.4.3-.2.1.4.1.7.2zm-40.9-9c-.7.1-1.2.1-1.9.1h-4.4c-.4 0-.7.1-1.1.1.1-.1.5-.2 1.1-.2h6.3zm-61.3 6h.7c.2.1.5.1.6.2h1.5c-.9.1-1.8.2-2.9.1-.5-.1-.3-.2.1-.3zm127.2.2c-.2-.1-.4-.1-.5-.2-.1-.1-.7-.1-.1-.2.2 0 0-.1-.1-.2s-.3-.2-.4-.3c0 0 .2-.1.4-.1.6.2.4.3.7.5.2.2.2.4 0 .5zm-46 5.5l.1.1v.6c-.1 0-.3.1-.6.1-.2-.2-.2-.5.5-.8zm24.1-12.3c-.3-.1-.9-.2-.7-.3 0 0 .1-.1-.1-.1-.9-.1-.5-.3-.7-.5.6 0 .8.1.7.1 0 .1 0 .2.3.3.2.1-.1.2.4.3.2.1.1.1.1.2zM130.1 7c-.7.1.3.2.2.3-.1.1 0 .2-.3.3-.2 0-.4-.1-.4-.1 0-.1-.2-.1-.6-.1-.5-.1.2-.1.5-.1.4-.1-.4-.3.6-.3zm-20.7 7.4c-.6.1-1.2.2-2.4.2.2 0 .3-.1.4-.1s0-.1 0-.1h1-1.9c.4-.1.5-.1.7-.1 0 0 1.5.1 1.6.1.2-.1.4 0 .6 0zm34.1-.2c.3 0 .4-.1.5-.1h-1.3c.6 0 1.1 0 1.5-.1.3.1.5.2.5.3s0 .1.3.2 0 .1-.8.2c-.2-.1-.2-.2 0-.2.1 0 .2-.1.2-.1 0-.2.1-.3-.9-.2zm-9.2 4.1c0 .1.8 0 .3.1-.2 0-.2.1-.1.1.6.1.5.2.3.2-.4.1-.2.3-.5.4l-.1-.1v-.4c-.8 0 .6-.1-.3-.2.1 0 .3 0 .4-.1zm-12.8-4.4c0-.1 0-.1 0 0 1.7-.1 3.2-.2 4.9-.1-.1 0-.3.1-.4.1-1.5-.1-2.9 0-4.5 0zm-25.2-3.1c-.9-.1.1-.1-.2-.2-.3-.1-.5-.2-.3-.2.5-.1 0-.2.4-.2.1 0 .2 0 .4.1.1 0 .1-.1.2-.1h.5c.1 0 .1.1.2.1h.1c-.5 0-.8 0-.9.1l-.4.4zm33.3 9.2c0-.1-.2-.2.1-.3.3-.1-.2-.1-.1-.2s0-.2 0-.3c.6 0 .9 0 .7.1-.4.1-.4.2 0 .3.1 0-.3.1-.2.2.2.1.2.1.2.2h-.7zm-29.5-7.6c.5-.1.7-.1.9-.1.3-.1.6-.1 1.3 0 .3 0 .5-.1 1 0h1.1c-.2 0-.4.1-.4.1-.6-.1-1 0-1.6 0h-2.3zm-57.9 1.5c.8.1 1.8 0 2.6.1.1 0 .3.1.4.1h-1c.1 0 .2 0 .3-.1-1.3-.1-1.4.1-2.3.2-.4 0-.4-.1-.1-.1-.6-.1.3-.1.1-.2zm32.7 5.4h1.5l-.9.6-.9-.2h.3c.9-.2.9-.2 0-.4zM10 15.1c.4 0 .5-.1 1.1-.1h3.5c-.3 0-.6.1-.9.1h-2.3c-.4.1-.8 0-1.4 0zM30.1 10l.1.1h1v.1h-.9c-.1.1-.1.1-.2.1h-.3c-.7-.1-.3-.2-.3-.3 0 0 .2-.1.3-.1.1.1.2.1.3.1zM153 19.7c.4.2-.4.3-.8.4-.9-.1-.9-.1-.8-.3.8 0 1.1 0 1.6-.1zM106.3 6c.1.1.2.3-.6.4v-.2h-.2c-.1 0-.2.1-.4.1-.3-.1-.1-.2-.2-.3.6-.1 1-.1 1.4 0zm28.5 6.7c-.7 0-.9 0-1-.1 0-.1-.1-.1 0-.2s.2-.1 0-.2 0-.1.2-.2c.1 0 .4.1.4.1.1.1 0 .2 0 .2v.1c.1.3.3.3.4.3zM21.4 9h1l-.5.5h-.5V9zm133.4 3c.1 0 .2 0 .4.1h.2c.1.2.3.5.2.7-.1-.1-.3-.1-.4-.2-.1-.1-.1-.1-.1-.2s-.2-.1-.3-.2c-.2 0 .1-.1 0-.2zM15 14.5v-.1c1 0 1.9-.2 3.1 0-.8 0-2 0-3.1.1zm68.4 2.3c.4 0 .7-.1 1.3 0 .4 0 .8-.1.8-.1.5 0 .7.1.3.1-.4.1-.7.1-1.2.2h-.8c-.1-.1-.2-.2-.4-.2zm-43.8-2.4h-3.1c-.6.1-.8 0-1.1-.1 1.5 0 2.8 0 4.2.1zM58 14s0 .1 0 0c.6.1 1.2.1 1.9.1.4 0 .6 0 .5.1-1.5 0-3 0-4.5.1.1-.1.4-.1.9-.1.5-.1.8-.1 1.2-.2zm30.6-7.9c-.5.2.5.4-.1.5-.2 0-.5 0-.5-.1v-.2c0-.1-.1-.1-.5-.2-.3 0-.2 0 .4-.1.2.1.4.1.7.1zm37.9 8.3c.9 0 1.9 0 2.7-.1h1.1c-.5.1-.5.1-2.1.1-.9.2-1.1 0-1.7 0zm-66-8c1.1.1 1.1.3 1 .4h-1v-.4zm33.3 11.9c.3.1-.2.1-.5.2-.4 0-.6.1-.4.2.7.1-.1.2-.2.3-.3-.2-.2-.4-.1-.5 0-.1.8-.2 1.2-.2zm24-5.4c-.2 0-.3 0-.4-.1h-.1c.4-.1-.6-.2-.2-.4h.3c.3.1.8.1.9.2 0 .1-.3.2-.5.3zm-18.8.8c1.6-.1 3.1-.2 4.8-.1-1 .1-1 .1-1.7.1h-1.3c-.4.1-1 0-1.8 0zm39.4 5.5c1.2 0 1.3.2 2.1.2h-.9c-.7 0-1.1 0-1.1-.1-.2 0-.1 0-.1-.1zm-129-4.4c-1.2 0-2.5 0-3.9.1.2-.1.3-.1.5-.2 1.1 0 2.3 0 3.4.1zm85.3 2.7c1.1.2.5.3.8.5-.5 0-.8-.1-.8-.1v-.4zm48-6.4c.9.1.5.2.6.3-.5.1-.8-.1-1.4 0-.4 0-.3-.1-1-.1 1.1-.1 1.7-.1 1.8-.2zm20.4.9c1.4 0 2.7-.1 4.1-.1v.1c-1.3.2-2.7 0-4.1 0zm-16.5 4.4c-.4.1.6.3-1.1.4-.1-.1-.3-.2.2-.3.1 0 .1 0 0-.1 0 0-.1 0-.1-.1.2.1.5.1 1 .1zM34.9 18.3h.9v.3c-1.6-.1-1.7-.1-.9-.3zM106 7.8c0-.1-.1-.1 0 0 .7-.1 1.4-.2 2-.1h2.9c-1.6 0-3.3 0-4.9.1zm30.2 8.5c-.3-.1-.5-.1-.7-.2-.9.1-.4-.1-.9-.1h.8c.2 0 .4 0 .6-.1h.2c-.3 0 .7.1.1.1h.1c1.2 0 .5.1.1.1 0 .1-.2.2-.3.2z" class="st0"/><path d="M68.9 16.8c0 .1.3.1-.3.1-.7 0-.8.1-.6.2-.9-.1-1-.1-.6-.2.1-.1.8-.1 1.5-.1zM67 6.9c-.6-.2-1.2-.3-.8-.5h.4c.2.1.9.3.4.5zm-44.6 6.6c-.5 0-.9.1-1.3.1-.2 0-.3 0-.6-.1.4-.1.3-.2 1.3-.2.3.1.5.1.6.2zM104.6 8c.8 0 1.2-.1 1.6-.1h3.7c-.5 0-1 .1-1.4.1-.7-.1-1.1 0-1.8 0h-2.1zm-30.1 8.4c-.3.1-.4.1-.5.1-.7 0-1.5 0-2 .1h-1.2c.1-.1 1.2-.1 1.5-.1.5-.1 1.2-.1 2.2-.1zM115.8 9v.2c.3-.1.5-.1.8-.1l.6.3c-.7 0-1.2 0-1.8-.1V9h.4zM111 7.8c-.4 0-.7.1-.9.1h-5.2 5.5c.1-.2.3-.1.6-.1zM41.9 17c-.9 0-1.7 0-2.4.1-.1-.2.2-.2 1.3-.2h.9c.1 0 .1.1.2.1zM67.5 6.5h1c.1.1.3.2.4.4-.6 0-.7-.1-1.3-.2.3 0 0-.1-.1-.2zm67.3 7.1c-.5.1-.8.1-.9.1-.1 0-.2.1-.3.1-.8-.1-.5-.2-1.1-.3.8.1 1.4.1 2.3.1zM18.3 11.4c.6.1-.4.3 1 .4h-1.1c-.1-.1-.5-.1-.3-.2.3 0 .3-.1.4-.2zm63.8-5.5c.6 0-.2.2.8.1.3.1.3.1 0 .2-.2 0-.5.1-.8.1v-.4zm102.2 7.4c.3.2.5.3.8.4-.3 0 .1.1-.8.1-.1-.1.1-.2-.3-.3-.3-.1.1-.1.3-.2zm-98.4 3.1c-.1 0-.3.1-.3.1-.1 0-.1 0-.3.1-.2 0-.3-.1-.5-.1h-1c-.6.1-.7 0-1.1-.1.5-.1 1.2 0 1.6-.1.5.1 1 .1 1.6.1zm-44 3c.2-.1-.8-.1-.2-.2.4-.1.3-.1 1-.1 0 .1-.3.2-.8.3zm-9.1-7.1c-.8.1-1.3.1-2.1.1-.2 0-.4-.1-.6-.2.7 0 1.6.1 2.7.1zm82.2-1.4c-.2 0-.3 0-.5-.1-.1 0-.2.1-.2.1-.8 0-.6-.1-.6-.2.4 0 1.3 0 1.2-.1.3.1.2.1.1.3zm-98.6 1.3c-1.2.1-1.1-.1-1.5-.1.4 0 .7-.1 1.1-.1.8 0 .3.1.4.2zm89.7.5c.3 0 .6 0 1 .1-.1.1-.3.1-.5.2h-.9c-.4-.2.1-.3.4-.3zm-56 2c-.6 0-1.1 0-1.6.1-.1 0-.4-.1-.4-.1s.4-.1 0-.1h.8c.5 0 .8 0 1.2.1zm-29.5-2.5c1.3 0 2.6 0 3.9-.1-1.2.2-2.5.2-3.9.1zm151.9-.3c-1.4 0-2.6.2-4.4.1 1.6-.1 2.9-.1 4.4-.1zm-67.6-1c-.2-.1-.3-.2-.5-.2h2.3c.2 0 .7 0 .6.1-.5.1-1.4 0-1.9.1-.1-.1-.2 0-.5 0zm81.9 2c-.2-.2-.4-.3-.6-.5.5 0 .7 0 .8.1.2 0 .2.1.4.1s-.6.1-.2.1c.1.1-.2.1-.4.2zm-81.2.2c1.2-.1 2.3-.1 3.5-.2-.2.1-1.2.1-1.2.2h-2.3zm-71.8 4.8c-.8.2-1.9.1-2.7.1-.3 0 .1-.1.2-.1h.4c.4 0 .7 0 .6-.1h.4c.4 0 0 0 0 .1h1.1zm51-.7h-1.4v.2c-.2 0-.3 0-.3-.1 0 0-.1-.1 0-.1.2-.1-.7-.1.1-.2.5.1 1.2.1 1.6.2zm-78.9-4h2.3l.1.1c-.5 0-1.1.1-1.7.1-.3 0-.5-.1-.8-.1 0-.1.1-.1.1-.1zM20.8 10H22v.4h-.2c-.3-.1-.6-.2-1-.4zm84.3 3.6h1.1c.2.1 1 .1 1.5.1v.2c-.8 0-.5-.1-.8-.1-.4 0-.8 0-.8-.1-.1-.1-.6 0-1-.1zm-14 4.1c-.3-.1-.6-.1-.9-.2.1-.1.5-.1 1-.1.3 0 .6.1.7.1.1.1-.3.2-.8.2zM14 9.1c.6 0 .9 0 .7.1-.3.1-.3.2-.4.3 0 0-.5.1-1 .1.2-.1.2-.1.3-.2.1 0 .3-.1.3-.1.1-.1.1-.1.1-.2zm45.8 5.7c-.6.1-1.2.1-1.8 0 .4 0 .9-.1 1.4-.2.2 0 .5.1.7.1-.1 0-.2.1-.3.1zm70.9 3.8c-.3-.1.1-.2-.4-.3-.1 0 .3-.1.5-.2.7.2.7.3-.1.5zM15.4 10c-.4-.1.8-.1.8-.2.8 0 1 .1.8.2h-1.6zm102.4-.2c.3.2 0 .3.3.5h-.5V10c-.4 0-.7-.1-1.2-.1.6 0 1.4.1 1.4-.1zm-4.8 4.1c-.6 0-1.2 0-1.7.1-.4 0-.7 0-.9-.1-.1 0 .1-.1.2-.1 0 0 0-.1.1-.1.3.2 1.3.1 2.3.2zm-98.3-.3c-.4.1-.4.1-1 .1h-1.9c.8-.1.8-.1 2.9-.1zm85.5-.5c-1.2 0-1.2 0-2.2.2-.2 0-.5-.1-.8-.1.7-.2.7-.2 3-.1zm58.7-2.7c-1.6.1-1.6.1-2.6-.1.3-.1.7-.1 1 0 .4.1 1 .1 1.6.1zm25.9 0H181c-.2 0-.7 0-.7-.1 1.5 0 3 .1 4.5.1zm-34.9-2.5c1.2.1.9.3 1.4.4 0 0-.2 0-.5.1-.3-.1-.5-.3-.9-.5zM51.7 8h-.6c-.2-.1-.3-.2-.5-.3h.6c.2 0 .3.1.3.1.2 0 .2.1.2.2zm79 2.1c.1.1.2.2.4.3-.7-.1-.8-.1-.8-.2s-.8-.1-.3-.2c.4 0 .8.1 1.2.1h-.5zM115.1 20v.4h-.6c0-.1-.1-.2 0-.3 0-.1.3-.1.6-.1zm41.8-5.3c-.3 0-.6 0-1-.1.2-.1.4-.1.6-.2.3.1.7.1.8.2.1 0-.2.1-.4.1zM85 6.4l.6-.3c.3.1.5.1.8.2-.2 0-.4.1-1.4.1zm67.4 6.6c.8 0 1.1.1 1.1.1 0 .1-.4.1-.7.2-.5-.1-.3-.2-.4-.3zm-49.3-2.8c-.1.1-1.3.1-.3.2-.2 0-.4 0-.5.1-.3-.1-.6-.2-1-.2.6-.2 1.2-.1 1.8-.1zm-67.6 7.1h1c-.4.1-.4.2-1.2.2-.7-.1.4-.2.2-.2zM3.7 16c-1.3.1-2.3.2-3.7.1.5 0 .8-.1 1.1-.1h2.6zM163 12.6c.4-.1.7-.2 3.2-.1-1 0-2 .1-3.2.1zm-21.4-5.4c.6.1 1 .1.3.2.3 0 .5.1.7.1h-.8c-.4 0-.3-.1-.2-.3zm44.7 4h-.5c-.4 0-.9.1-1.1.1h-1.2c.4 0 .8 0 1.2-.1h.7c.3-.1.6-.1.9 0 0-.1 0-.1 0 0zM83.4 16.8c-.3 0-.7 0-1.1.1-.2 0-.5-.1-.7-.1.1 0 .5 0 .8-.1.3 0 .7 0 1 .1zM61.2 7.3c.3.1.6.2.7.2 0 .1-.4.1-.3.2.5.1-.3.1.1.2h-.5v-.6zm23.1-.5h-.4c-.1 0-.2.1-.4.1v-.4c.7 0 .6.1.8.3zm68.1 11.8c-.5-.1-.8-.2-1.2-.3h1.2v.3zm-22.3-8h.8c.1.1 1.2.1.8.3-1.1-.1-1-.3-1.6-.3zm8.5 7.9c.7.1.7.2-.1.4 0-.2-.7-.3.1-.4zm-80.9.4v-.4h.5c.5.2-.2.3-.5.4zm94.4-2c-.3.1-.7.1-1.3.1v-.2c.5 0 .9.1 1.3.1zm-37.7-7.3c0-.1 0-.2-.3-.2-.2 0-.1-.1.7-.1 0 .1 0 .2.3.2.1.1.1.2-.7.1zm26.2.9v-.4c.4.1.7.2 1.1.2-.4.2-.6.2-1.1.2zM127.9 17c-.2-.1-.4-.1-.6-.2h-1.2 2v.2h-.2zm-18.6-6.8c.8.1.2.2.3.3h-.4c-.1-.1 0-.2.1-.3zm31.8-2.7c-.8-.1-.6-.2-.6-.4 1.2.1.4.3.6.4zM6.2 13.8h2.2c-.1 0-.2.1-.3.1-.6 0-1.2.1-1.7 0-.2 0-.2 0-.2-.1zM129.7 6c-1.1 0-.9-.1-.8-.2h.5c.2 0 .8.1.3.2zm-41.9 8.1c-1 0-1.8.1-2.6.1.4-.1.7-.1 1.1-.1h1.5zm22.5 4.4c-.5-.1-.5-.1-.4-.3h.6c.1.1 0 .1 0 .2 0 0-.1.1-.2.1zm-17.9 1.4c.5.1-.5.3-.3.4-.4-.2-.4-.3.3-.4zm66.9-4.9h-1.5c0-.1 1-.1.3-.2.2 0 .3 0 .6-.1l.6.3zm-51.6 2.1h-3.1c1-.1 2-.2 3.1 0zm-64.6-.4c.5.1.5.1.5.3h-.5c.2 0 .2-.1 0-.1-.4 0-.3-.1 0-.2zm16.7.1c-.4.1-.7.1-1 .2h-.4c-.2 0-.3 0-.5-.1.6 0 1.1-.1 1.9-.1zm113.4-4.9c.5 0 .9-.1 1.3-.1.3 0 .7 0 1-.1.3.1.3.1-.2.1-.7.1-1.3.2-2.1.1zm-44.5-2.5h.8c0-.1.1-.1.1-.2h.2l.6.3c-.6 0-1 0-1.7-.1zm-5.5 8.9v.2h-1c.3-.1.5-.1 1-.2zm38.5-2.9c1 0 2 0 3.3-.1-1.1.2-2.3.1-3.3.1zm9.6-2.1c.9.1.4.2.6.3h-.4c-.7 0 .1-.2-.6-.2.1 0 .2-.1.4-.1zm-31.9.8c-1-.1-.5-.2-.7-.3.9 0 .9 0 .8.1-.1.1-.1.1-.1.2zM63 19.2c.3 0 .6 0 1-.1v.2c-.9 0-1.1 0-1-.1zM91.6 16h1c-.4 0-.7 0-1.1-.1l.1-.1c.6 0 1.1 0 1.7.1-.1.1-.6.1-1.7.1zm4.5-10c1 0 1 0 1.4.1h-.3c-.3 0-.7 0-1.1-.1.1.1 0 .1 0 0zm24.3 1.2h-.6c-.1-.1-.2-.3.5-.4.1.1.3.1-.1.2-.5.1.5.2.2.2zm-11.3 1.4c-.3.1-.5.1-.9.2-.1-.1-.2-.1-.2-.2h-1.6c1.3-.1 1.3-.1 2.7 0zM93 12.8h.6v.3H93v-.3zm-.1-6.6c-.7-.1-.7-.2-.6-.3 1.2 0 .3.2.6.3zM77.1 20.1c-.3-.1 0-.2.3-.3h.4c.1 0 .2 0 .2.1-.2 0-.5.1-.9.2zm-60.3-2.2h2c-1.6.1-1.6.1-1.8.3-.4-.1-.1-.2-.2-.3zm121.6 2h.7c-.2.1.3.2-.7.3v-.3zM56.1 18c.2 0 .3 0 .5.1-.1 0-.2.1-.4.1h-.7c0-.1-.1-.1.6-.2zm83.4-.7c-.6 0-1-.1-1.6-.1 0 0-.1 0-.2-.1h.2c.5 0 1 0 1.4.1.1 0 .1.1.2.1zm-105 1.6c.6 0 1 .1.7.1-.1 0 0 .1-.7.1v-.2zm-11.3-1.4v-.2c.3 0 .6 0 1.1-.1-.3.1-.5.2-.8.3h-.3zm107.4 2.2v-.4h.6-.2c.1.3.1.3-.4.4zm13.2-13.9c-1.3-.1.1-.2 0-.3.1.1.1.1.3.2.2 0-.1 0-.3.1zm-1.4 4.2c-.4-.2-.8-.3-.3-.5.1.2.8.3.3.5zM107 9.6c.2-.1.3-.1.5-.2.4.1.8.2.5.3-.4 0-.7 0-1-.1zm38.4.2c-.7-.1-.7-.1-.5-.3h.5v.3zm35.3 5.2c1.1 0 2.2-.1 3.4-.1-1.1.1-2.2.1-3.4.1zm6.9-1.5h-.7c.2-.1-.3-.2.7-.3v.3zM113.7 9v.3h-.9c-.1 0 .6-.1 0-.1h.6c.1 0 .1-.1.2-.1-.1-.2 0-.1.1-.1zM12.6 14c-1.1.1-2.2.1-3.3.1 1.2 0 2.1-.1 3.3-.1zm-1.8 1.5c.5-.1 1.4-.1 2.1-.1v.1h-2.1zm-3.5.1H5.2c.6 0 1-.1 1.3-.1.7 0 .7 0 .8.1zm-1.6.4c.5 0 .8-.1 1.1-.1.4 0 1 .1 1.6.1H5.7zm33.4-7.6c.5 0 .4-.1 1-.1.4.1.8-.1 1.2 0 .6-.1.5 0 .7.1h-2.9zM141.3 10c1.3.1 1.3.1 1.1.3-.3-.1-.6-.2-1.1-.3zm-26.5 1.8c-.7.1-1.6.1-2.6.1.8-.1 1.6-.1 2.6-.1zm-27 5.2c-.3 0-.6 0-.9-.1.2-.1.3-.1.5-.2.3.1.9.2.4.3zm70.2-3.4c-.9 0-.3-.2-1-.2h1.5c-.6.1-.6.1-.5.2zm-8.2.2c-.2-.1-.8-.2-.4-.4.6.2.6.2.4.4zM39.3 18.7c.2-.1.6-.1 1.2-.2.2.1-.2.2-1.2.2zm53.1-8.3h-1.5v-.2c.5 0 .7.1.4.1.3 0 .6 0 1.1.1zm-66.3 2.7c1.7 0 1.7 0 2 .1-.7 0-1.4.1-2-.1zm87.9-3v.4c-.3-.1-.5-.2-.6-.3-.1 0-.1-.1.6-.1zm-17.6 2.8c.1 0 .4.1.3.1-.3.1-.8.1-1.5 0 .4 0 .7-.1 1.2-.1zm50.6 6.4c.8 0 .5.1.6.2-1.2-.1-1.2-.1-.6-.2zm-32.2-7v-.1h2.7c-1 .1-2.2 0-2.7.1zm47.5-.2c-.7.1-1.5.1-2.3.1.6-.1 1.4-.1 2.3-.1zm-68-.1c.2 0 .3-.1.5-.1h1.1s.1 0 0 0c-.4.1-.7.2-1.6.1zM68.2 7.7H71c-.7 0-1.4 0-2.4.1 0-.1-.2-.1-.4-.1zm-3.9 0V8h-.2c-.1 0-.5-.1-.4-.1.5 0 0-.1 0-.1-.1-.1.4-.1.6-.1zm25.1-.4v.2h-.2c-.1 0-.1 0-.2-.1l-.1-.1h-2c1 0 1.8.1 2.5 0zM17.3 8.4c-.3.1-.5.1-.7.1s-.3.1-.5.1c-.6-.1-.6-.1 1.2-.2zm70.4 9.3v-.3c.8.1.8.1 0 .3zm58.8-.1h.6v.2h-.6v-.2zM27.1 15.3v-.2h.9v.1c-.2 0-.6 0-.9.1zm-5.9 0c-.3 0-.6 0-.9-.1.3-.1.5-.1.8-.2.6.2.6.2.1.3zm120.6-.8h-.9c.4-.1 0-.1-.1-.2h1c-.1.1-.4.1 0 .2zm-46 3.6c-.2.1-.4.1-.5.2h-.2c-.5-.1-.5-.1.1-.2h.6zm-8.5-8.4c.2-.1.6-.1 2.4-.1h-1.2c-.5 0-.7.1-1.2.1zm-59.6.2c.9 0 1.7.1 2.6.1-.9 0-1.8 0-2.6-.1zm45.6 8.7v-.3h.6c-.1.1-.3.2-.6.3zm60.8-8.8v.2s.2 0 .2.1c-.4 0-.8 0-1.3-.1.1 0 .1-.1.2-.1.2 0 .4 0 .9-.1zm15.3 4c-.4 0-.8 0-.8-.1-.2-.1-.7-.1.1-.2.2.1.4.2.7.3zm-20.7-.1c-.4-.1-.4-.1-1.5-.1h3-1.2c-.1 0-.2.1-.3.1zm-8.6-3.6c.6 0 .7-.2 1.6-.1-.2.1-.2.1-1.6.1zM56 9.9c-.1 0-.2-.1-.3-.1-.2 0-.6.1-.5.1.5.1.3.1-.2.1-.5-.1.3-.3-.5-.4.4 0 .1-.2.9-.1.5-.1 1.1 0 1.6 0 .2 0 .3.1.5.1-.4.1-.9.2-1.5.3zm16.1.6c.8-.1-.4 0-.3-.1 1 0 1 0 1.6.1.1-.1.3-.3-.1-.4-.3-.1.3-.1.4-.1.5.1.6.2.5.3s0 .2 0 .3c-.8 0-1.4 0-2.1-.1zm-1.6.1c.2 0 .4-.1.5-.1h.5c-.4.1-.7.2-1.5.2-.5 0-1 .1-1.4 0h.9c.1-.1.2-.2 0-.2-.3-.1-.1-.1.2-.1h.4c.4 0-.1 0-.1.1 0 0 .5.1.1.1 0-.2.2-.1.4 0zm-13.3.7c-.3 0-.6-.1-.9-.1h3c-.6 0-1.3.1-2.1.1zm12.2-1.4c.8.1 1.8 0 2.8.1h-2.8v-.1zm-9.8 1.7c-.4 0-.7.1-.9.1-.4.1-.8-.1-1.1 0-.1 0-.2 0-.2-.1 0 0 .1 0 .2-.1.6.2 1.2.1 2 .1zm7.8-1.3c.5-.1.7-.1 1-.1.5 0 .7.1.4.2-.4-.1-.8-.1-1.4-.1zm7.1.6c-.4.2-1.7 0-2.3.1 0-.1-.1-.1-.1-.1h.2c.7.1 1.3 0 2 0h.2zm-7.9-.2c.2-.1.3-.1.4-.1s.3 0 .5-.1c.2 0 .4 0 .5.1.1 0 .1 0 .3.1-.5-.1-.9-.1-1.7 0zm-20.5 2.1c1 0 2.1-.1 3 0 .7 0 1.5 0 2.2-.1h2.4c.3.1-.7.1-.9.1h-6.7z" class="st0"/></svg>