<?xml version="1.0" encoding="utf-8"?>
<!-- Generator: Adobe Illustrator 21.1.0, SVG Export Plug-In . SVG Version: 6.00 Build 0)  -->
<svg version="1.1" id="Layer_1" xmlns="http://www.w3.org/2000/svg" xmlns:xlink="http://www.w3.org/1999/xlink" x="0px" y="0px"
	 viewBox="0 0 55.1 23.6" style="enable-background:new 0 0 55.1 23.6;" xml:space="preserve">
<style type="text/css">
	.st0{opacity:0.85;}
	.st1{opacity:0.9;}
	.st2{fill:#D4D7DB;}
	.st3{fill:#A3ABB3;}
	.st4{opacity:0.9;fill:#A3ABB3;}
	.st5{opacity:0.9;fill:#B1B7BE;}
	.st6{opacity:0.9;fill:#AFB5BD;}
	.st7{opacity:0.9;fill:#CDD1D6;}
	.st8{fill:#BABFC6;}
	.st9{opacity:0.9;fill:#C5CACF;}
	.st10{fill:#B5BBC2;}
	.st11{fill:#AFB5BD;}
	.st12{fill:#E0E2E5;}
	.st13{fill:#CBD0D4;}
	.st14{fill:#CDD1D6;}
</style>
<g>
	<g>
		<g>
			<g>
				<g>
					<g class="st0">
						<g class="st1">
							<path class="st2" d="M23.8,11.1c0.2,0.2,0.3,0.5,0.4,0.8c0.3,0,0.6,0,0.9,0c0.1,0,0.3,0,0.4,0C24.9,11.7,24.4,11.4,23.8,11.1
								z"/>
							<path class="st2" d="M18.1,8.1c0.7,0.9,2.1,1,3.4,1.4C20.3,8.9,19.2,8.4,18.1,8.1z"/>
							<path class="st2" d="M13.8,13.9c0.1,0.1,0.2,0.3,0.4,0.4c0.6-0.1,1.2-0.2,1.9-0.3c-0.1-0.1-0.3-0.2-0.4-0.3
								C15.1,13.8,14.5,13.8,13.8,13.9z"/>
							<path class="st2" d="M23.8,12.8c-2.9,0.3-6.3-2.6-8.9-0.3c0.4,0.5,0.8,0.9,1.3,1.2c1.3-0.1,2.6-0.2,3.9-0.2
								c0.8-0.1,1.6-0.1,2.4,0c0.7,0,1.4,0,2,0.1c0-0.6-0.1-1.1-0.3-1.5c-0.5,0-1.1,0-1.6,0C23,12.2,23.4,12.6,23.8,12.8z"/>
							<path class="st2" d="M16.4,13.9c1.2-0.2,2.4-0.4,3.6-0.5c-1.3,0-2.6,0.1-3.9,0.2C16.2,13.7,16.3,13.8,16.4,13.9z"/>
							<path class="st2" d="M19.7,9.6c1.1,0.3,1.9,1.5,2.9,2.3c0.5,0,1.1,0,1.6,0c-0.1-0.3-0.2-0.6-0.4-0.8
								C22.5,10.3,21.1,9.3,19.7,9.6z"/>
							<path class="st2" d="M21.5,9.5c0.7,0.4,1.4,0.8,2,1.2C23,10.1,22.2,9.8,21.5,9.5z"/>
							<path class="st2" d="M22.4,13.4c-0.8-0.1-1.6,0-2.4,0C20.9,13.4,21.6,13.4,22.4,13.4z"/>
							<path class="st2" d="M11.9,14.1c0.2,0.1,0.4,0.2,0.5,0.3c0.4,0,0.7,0,1,0c0.1,0,0.2,0,0.3,0c0.1,0,0.3,0,0.4-0.1
								c-0.1-0.2-0.2-0.3-0.4-0.4C13.2,14,12.6,14,11.9,14.1z"/>
							<path class="st2" d="M9.4,10.9c0.1,0.1,0.2,0.2,0.2,0.3c0.4,0,0.8,0,1.2,0C10.3,11,9.9,10.9,9.4,10.9z"/>
							<path class="st2" d="M24.5,13.7c0-0.1,0-0.1,0-0.2c-0.7,0-1.4-0.1-2-0.1C23.1,13.4,23.8,13.5,24.5,13.7z"/>
							<path class="st2" d="M9.6,11.2c-1.5,0-3.1,0.1-4.6,0.4c1.4,0.6,2.8,1.2,4.2,1.6c0.9,0.2,1.8,0.5,2.7,1
								c0.6-0.1,1.3-0.2,1.9-0.2C12.6,12.6,11,12.9,9.6,11.2z"/>
							<path class="st2" d="M15.7,13.7c0.2,0,0.3,0,0.5,0c-0.4-0.4-0.9-0.8-1.3-1.2c2.6-2.2,6,0.6,8.9,0.3c-0.4-0.2-0.8-0.5-1.2-0.9
								c-4-0.2-7.9-0.7-11.8-0.7C12.4,11.7,14.1,12.6,15.7,13.7z"/>
							<path class="st2" d="M13.8,13.9c0.6-0.1,1.2-0.1,1.8-0.2c-1.6-1.1-3.2-2-4.9-2.5c-0.4,0-0.8,0-1.2,0
								C11,12.9,12.6,12.6,13.8,13.9z"/>
							<path class="st2" d="M15.7,13.7c0.1,0.1,0.3,0.2,0.4,0.3c0.1,0,0.3,0,0.4-0.1c-0.1-0.1-0.2-0.2-0.3-0.2
								C16,13.7,15.8,13.7,15.7,13.7z"/>
							<path class="st2" d="M25.7,12c-0.1,0-0.2,0-0.2-0.1c-0.1,0-0.3,0-0.4,0c-0.3,0-0.6,0-0.9,0c0.1,0.4,0.2,0.9,0.3,1.5
								c1.5,0.1,2.9,0.3,4.4,0.6c0.2-0.1,0.4-0.2,0.6-0.4C28.2,13.3,26.9,12.7,25.7,12z"/>
							<path class="st2" d="M16.1,14c0.1,0.1,0.2,0.1,0.3,0.2c0.1,0,0.3,0,0.4,0c-0.1-0.1-0.2-0.2-0.4-0.3
								C16.3,13.9,16.2,14,16.1,14z"/>
							<path class="st2" d="M13.8,14.4c0.1,0,0.3,0,0.4,0c0,0,0,0,0,0C14.1,14.3,13.9,14.4,13.8,14.4z"/>
							<path class="st2" d="M14.2,14.3C14.2,14.3,14.2,14.3,14.2,14.3c0.7,0,1.4-0.1,2.2-0.1c-0.1-0.1-0.2-0.1-0.3-0.2
								C15.4,14.1,14.8,14.2,14.2,14.3z"/>
							<path class="st2" d="M24.5,13.7c-0.7-0.2-1.4-0.3-2-0.3c-0.8,0-1.6,0-2.4,0c-1.2,0.1-2.4,0.3-3.6,0.5
								c0.1,0.1,0.2,0.2,0.4,0.3c0.9,0,1.8,0.1,2.8,0.3c2.2-0.1,3.9-0.4,6,0.1c0.9,0,2.2,0.1,3.3-0.5c-1.5-0.3-2.9-0.5-4.4-0.6
								C24.5,13.6,24.5,13.6,24.5,13.7z"/>
							<path class="st2" d="M34.8,10.5c-2.3,0.2-4.7,0.9-7.1,1.3c1.2,0.7,2.3,1.5,3.5,2.3c0.3,0,0.6,0,0.8,0
								c0.2-0.4,0.4-0.8,0.6-0.7c0.3,0.1,0.6,0.3,0.9,0.4c1.2-0.4,2.4-1.2,3.5-2.7C36.2,10.9,35.5,10.7,34.8,10.5z"/>
							<path class="st2" d="M30.7,14c0.3,0.2,0.6,0.5,0.9,0.6c0-0.1,0.1-0.1,0.1-0.2c-0.2-0.1-0.4-0.3-0.6-0.4
								C31,14,30.9,14,30.7,14z"/>
							<path class="st2" d="M38.1,11.4c-0.4-0.1-0.7-0.2-1.1-0.3c-1.1,1.5-2.3,2.3-3.5,2.7c0.9,0.4,1.8,0.8,2.9,0.8
								c0.6-0.3,0.8-2.5,1.3-2.3c1.8,0.9,4.1,2.8,6,0.8c2.6-0.8,6-1.4,8.2-3.4C46.4,10.7,42.2,11.7,38.1,11.4z"/>
							<path class="st2" d="M31.8,14.5c0.1-0.1,0.2-0.3,0.2-0.4c-0.3,0-0.6,0-0.8,0C31.4,14.2,31.6,14.3,31.8,14.5z"/>
							<path class="st2" d="M11.9,14.1c-0.4,0-0.8,0.1-1.1,0.1c0.6,0.1,1.1,0.1,1.7,0.1C12.3,14.3,12.1,14.2,11.9,14.1z"/>
							<path class="st2" d="M25.8,11.9c-0.1,0-0.1,0-0.2,0C25.6,12,25.7,12,25.8,11.9c0,0.1,0,0.1,0.1,0.1
								C25.9,12,25.8,12,25.8,11.9z"/>
							<path class="st2" d="M22.8,9.3c1.1,0.6,2.1,1.3,3,2.6c0.6,0,1.3-0.1,1.9-0.2C26.1,10.7,24.4,9.9,22.8,9.3z"/>
							<path class="st2" d="M25.9,12.1c-0.1,0-0.1,0-0.2-0.1c1.2,0.7,2.5,1.3,3.7,1.7c0,0,0.1-0.1,0.1-0.1c0.3-0.2,0.7,0.1,1.2,0.4
								c0.1,0,0.3,0,0.4,0.1c-1.2-0.8-2.3-1.6-3.5-2.3c-0.6,0.1-1.2,0.2-1.9,0.2C25.8,12,25.9,12,25.9,12.1z"/>
							<path class="st2" d="M23.5,10.7c0.1,0.1,0.2,0.2,0.3,0.4c0.5,0.3,1.1,0.6,1.6,0.8c0,0,0.1,0,0.1,0
								C24.9,11.5,24.2,11.1,23.5,10.7z"/>
							<path class="st2" d="M25.5,11.9c0.1,0,0.2,0,0.2,0.1C25.7,12,25.6,12,25.5,11.9C25.5,11.9,25.5,11.9,25.5,11.9z"/>
							<path class="st2" d="M9.6,11.2c-0.1-0.1-0.2-0.2-0.2-0.3c0.5,0.1,0.9,0.2,1.4,0.3c3.9,0,7.8,0.5,11.8,0.7
								c-0.9-0.9-1.8-2-2.9-2.3c1.4-0.3,2.7,0.7,4.1,1.6c-0.1-0.1-0.2-0.3-0.3-0.4c-0.7-0.4-1.4-0.8-2-1.2c-1.3-0.4-2.7-0.5-3.4-1.4
								c1.1,0.2,2.2,0.8,3.4,1.4c0.8,0.2,1.5,0.6,2,1.2c0.7,0.4,1.4,0.8,2,1.2c0.1,0,0.1,0,0.2,0c-0.9-1.3-1.9-2-3-2.6
								c1.7,0.6,3.3,1.4,4.9,2.4c2.4-0.3,4.7-1,7.1-1.3c-3.6-1-7.1-2-10.9-2.1C23,8,22.2,8.2,21.4,8.3c-1.2,0.6-2.3-1.2-3.5-0.6
								C13.2,9.6,8.4,8.9,3.7,6.5C2.9,6.1,1.9,7.4,1,8.7C0.7,9,0.5,9.5,0.4,10.1C2,10.3,3.5,10.9,5,11.6C6.6,11.3,8.1,11.2,9.6,11.2
								z"/>
							<path class="st2" d="M9.3,13.2c-1.4-0.4-2.8-1-4.2-1.6c-1.6,0.3-3.3,0.7-4.9,1.3c0,0.6,0.1,1.2,0.3,1.4
								c0.5,2.6,2-0.8,3.1-0.8c2.4-0.1,4.9,0.5,7.3,0.8c0.4,0,0.8-0.1,1.1-0.1C11.1,13.7,10.2,13.3,9.3,13.2z"/>
							<path class="st2" d="M0.4,10.1C0.2,11,0.1,12,0.1,12.8c1.6-0.6,3.3-1,4.9-1.3C3.5,10.9,2,10.3,0.4,10.1z"/>
							<path class="st3" d="M13.8,13.9C13.8,13.9,13.8,13.9,13.8,13.9C13.9,13.9,13.9,13.9,13.8,13.9C13.9,13.9,13.8,13.9,13.8,13.9
								z"/>
							<path class="st3" d="M22.4,13.4c-0.8-0.1-1.6,0-2.4,0C20.9,13.4,21.6,13.4,22.4,13.4z"/>
							<path class="st3" d="M12.4,14.3c0.4,0,0.7,0,1,0c0,0,0.1,0,0.1,0c0-0.1,0.1-0.1,0.1-0.2c-0.1-0.1-0.1-0.1-0.3-0.1
								c0.2-0.1,0.3-0.1,0.4-0.1c-0.6,0.1-1.3,0.1-1.9,0.2C12.1,14.2,12.2,14.3,12.4,14.3z"/>
							<path class="st3" d="M28.6,14.1C28.7,14.1,28.7,14.1,28.6,14.1C28.7,14.1,28.7,14.1,28.6,14.1C28.6,14.1,28.6,14.1,28.6,14.1
								z"/>
							<path class="st3" d="M28.2,14.3C28.2,14.3,28.2,14.3,28.2,14.3c0.1-0.1,0-0.2,0-0.3c-0.1,0-0.2,0-0.3-0.1
								C28,14,28.1,14.1,28.2,14.3z"/>
							<path class="st3" d="M9.4,10.9c0.1,0.1,0.2,0.2,0.2,0.3c0.4,0,0.8,0,1.2,0C10.3,11,9.9,10.9,9.4,10.9z"/>
							<path class="st4" d="M24.5,13.7c-0.7-0.2-1.4-0.3-2-0.3c-0.8,0-1.6,0-2.4,0c-1.2,0.1-2.4,0.3-3.6,0.5c0.1,0,0.1,0.1,0.2,0.1
								c0.2-0.1,0.4-0.1,0.5-0.2L17,14.1c0,0,0.1,0,0.2,0.1c0.5,0,1,0.1,1.5,0.1c0.3-0.1,0.5-0.1,0.7,0.1c0,0,0.1,0,0.1,0
								c1.1,0,2-0.1,3-0.2c0-0.1,0-0.3,0-0.4c0.2,0.1,0.4,0.2,0.7,0.4c0.5,0,1.1,0,1.6,0.1c0.1-0.2-0.2-0.7-0.1-0.8c0,0,0,0,0.1,0
								c-0.1,0-0.2,0-0.3,0C24.5,13.6,24.5,13.6,24.5,13.7z"/>
							<path class="st3" d="M16.1,14c0.1,0.1,0.2,0.1,0.2,0.2c0,0,0.1,0,0.1,0c0.1,0,0.1-0.1,0.2-0.1c-0.1,0-0.1-0.1-0.2-0.1
								C16.3,13.9,16.2,14,16.1,14z"/>
							<path class="st3" d="M28.2,13.3c-0.8-0.3-1.7-0.8-2.5-1.3c-0.1,0-0.2,0-0.2-0.1c-0.1,0-0.3,0-0.4,0c-0.3,0-0.6,0-0.9,0
								c0.1,0.4,0.2,0.9,0.3,1.5c0.1,0,0.2,0,0.3,0c0.1,0,0.2,0,0.3,0c0.9,0.1,1.8,0.2,2.6,0.3c0.1-0.1,0.1,0,0.2,0
								c0.1,0,0.2,0,0.3,0.1C28.1,13.7,28.1,13.4,28.2,13.3z"/>
							<path class="st3" d="M40.4,11.1C40.4,11.1,40.4,11.1,40.4,11.1C40.4,11.1,40.4,11.1,40.4,11.1C40.4,11.1,40.4,11.1,40.4,11.1
								z"/>
							<path class="st5" d="M34.8,10.5c-2.4,0.2-4.7,0.9-7.1,1.3c0.9,0.5,1.8,1.1,2.6,1.7c0.1,0,0.1,0,0.2,0c0,0-0.1,0-0.1,0.1
								c0.1,0.1,0.2,0.1,0.2,0.2c0-0.2,0-0.4,0-0.7c0.2,0.4,0.8,0.1,0.7,0.9c0,0,0,0.1,0,0.1c0.2,0,0.3,0,0.5,0
								c0.2-0.4,0.5-0.8,0.6-0.8c0,0,0.1,0,0.1,0c0.1,0,0.2,0.1,0.4,0.2c0,0,0,0,0,0c0.1-0.8-0.4-1.4-0.2-1.6
								c0.7-0.5,0.9,0.6,0.9,1.8c1.2-0.4,2.3-1.3,3.4-2.7C36.2,10.9,35.5,10.7,34.8,10.5z"/>
							<path class="st6" d="M40.4,11.1C40.4,11.1,40.4,11.1,40.4,11.1C40.4,11.1,40.4,11.1,40.4,11.1c-0.8,0.2-1.6,0.3-2.4,0.3
								c-0.3-0.1-0.7-0.2-1-0.3c-1.1,1.4-2.2,2.3-3.4,2.7c0,0,0,0.1,0,0.1c0.9,0.4,1.7,0.7,2.6,0.7c0.6-0.3,1.4-0.9,1.9-0.6
								c1.8,0.9,3.1,0.2,4.9-1.8c2.8,0,5.3-0.2,7.9-2.1C47.7,10.8,43.7,10.2,40.4,11.1z"/>
							<path class="st3" d="M31.3,14.2c0.1,0.1,0.2,0.2,0.3,0.2c0.1-0.1,0.1-0.2,0.2-0.3C31.7,14.1,31.5,14.1,31.3,14.2
								C31.4,14.1,31.4,14.1,31.3,14.2z"/>
							<path class="st3" d="M25.5,14.5c0.1,0,0.2,0,0.3,0c0.1-0.2,0.2-0.1,0.3,0c0.3,0,0.5,0,0.8,0c0,0,0-0.1,0-0.1
								c0,0,0,0.1,0.1,0.1c0.2,0,0.3,0,0.5,0c0-0.1,0-0.3,0-0.4c0-0.1,0.1-0.2,0.1-0.2c-0.9-0.2-1.8-0.3-2.6-0.3
								C25.2,13.7,25.4,14.1,25.5,14.5z"/>
							<path class="st3" d="M28.5,13.4c0.1,0.2,0.2,0.4,0.2,0.7c0,0,0.1,0,0.1,0c0.2-0.1,0.4-0.2,0.6-0.4
								C29,13.6,28.7,13.5,28.5,13.4z"/>
							<path class="st3" d="M31.2,14.4c0.1,0.1,0.3,0.2,0.4,0.2c0-0.1,0.1-0.1,0.1-0.2c-0.1-0.1-0.2-0.2-0.3-0.2
								C31.3,14.2,31.2,14.3,31.2,14.4z"/>
							<path class="st3" d="M24.5,13.7c0-0.1,0-0.1,0-0.2c-0.7,0-1.4-0.1-2-0.1C23.1,13.4,23.8,13.5,24.5,13.7z"/>
							<path class="st4" d="M10.8,11.2c-0.4,0-0.8,0-1.2,0c1.3,1.7,2.9,1.4,4.2,2.7c0.1-0.1,0.2-0.2,0.3-0.3
								c-0.1,0.2-0.2,0.3-0.3,0.3c0,0,0,0,0.1,0c0.6-0.1,1.1-0.1,1.7-0.2C14.1,12.6,12.4,11.7,10.8,11.2z"/>
							<path class="st7" d="M9.6,11.2c-0.1-0.1-0.2-0.2-0.2-0.3c0.5,0.1,0.9,0.2,1.4,0.3c3.9,0,7.8,0.5,11.8,0.7
								c-0.9-0.9-1.8-2-2.9-2.3c1.4-0.3,2.7,0.7,4.1,1.6c-0.1-0.1-0.2-0.3-0.3-0.4c-0.7-0.4-1.4-0.8-2-1.2c-1.1-0.3-2.3-0.5-3-1
								c-0.8-0.2-1.7-0.3-2.6,0c-0.2,0.1-0.4,0.3-0.6,0.2c-0.2,0.1-0.4,0.1-0.6,0.1c-0.2,0.4-0.7,0.2-0.9,0.3c-0.5,0.2-1,0-1.4-0.3
								c0,0-0.1,0-0.1,0.1c-0.1,0.2-0.5,0.1-0.7-0.3c-0.2,0-0.5,0-0.7-0.1c-0.1,0-0.1,0-0.2,0c-0.2,0-0.4-0.1-0.7-0.1
								c-0.1,0.2-0.2,0.1-0.3,0c-2-0.3-4.1-1-6.1-2C2.8,6.1,1.8,7.4,0.9,8.6C0.6,9,0.4,9.5,0.3,10.1c1.6,0.1,3.2,0.8,4.8,1.5
								C6.6,11.3,8.1,11.2,9.6,11.2z"/>
							<path class="st3" d="M20.8,9.2l0-0.2c-0.2,0-0.4,0-0.6,0C20.4,9,20.6,9.1,20.8,9.2z"/>
							<path class="st3" d="M15.7,13.7c-0.6,0.1-1.1,0.1-1.7,0.2c0.3,0,0.5,0.1,0.8,0.3c0.5-0.1,0.9-0.2,1.4-0.2
								C15.9,13.9,15.8,13.8,15.7,13.7z"/>
							<path class="st8" d="M23.5,10.7c0.7,0.4,1.4,0.8,2,1.2c0.1,0,0.1,0,0.2,0c-0.9-1.3-1.9-2-3-2.6c1.7,0.6,3.3,1.4,4.9,2.4
								c2.4-0.3,4.8-1,7.1-1.3c-2.1-0.6-4.1-1.2-6.1-1.6c-0.1,0.1-0.2,0.5-0.3,0.9c-1.8-2.1-3.8-0.2-5.8-1.1
								c-0.1-0.2,0.1-0.2,0.2-0.3c-0.2,0-0.5,0-0.7,0c-0.4,0.3-0.8,0.8-1.3,0.8c0.2,0.1,0.4,0.2,0.7,0.3C22.2,9.8,23,10.1,23.5,10.7
								z"/>
							<path class="st3" d="M22.8,9.3c1.1,0.6,2.1,1.3,3,2.6c0.6,0,1.3-0.1,1.9-0.2C26.1,10.7,24.4,9.9,22.8,9.3z"/>
							<path class="st3" d="M21.5,9.5c-0.2-0.1-0.4-0.2-0.7-0.3c0,0,0,0-0.1,0l0,0c-0.2-0.1-0.4-0.2-0.6-0.3
								c-0.6-0.1-1.1-0.2-1.7-0.4C19.2,9.1,20.4,9.2,21.5,9.5z"/>
							<path class="st3" d="M12.4,14.3c-0.1-0.1-0.3-0.2-0.4-0.2c-0.3,0-0.6,0.1-0.9,0.1c0,0,0,0,0,0C11.5,14.3,12,14.3,12.4,14.3z"
								/>
							<path class="st9" d="M5,11.6c-1.7,0.3-3.4,0.7-5,1.3c0,0.6,0.1,1.1,0.3,1.3c0.2,1.1,0.6,1.1,1.1,0.8c0-0.2-0.5,0-0.2-0.4
								c0.2-0.5,0.6-0.9,1-0.7c0.1,0,0.1,0.1,0.2,0.1c0,0,0.1-0.1,0.1-0.1c0-0.2,0.1-0.4,0.1-0.1c0.3-0.3,1.8,0.4,2.1,0.4
								c0,0-1.2-0.9-1.2-0.9c0.1-0.1,0.1-0.1,0.2-0.2c0,0.1,0,0.1,0,0.2c0.1,0,0.2,0,0.2,0c0.1-0.3,0.1-0.7,0.3-0.8
								c-0.1-0.1-0.1-0.1-0.3-0.1C4,12,4.4,12.2,4.7,12.3c-0.1,0.6-0.3,0.4-0.5,0.4l0.1,0.1c-0.1-0.1-0.4,0.1-0.3,0.4
								c0.1,0.3,0.3,0.1,0.4,0c0,0,0.1,0,0.1,0c0,0,0,0,0,0c0,0,0,0,0,0c0,0-0.1,0-0.1,0c-0.1,0-0.1,0.1-0.1,0.3c0.1,0,0.3,0,0.4,0
								c0,0,0-0.1,0.1-0.1c0,0-0.1-0.1-0.1-0.1l0.1,0.1c0,0,0,0,0,0c0.3,0.2,0.4-0.5,0.6-0.6c-0.2,0.2,0,0.6-0.1,0.8
								c0,0,0.1,0,0.1,0c0.1-0.1,0.3-0.2,0.4-0.2c0.2-0.2,0.4-0.5,0.5-0.7c0,0.5-0.1,0.7-0.2,0.8c0.1,0.1,0.3,0.1,0.4,0.2
								c0.1-0.4,0.1-0.6,0.4-0.7c0,0.2,0,0.5-0.1,0.8c0.3,0,0.5,0.1,0.8,0.1c0.1,0,0.1-0.1,0.2-0.1c0,0,0-0.3,0.2-0.2
								c-0.1,0.1-0.1,0.2-0.2,0.2v0c0.1,0.1,0.2,0.1,0.4,0.2c0.4,0.1,0.9,0.1,1.3,0.2c0,0,0-0.1,0-0.1c0,0,0,0,0-0.1c0,0,0,0,0,0.1
								c0.2,0.2,0.3-0.5,0.5-0.1L10,13.8c0.3,0.4,0.6,0,0.9-0.2c-0.5-0.2-1.1-0.4-1.6-0.5C7.8,12.8,6.4,12.2,5,11.6z"/>
							<path class="st3" d="M11.1,13.7c0,0.1-0.1,0.1-0.2,0.2c0,0.1,0.1,0.2,0.1,0.2c0.3,0,0.6-0.1,0.9-0.1
								C11.7,14,11.4,13.9,11.1,13.7z"/>
							<path class="st10" d="M13.8,13.9C13.8,13.9,13.8,13.9,13.8,13.9C13.8,13.9,13.8,13.9,13.8,13.9
								C13.8,13.9,13.8,13.9,13.8,13.9c-0.1,0-0.1,0-0.1,0C13.7,13.9,13.8,13.9,13.8,13.9C13.8,13.9,13.8,13.9,13.8,13.9
								c-1.3-1.3-2.9-1-4.2-2.7c-1.5,0-3.1,0.1-4.6,0.4c1.4,0.6,2.8,1.2,4.2,1.6c0.5,0.1,1.1,0.3,1.6,0.5c0.1-0.1,0.3-0.2,0.4-0.1
								c-0.1,0.1-0.1,0.1-0.1,0.2c0.3,0.1,0.6,0.2,0.8,0.4C12.6,14,13.2,14,13.8,13.9z"/>
							<path class="st11" d="M0.3,10.1C0,11,0,12,0,12.9c1.7-0.6,3.4-1.1,5-1.3C3.5,10.9,1.9,10.2,0.3,10.1z"/>
							<path class="st12" d="M25.9,12.1c-0.1,0-0.1,0-0.2-0.1c0.8,0.5,1.7,0.9,2.5,1.3c0,0,0,0,0,0c0.1,0,0.2,0,0.3,0.2
								c0.3,0.1,0.6,0.2,0.9,0.3c0.1,0,0.1-0.1,0.2-0.1c0.1-0.1,0.2-0.1,0.4,0c0.2,0,0.3-0.1,0.5,0c-0.9-0.6-1.8-1.2-2.6-1.7
								c-0.6,0.1-1.2,0.2-1.9,0.2C25.8,12,25.9,12,25.9,12.1z"/>
							<path class="st3" d="M25.5,11.9c0.1,0,0.2,0,0.2,0.1C25.7,12,25.6,12,25.5,11.9C25.5,11.9,25.5,11.9,25.5,11.9z"/>
							<path class="st3" d="M19.7,9.6c1.1,0.3,1.9,1.5,2.9,2.3c0.5,0,1.1,0,1.6,0c-0.1-0.3-0.2-0.6-0.4-0.8
								C22.5,10.3,21.1,9.3,19.7,9.6z"/>
							<path class="st11" d="M23.8,12.8c-2.9,0.3-6.3-2.6-8.9-0.3c0.4,0.5,0.8,0.9,1.3,1.2c1.3-0.1,2.6-0.2,3.9-0.2
								c0.8-0.1,1.6-0.1,2.4,0c0.7,0,1.4,0,2,0.1c0-0.6-0.1-1.1-0.3-1.5c-0.5,0-1.1,0-1.6,0C23,12.2,23.4,12.6,23.8,12.8z"/>
							<path class="st13" d="M16.4,13.9c1.2-0.2,2.4-0.4,3.6-0.5c-1.3,0-2.6,0.1-3.9,0.2C16.2,13.7,16.3,13.8,16.4,13.9z"/>
							<path class="st3" d="M14.7,14.2C14.7,14.2,14.7,14.2,14.7,14.2c0.5,0,1.1-0.1,1.6-0.1c-0.1-0.1-0.2-0.1-0.2-0.2
								C15.6,14.1,15.1,14.1,14.7,14.2z"/>
							<path class="st14" d="M21.5,9.5c0.7,0.4,1.4,0.8,2,1.2C23,10.1,22.2,9.8,21.5,9.5z"/>
							<path class="st3" d="M15.7,13.7c0.1,0.1,0.3,0.2,0.4,0.3c0.1,0,0.3,0,0.4-0.1c-0.1-0.1-0.2-0.2-0.3-0.2
								C16,13.7,15.8,13.7,15.7,13.7z"/>
							<path class="st3" d="M30.3,13.7c0.1,0.1,0.2,0.2,0.3,0.2c0-0.1,0-0.2,0.1-0.2c-0.1-0.1-0.2-0.1-0.2-0.2
								C30.4,13.6,30.3,13.6,30.3,13.7z"/>
							<path class="st3" d="M25.8,11.9c-0.1,0-0.1,0-0.2,0C25.6,12,25.7,12,25.8,11.9c0,0.1,0,0.1,0.1,0.1
								C25.9,12,25.8,12,25.8,11.9z"/>
							<path class="st3" d="M23.5,10.7c0.1,0.1,0.2,0.2,0.3,0.4c0.5,0.3,1.1,0.6,1.6,0.8c0,0,0.1,0,0.1,0
								C24.9,11.5,24.2,11.1,23.5,10.7z"/>
							<path class="st13" d="M23.8,11.1c0.2,0.2,0.3,0.5,0.4,0.8c0.3,0,0.6,0,0.9,0c0.1,0,0.3,0,0.4,0
								C24.9,11.7,24.4,11.4,23.8,11.1z"/>
							<path class="st3" d="M14.9,12.4c2.6-2.2,6,0.6,8.9,0.3c-0.4-0.2-0.8-0.5-1.2-0.9c-4-0.2-7.9-0.7-11.8-0.7
								c1.6,0.5,3.3,1.4,4.9,2.5c0.2,0,0.3,0,0.5,0C15.7,13.3,15.3,12.9,14.9,12.4z"/>
						</g>
					</g>
				</g>
			</g>
		</g>
	</g>
</g>
</svg>
