<?xml version="1.0" encoding="utf-8"?>
<!-- Generator: Adobe Illustrator 22.0.1, SVG Export Plug-In . SVG Version: 6.00 Build 0)  -->
<svg version="1.1" id="Layer_1" xmlns="http://www.w3.org/2000/svg" xmlns:xlink="http://www.w3.org/1999/xlink" x="0px" y="0px"
	 viewBox="0 0 3564.8 139.8" style="enable-background:new 0 0 3564.8 139.8;" xml:space="preserve">
<style type="text/css">
	.st0{fill:#414042;}
</style>
<path class="st0" d="M0,99.2c79.2,0.7,158.3-1.6,237.2-0.2c5.6,0.2,11.5,0.2,17.4,0.2c56.5,0,114,0.7,168.8-0.4
	c42.4-0.9,82.4,0,123.2-0.4c23.7-0.2,47.3-0.5,71-0.9c23.7-0.4,48.9,1.6,71.3-0.7c2-0.2,7.6,0,11.2,0c64.1,1.4,128.1-1.1,192.2,0
	c20.4,0.4,39.7,0,59.8-0.9c18.4-0.9,38.8,0.2,60.4-0.5c29.9-0.9,64.7-0.4,95.6,0.4c44,1.1,43.4,1.4,90,0.5c11.2-0.2,22.7,0,34.2,0
	c48,0.4,96.2,0.5,144.2,1.1c131.1,1.2,263.1-0.5,394.2,1.2c17.4,0.2,39.4,0,52.6-1.1c21.7-1.8,47-0.4,68.3-2
	c9.2-0.7,26.3,0,39.7,0.2c22,0.2,43.4,0.4,65.7-0.7c17.7-0.9,39.4,1.1,60.4-0.7c10.2-0.9,30.2-0.4,44.7,0
	c75.5,2.3,93.6,2.5,163.9,1.1h11.5c35.5,0.2,70.3-0.2,105.8-0.4c82.8-0.7,166.5-0.4,249.6,0.2c58.1,0.4,113.7-1.1,169.8-2.1
	c25-0.4,44.7-1.2,67.3,0.7c8.2,0.7,25,0.4,40.7,0.4c-2,1.6-0.3,3-5.6,3.5c-9.2,0.9-22.7,1.6-34.2,1.6c-37.4-0.2-72.6,0.7-107.1,2.1
	c-39.4,1.6-80.1,2.1-120.6,3.2c-5.3,0.2-11.2,0.2-15.8,0.4c-16.1,1.1-30.9,2.8-47.3,3c-44.3,0.7-89.3,0.7-134,0.5
	c-23.3-0.2-46.3-1.1-69.6-1.8c-23-0.7-47.6,0.5-71-1.6c-12.2-1.1-37.1-0.5-56.5-0.5c-17.4,0-28.2-2.7-51.2-1.2
	c-15.1,0.9-36.5,0.5-54.9,0.5c-19.4,0-40.7-0.9-57.2-0.2c-35.8,1.4-72.3,1.2-105.1,0.2c-27.3-0.9-53.9-1.4-81.8-1.6
	c-24-0.2-47-0.5-71.6,0.7c-19.1,1.1-41.4-0.2-65.4,0.7c-33.8,1.4-73.6,1.1-110.4,0.7c-100.5-0.7-201.4,0.9-301.9-0.7
	c-58.1,2-116.6,0.4-174.7,0c-28.6-0.2-55.5,0.5-79.8,1.8c-25,1.4-49.3,1.4-75.5,1.2l-530.8-3.7c-21-0.2-44.7-0.4-58.1,1.2
	c-21,2.3-43.4,2.1-68,2.1c-21.4,0-39.1-0.9-58.1-1.8c-18.7-0.9-41.1,0.5-59.1-1.6c-6.2-0.7-22-0.4-33.5-0.4
	C139.9,102.8,70,101.3,0,99.2L0,99.2z"/>
</svg>
