<?xml version="1.0" encoding="utf-8"?>
<!-- Generator: Adobe Illustrator 22.0.1, SVG Export Plug-In . SVG Version: 6.00 Build 0)  -->
<svg version="1.1" id="Layer_1" xmlns="http://www.w3.org/2000/svg" xmlns:xlink="http://www.w3.org/1999/xlink" x="0px" y="0px"
	 viewBox="0 0 1772.2 72.2" style="enable-background:new 0 0 1772.2 72.2;" xml:space="preserve">
<style type="text/css">
	.st0{fill:#414042;}
</style>
<g>
	<g>
		<g>
			<path class="st0" d="M0,56.6c24.1,0.4,48.2-0.9,72.2-0.1c1.7,0.1,3.5,0.1,5.3,0.1c17.2,0,34.7,0.4,51.4-0.2
				c12.9-0.5,25.1,0,37.5-0.2c7.2-0.1,14.4-0.3,21.6-0.5c7.2-0.2,14.9,0.9,21.7-0.4c0.6-0.1,2.3,0,3.4,0c19.5,0.8,39-0.6,58.5,0
				c6.2,0.2,12.1,0,18.2-0.5c5.6-0.5,11.8,0.1,18.4-0.3c9.1-0.5,19.7-0.2,29.1,0.2c13.4,0.6,13.2,0.8,27.4,0.3c3.4-0.1,6.9,0,10.4,0
				c14.6,0.2,29.3,0.3,43.9,0.6c39.9,0.7,80.1-0.3,120,0.7c5.3,0.1,12,0,16-0.6c6.6-1,14.3-0.2,20.8-1.1c2.8-0.4,8,0,12.1,0.1
				c6.7,0.1,13.2,0.2,20-0.4c5.4-0.5,12,0.6,18.4-0.4c3.1-0.5,9.2-0.2,13.6,0c23,1.3,28.5,1.4,49.9,0.6c1.1,0,2.3,0,3.5,0
				c10.8,0.1,21.4-0.1,32.2-0.2c25.2-0.4,50.7-0.2,76,0.1c17.7,0.2,34.6-0.6,51.7-1.2c7.6-0.2,13.6-0.7,20.5,0.4
				c2.5,0.4,7.6,0.2,12.4,0.2c-0.6,0.9-0.1,1.7-1.7,2c-2.8,0.5-6.9,0.9-10.4,0.9c-11.4-0.1-22.1,0.4-32.6,1.2
				c-12,0.9-24.4,1.2-36.7,1.8c-1.6,0.1-3.4,0.1-4.8,0.2c-4.9,0.6-9.4,1.6-14.4,1.7C772,62,758.3,62,744.7,61.9
				c-7.1-0.1-14.1-0.6-21.2-1c-7-0.4-14.5,0.3-21.6-0.9c-3.7-0.6-11.3-0.3-17.2-0.3c-5.3,0-8.6-1.5-15.6-0.7
				c-4.6,0.5-11.1,0.3-16.7,0.3c-5.9,0-12.4-0.5-17.4-0.1C624.1,60,613,59.9,603,59.3c-8.3-0.5-16.4-0.8-24.9-0.9
				c-7.3-0.1-14.3-0.3-21.8,0.4c-5.8,0.6-12.6-0.1-19.9,0.4c-10.3,0.8-22.4,0.6-33.6,0.4c-30.6-0.4-61.3,0.5-91.9-0.4
				c-17.7,1.1-35.5,0.2-53.2,0c-8.7-0.1-16.9,0.3-24.3,1c-7.6,0.8-15,0.8-23,0.7c-53.9-0.7-107.8-1.4-161.6-2.1
				c-6.4-0.1-13.6-0.2-17.7,0.7c-6.4,1.3-13.2,1.2-20.7,1.2c-6.5,0-11.9-0.5-17.7-1c-5.7-0.5-12.5,0.3-18-0.9
				c-1.9-0.4-6.7-0.2-10.2-0.2C42.6,58.6,21.3,57.8,0,56.6z"/>
		</g>
	</g>
</g>
</svg>
