<svg xmlns="http://www.w3.org/2000/svg" id="Layer_1" viewBox="0 0 1772.2 72.2" width="1772.2" height="72.2"><style>.st0{fill:#414042}</style><path d="M0 56.6c24.1.4 48.2-.9 72.2-.1 1.7.1 3.5.1 5.3.1 17.2 0 34.7.4 51.4-.2 12.9-.5 25.1 0 37.5-.2 7.2-.1 14.4-.3 21.6-.5 7.2-.2 14.9.9 21.7-.4.6-.1 2.3 0 3.4 0 19.5.8 39-.6 58.5 0 6.2.2 12.1 0 18.2-.5 5.6-.5 11.8.1 18.4-.3 9.1-.5 19.7-.2 29.1.2 13.4.6 13.2.8 27.4.3 3.4-.1 6.9 0 10.4 0 14.6.2 29.3.3 43.9.6 39.9.7 80.1-.3 120 .7 5.3.1 12 0 16-.6 6.6-1 14.3-.2 20.8-1.1 2.8-.4 8 0 12.1.1 6.7.1 13.2.2 20-.4 5.4-.5 12 .6 18.4-.4 3.1-.5 9.2-.2 13.6 0 23 1.3 28.5 1.4 49.9.6h3.5c10.8.1 21.4-.1 32.2-.2 25.2-.4 50.7-.2 76 .1 17.7.2 34.6-.6 51.7-1.2 7.6-.2 13.6-.7 20.5.4 2.5.4 7.6.2 12.4.2-.6.9-.1 1.7-1.7 2-2.8.5-6.9.9-10.4.9-11.4-.1-22.1.4-32.6 1.2-12 .9-24.4 1.2-36.7 1.8-1.6.1-3.4.1-4.8.2-4.9.6-9.4 1.6-14.4 1.7-13.5.4-27.2.4-40.8.3-7.1-.1-14.1-.6-21.2-1-7-.4-14.5.3-21.6-.9-3.7-.6-11.3-.3-17.2-.3-5.3 0-8.6-1.5-15.6-.7-4.6.5-11.1.3-16.7.3-5.9 0-12.4-.5-17.4-.1-10.9.8-22 .7-32 .1-8.3-.5-16.4-.8-24.9-.9-7.3-.1-14.3-.3-21.8.4-5.8.6-12.6-.1-19.9.4-10.3.8-22.4.6-33.6.4-30.6-.4-61.3.5-91.9-.4-17.7 1.1-35.5.2-53.2 0-8.7-.1-16.9.3-24.3 1-7.6.8-15 .8-23 .7l-161.6-2.1c-6.4-.1-13.6-.2-17.7.7-6.4 1.3-13.2 1.2-20.7 1.2-6.5 0-11.9-.5-17.7-1-5.7-.5-12.5.3-18-.9-1.9-.4-6.7-.2-10.2-.2-21.9 0-43.2-.8-64.5-2z" class="st0"/></svg>