<?xml version="1.0" encoding="utf-8"?>
<!-- Generator: Adobe Illustrator 21.1.0, SVG Export Plug-In . SVG Version: 6.00 Build 0)  -->
<svg version="1.1" id="Layer_1" xmlns="http://www.w3.org/2000/svg" xmlns:xlink="http://www.w3.org/1999/xlink" x="0px" y="0px"
	 viewBox="0 0 506.9 160.3" style="enable-background:new 0 0 506.9 160.3;" xml:space="preserve">
<style type="text/css">
	.st0{fill:#EAA1B1;}
</style>
<g>
	<path class="st0" d="M493.3,108c0,4.3-3.6,7.8-8,7.8s-7.9-3.5-7.9-7.8c0-4.4,3.5-7.9,7.9-7.9C489.7,100.1,493.3,103.6,493.3,108z"
		/>
	<g>
		<path class="st0" d="M93.2,20.5l-20.5,94.8H54.2l10.2-47c-2.8-1-5.6-1.3-8.2-1.3c-2.4,0-4.9,0.3-7,0.5l-10.3,47.8H20.4L39,29.2
			C27.7,33.8,21,43.5,21,57c0,6.5,1.7,7.5,1.8,8.6C13.9,65.6,9,62.4,9,53.3c0-16.8,23.7-32.9,45.1-32.9c1.8,0,3.5,0.1,5.1,0.2
			L51,59.1c4.4-0.7,8.8-1.7,12.9-1.7c0.8,0,1.9,0,2.8,0.1l7.9-37C74.6,20.5,93.2,20.5,93.2,20.5z"/>
		<path class="st0" d="M104.1,99.5c-0.3,1.2-0.5,2.3-0.5,3.3c0,2.1,0.8,3.7,3.6,3.7c0.7,0,1.8,0,2.6-0.3c-2.8,8.5-7,9.1-10.4,9.1
			c-7,0-10.2-4.6-10.2-10.9c0-1.6,0.2-3.2,0.6-4.9L97,66h14.3L104.1,99.5z"/>
		<path class="st0" d="M192.9,34.7c0-4.4-2.6-8.5-9.4-8.5c-7.1,0-12,4.1-12,11c0,19.9,29,21.1,29,49.3c0,17.9-13.4,29.5-34.1,29.5
			c-10.3,0-28.4-2.2-28.4-20.4c0-11.9,9-18.3,18.9-18.3c5.8,0,9.4,1.9,10.4,6.5c-10.4,0.9-15.1,5.2-15.1,13.9
			c0,8.5,6.7,12.1,12.8,12.1c10.1,0,14.1-8.7,14.1-18.1c0-23.8-27.8-29-27.8-47.9c0-13.3,15.3-23.5,30.6-23.5
			c6.8,0,21.6,1,21.6,15.2c0,7.2-4,12.8-10.7,12.8c-2.1,0-4.1-0.8-5.8-2.7C190.6,43.6,192.9,38.9,192.9,34.7z"/>
		<path class="st0" d="M268.3,80c-5.6,0-2.8-6.5-5.8-6.5s-4.6,1.1-6.9,3.2l-8.3,38.6h-14.4l2.1-9.6c-5.1,4.8-11.1,9.6-15.8,9.6
			c-7.7,0-12.4-3.3-12.4-10.7c0-5.2,5.2-26.1,6.9-34.6h-3.3l0.8-4h3.3l3-13.6l14.8-2c0,0-1.5,6.7-3.4,15.6h6l-0.8,4h-6
			c-6.9,31.1-6.8,32.1-6.8,32.6c0,2.2,1,3.8,5,3.8c3,0,6.6-3,9.8-5.8l7.4-34.6h14.4l-1.1,4.9c3.6-2.8,7.6-4.9,11.8-4.9
			c4.5,0,7.2,2.5,7.2,6.3C275.8,75.8,273.2,80,268.3,80z"/>
		<path class="st0" d="M490.6,66c-4.2,0-8.2,2.2-11.8,4.9l1.1-4.9h-14.4l-6.3,29.2c-3.5,7.3-11.9,13.1-16.8,13.1
			c-3.9,0-8.2-2-8.2-8.5c0-1.2,0-2.6,0.2-4.2c9.5-1.2,22.6-8.1,22.6-20.1c0-6.9-4.6-10.3-12.8-10.3c-18.2,0-23.6,22-23.6,34.6
			c0,0.7,0,1.5,0.1,2.3c-3,3.3-6.7,5.8-10.6,7.8l9.4-43.7h-14.4l-1.1,4.7c-1.4-2.6-4.2-4.6-7.8-4.6c-19.4,0-24.7,22.5-24.7,36.1
			c0,1,0.1,2,0.2,3c-1,0.7-2.2,1.1-3.7,1.1c-3.9,0-5-1.6-5-3.7c0-1,0.2-2,0.5-3.1l4.1-18.8c0.2-0.8,0.2-1.6,0.2-2.4
			c0-6.6-6.1-12.3-11.5-12.3c-4.4,0-9,2.3-13.1,5.3l1.2-5.3H330l-7.9,37c-2.4,1.8-4.8,3.4-6.9,3.4c-4,0-5-1.6-5-3.8
			c0-0.9,0.2-2,0.4-3.1l7.2-33.5h-14.4l-0.6,2.5c-1.8-1.4-4.3-2.4-6.7-2.4c-20,0-26.2,20.3-26.2,37.2c0,5.8,2.8,12.5,12.4,12.5
			c6.1,0,10.6-4,13.6-8.1c1.3,5.1,5.7,7.5,12.2,7.5c3.8,0,8.5-3.1,12.8-6.9l-1.4,6.9h14.4l8.5-39.8c2.1-1.4,3.9-2,6.3-2
			c2.7,0,4.6,2.2,4.6,5.8c0,0.8,0,1.7-0.2,2.5l-3.8,17.8c-0.4,1.9-0.6,3.5-0.6,5c0,7.4,4.6,10.7,12.4,10.7c4.1,0,8.1-2.9,11.7-6.4
			c1.6,3.9,5,7.2,11.1,7.2c4.6,0,8.6-2.1,11.6-4.7l-1,4.5c-9,3.2-16.3,6.5-16.3,14.6c0,6.4,5.1,9.6,11.2,9.6c6.6,0,15-2.7,18-16.8
			l1.7-7.9c5.4-2,10.4-4.3,13.5-7.6c2.3,4.5,6.7,7.6,13,7.6c8.9,0,16.2-4.7,21.7-10.9l-2.3,10.9h14.4l8.3-38.6
			c2.3-2.1,3.9-3.2,6.9-3.2s0.2,6.5,5.8,6.5c4.9,0,7.5-4.2,7.5-7.7C497.8,68.6,495,66,490.6,66z M447.5,70.4c3,0,3.5,3.5,3.5,5.5
			c-0.1,7-6.6,14.8-15.8,14.9C437.3,81.5,442,70.4,447.5,70.4z M296.2,99.5c-0.3,1.2-0.5,2.3-0.6,3.3c-1.9,2.7-4.1,4.9-6.4,4.9
			c-2.5,0-5.8-1.1-5.8-7c0-13.4,6-29.1,13.5-29.1c1.4,0,3.3,0.4,4.9,1.8L296.2,99.5z M397,103.2c-1.9,2-4,3.4-6,3.4
			c-4.4,0-7.3-1.5-7.3-6.2c0-8.5,3.8-28.8,13.5-28.8c1.7,0,4.1,1.3,5.7,4.3L397,103.2z"/>
	</g>
</g>
</svg>
