<?xml version="1.0" encoding="utf-8"?>
<!-- Generator: Adobe Illustrator 22.0.1, SVG Export Plug-In . SVG Version: 6.00 Build 0)  -->
<svg version="1.1" id="Layer_1" xmlns="http://www.w3.org/2000/svg" xmlns:xlink="http://www.w3.org/1999/xlink" x="0px" y="0px"
	 viewBox="0 0 300 234.3" style="enable-background:new 0 0 300 234.3;" xml:space="preserve">
<style type="text/css">
	.st0{fill:#FDE1DD;}
</style>
<g>
	<path class="st0" d="M283.5,57h-267C7.4,57,0,49.6,0,40.5v0C0,31.4,7.4,24,16.5,24h267c9.1,0,16.5,7.4,16.5,16.5v0
		C300,49.6,292.6,57,283.5,57z"/>
</g>
<g>
	<path class="st0" d="M283.5,142h-267C7.4,142,0,134.6,0,125.5v0c0-9.1,7.4-16.5,16.5-16.5h267c9.1,0,16.5,7.4,16.5,16.5v0
		C300,134.6,292.6,142,283.5,142z"/>
</g>
<g>
	<path class="st0" d="M283.5,223h-267C7.4,223,0,215.6,0,206.5v0c0-9.1,7.4-16.5,16.5-16.5h267c9.1,0,16.5,7.4,16.5,16.5v0
		C300,215.6,292.6,223,283.5,223z"/>
</g>
</svg>
